<svg fill="none" height="2990" viewBox="0 0 2300 2990" width="2300" xmlns="http://www.w3.org/2000/svg" xmlns:xlink="http://www.w3.org/1999/xlink">
    <clipPath id="a">
        <path d="m0 0h2300v2990h-2300z"/>
    </clipPath>
    <clipPath id="b">
        <path d="m100 90h2110v363h-2110z"/>
    </clipPath>
    <mask id="c" fill="#fff">
        <path d="m256.217 1498.78v13.38h-18.657v107.06h-10.903v-107.06h-18.657v-13.38z" fill="#fff"/>
        <path d="m352.626 1498.78h10.903v120.44h-10.903v-55.96h-27.622v55.96h-10.904v-120.44h10.904v50.92h27.622z" fill="#fff"/>
        <path d="m429.939 1619.22v-120.44h37.678v13.38h-26.774v37.37h24.23v13.03h-24.23v43.28h28.712v13.38z" fill="#fff"/>
        <path d="m600.925 1619.22v-120.44h37.678v13.38h-26.774v37.89h23.745v13.03h-23.745v56.14z" fill="#fff"/>
        <path d="m721.321 1621.83c-7.834 0-13.73-3.19-17.687-9.56-3.877-6.37-5.816-16.45-5.816-30.24v-83.25h10.904v81.86c0 9.15.928 16.04 2.786 20.68 1.858 4.52 5.21 6.78 10.056 6.78 5.007 0 8.399-2.32 10.176-6.96 1.858-4.75 2.786-11.58 2.786-20.5v-81.86h10.904v83.25c0 13.55-2.019 23.58-6.058 30.06-4.038 6.49-10.055 9.74-18.051 9.74z" fill="#fff"/>
        <path d="m850.809 1498.78v13.38h-18.657v107.06h-10.904v-107.06h-18.657v-13.38z" fill="#fff"/>
        <path d="m931.468 1621.83c-7.835 0-13.73-3.19-17.688-9.56-3.877-6.37-5.815-16.45-5.815-30.24v-83.25h10.903v81.86c0 9.15.929 16.04 2.787 20.68 1.857 4.52 5.209 6.78 10.055 6.78 5.008 0 8.4-2.32 10.177-6.96 1.857-4.75 2.786-11.58 2.786-20.5v-81.86h10.903v83.25c0 13.55-2.019 23.58-6.057 30.06-4.038 6.49-10.056 9.74-18.051 9.74z" fill="#fff"/>
        <path d="m1021.22 1500.52c5.65-1.97 11.1-2.96 16.35-2.96 4.2 0 8 .7 11.39 2.09s6.3 3.59 8.72 6.6c2.43 3.02 4.28 6.9 5.58 11.65 1.37 4.75 2.06 10.48 2.06 17.2 0 8.35-1.13 15.12-3.4 20.34-2.18 5.1-5.16 8.98-8.96 11.64.97 2.32 2.18 5.5 3.63 9.56 1.54 3.94 3.07 8.34 4.61 13.21 1.61 4.75 3.15 9.67 4.6 14.77 1.54 5.1 2.83 9.96 3.88 14.6h-10.91c-.88-3.48-2.01-7.42-3.39-11.82-1.29-4.4-2.66-8.75-4.12-13.03-1.45-4.41-2.9-8.58-4.36-12.52-1.45-4.05-2.74-7.47-3.87-10.25-1.3.23-2.63.41-4 .52-1.38.12-2.75.18-4.12.18h-3.03v46.92h-10.66zm10.66 58.91h4.6c5.58 0 9.86-1.79 12.84-5.38 2.99-3.71 4.49-10.03 4.49-18.95 0-4.52-.41-8.28-1.21-11.29-.73-3.13-1.82-5.56-3.28-7.3-1.37-1.86-3.06-3.19-5.08-4-1.94-.81-4.12-1.22-6.55-1.22-2.1 0-4.03.18-5.81.53z" fill="#fff"/>
        <path d="m1129.49 1619.22v-120.44h37.67v13.38h-26.77v37.37h24.23v13.03h-24.23v43.28h28.71v13.38z" fill="#fff"/>
        <path d="m1300.47 1498.78h10.91v120.44h-10.91z" fill="#fff"/>
        <path d="m1388.16 1608.44c4.36 0 7.71-1.73 10.06-5.21 2.42-3.48 3.63-8.17 3.63-14.08 0-3.13-.36-5.91-1.09-8.34s-1.7-4.63-2.91-6.6c-1.13-1.97-2.46-3.77-3.99-5.39-1.54-1.62-3.11-3.24-4.73-4.87-1.86-1.85-3.8-3.82-5.81-5.91-2.02-2.08-3.88-4.51-5.58-7.3-1.61-2.78-2.95-6.02-4-9.73s-1.57-8.05-1.57-13.03c0-4.87.56-9.27 1.7-13.21 1.21-3.94 2.82-7.3 4.84-10.08 2.1-2.78 4.56-4.92 7.39-6.43 2.91-1.51 6.02-2.26 9.33-2.26 3.23 0 6.22.58 8.97 1.74 2.74 1.16 5.04 2.55 6.9 4.17l-3.39 12.34c-1.7-1.62-3.56-2.84-5.57-3.65-1.94-.93-4-1.39-6.18-1.39-3.96 0-7.15 1.56-9.57 4.69-2.35 3.01-3.52 7.47-3.52 13.38 0 3.25.37 6.09 1.09 8.52.81 2.43 1.82 4.63 3.03 6.6 1.29 1.97 2.75 3.77 4.36 5.39 1.7 1.62 3.48 3.3 5.33 5.04 1.86 1.74 3.76 3.65 5.7 5.74 1.94 2.08 3.67 4.51 5.21 7.29 1.61 2.67 2.9 5.86 3.87 9.56 1.05 3.6 1.58 7.88 1.58 12.86 0 4.52-.49 8.81-1.45 12.86-.97 4.06-2.51 7.65-4.61 10.78-2.02 3.01-4.6 5.45-7.75 7.3-3.07 1.74-6.71 2.61-10.91 2.61-3.87 0-7.26-.64-10.17-1.92-2.91-1.27-5.49-2.95-7.76-5.04l3.4-12.51c2.1 1.86 4.24 3.36 6.42 4.52 2.26 1.04 4.84 1.56 7.75 1.56z" fill="#fff"/>
        <path d="m1552.89 1550.05h7.51c10.01 0 15.02-6.49 15.02-19.47 0-4.05-.44-7.35-1.33-9.9-.81-2.67-1.9-4.69-3.27-6.08-1.37-1.51-2.99-2.55-4.85-3.13-1.77-.58-3.67-.87-5.69-.87-1.21 0-2.47.06-3.76.17-1.21.12-2.42.29-3.63.52zm0 12.51v43.45c1.53.35 3.03.64 4.48.87 1.54.23 3.03.35 4.48.35 2.26 0 4.4-.35 6.42-1.05 2.02-.69 3.76-1.85 5.21-3.47 1.54-1.62 2.71-3.82 3.52-6.61.89-2.89 1.33-6.43 1.33-10.6 0-7.18-1.37-12.8-4.12-16.85-2.67-4.06-6.86-6.09-12.6-6.09zm-10.91-62.04c2.83-.93 5.7-1.62 8.61-2.09 2.98-.58 5.93-.87 8.84-.87 3.63 0 7.07.53 10.3 1.57 3.31.93 6.22 2.61 8.72 5.04 2.5 2.32 4.48 5.44 5.94 9.38 1.53 3.83 2.3 8.63 2.3 14.43 0 7.18-1.05 13.09-3.15 17.72-2.1 4.52-4.81 7.88-8.12 10.08 4.12 2.32 7.51 5.86 10.18 10.61 2.66 4.75 4 11.29 4 19.63 0 6.26-.73 11.53-2.18 15.82-1.38 4.29-3.36 7.82-5.94 10.6-2.59 2.67-5.69 4.64-9.33 5.91-3.55 1.16-7.47 1.74-11.75 1.74-2.83 0-5.78-.23-8.84-.7-3.07-.46-6.26-1.16-9.58-2.08z" fill="#fff"/>
        <path d="m1651.2 1500.52c5.65-1.97 11.1-2.96 16.35-2.96 4.2 0 8 .7 11.39 2.09s6.3 3.59 8.72 6.6c2.43 3.02 4.29 6.9 5.58 11.65 1.37 4.75 2.06 10.48 2.06 17.2 0 8.35-1.13 15.12-3.4 20.34-2.18 5.1-5.16 8.98-8.96 11.64.97 2.32 2.18 5.5 3.63 9.56 1.54 3.94 3.07 8.34 4.61 13.21 1.61 4.75 3.15 9.67 4.6 14.77 1.54 5.1 2.83 9.96 3.88 14.6h-10.9c-.89-3.48-2.02-7.42-3.4-11.82-1.29-4.4-2.66-8.75-4.12-13.03-1.45-4.41-2.9-8.58-4.36-12.52-1.45-4.05-2.74-7.47-3.87-10.25-1.3.23-2.63.41-4 .52-1.38.12-2.75.18-4.12.18h-3.03v46.92h-10.66zm10.66 58.91h4.6c5.58 0 9.86-1.79 12.85-5.38 2.98-3.71 4.48-10.03 4.48-18.95 0-4.52-.41-8.28-1.21-11.29-.73-3.13-1.82-5.56-3.27-7.3-1.38-1.86-3.07-3.19-5.09-4-1.94-.81-4.12-1.22-6.55-1.22-2.09 0-4.03.18-5.81.53z" fill="#fff"/>
        <path d="m1759.47 1498.78h10.9v120.44h-10.9z" fill="#fff"/>
        <path d="m1833.22 1558.91c0-11.35.73-21.03 2.18-29.02 1.46-7.99 3.52-14.48 6.18-19.47 2.75-5.09 6.02-8.74 9.82-10.94 3.87-2.32 8.19-3.48 12.96-3.48 3.63 0 6.94.75 9.93 2.26 2.99 1.39 5.41 3.01 7.27 4.87l-3.39 13.03c-1.86-1.85-3.88-3.36-6.06-4.52-2.18-1.27-4.68-1.91-7.51-1.91-7.03 0-12.07 4.11-15.14 12.34-3.07 8.11-4.61 20.39-4.61 36.84 0 8.81.45 16.34 1.34 22.6.97 6.25 2.3 11.35 3.99 15.29 1.7 3.94 3.76 6.84 6.18 8.69 2.43 1.85 5.13 2.78 8.12 2.78 2.5 0 4.64-.41 6.42-1.22v-47.09h10.9v56.65c-2.18 1.51-4.88 2.78-8.11 3.83-3.23 1.04-6.63 1.56-10.18 1.56-4.36 0-8.4-1.22-12.11-3.65-3.72-2.55-6.95-6.37-9.7-11.47-2.66-5.21-4.76-11.76-6.3-19.64-1.45-7.99-2.18-17.44-2.18-28.33z" fill="#fff"/>
        <path d="m1984.95 1498.78h10.9v120.44h-10.9v-55.96h-27.62v55.96h-10.91v-120.44h10.91v50.92h27.62z" fill="#fff"/>
        <path d="m2102 1498.78v13.38h-18.66v107.06h-10.9v-107.06h-18.66v-13.38z" fill="#fff"/>
    </mask>
    <g clip-path="url(#a)">
        <path d="m0 0h2300v2990h-2300z" fill="#ef8ca9"/>
        <path clip-rule="evenodd" d="m2170 594h-2040v2300h2040zm-2075-35v2370h2110v-2370z" fill="#000" fill-rule="evenodd"/>
        <g clip-path="url(#b)" fill="#000">
            <path d="m1018.32 243.95v208.786h88.85v-362.736h-79.29l-91.809 135.003-92.703-134.8447h-78.661v362.6307h84.89v-210.475l84.943 126.085z"/>
            <path d="m1562.34 452.683h-91.06l-22.86-72.726h-128.39l-27.35 73.201h-90.85l131.45-362.8413h99.78zm-222.25-136.745h86.1l-42.23-131.942z"/>
            <path d="m426.52 452.736v-362.5249h218.137v72.8849h-127.598v67.924h120.735v69.982h-121.052v78.638h130.925v73.096z"/>
            <path d="m1988.91 452.683v-362.5247h216.18v73.5187h-130.71v67.449h125.38v69.665h-125.33v78.374h135.57v73.518z"/>
            <path d="m310.113 305.752h-121.422v147.09h-88.691v-362.6309h210.271v72.7799h-121.052v69.085h120.894z"/>
            <path d="m1746.43 369.19h133.94v83.81h-223.32v-362.8417h89.38z"/>
        </g>
        <text fill="#000" font-family="PT Sans Narrow" font-size="144" font-weight="bold" letter-spacing="-.02em" xml:space="preserve">
         <tspan x="179" y="934.928">ON OUR </tspan>
            <tspan x="179" y="1056.93">TREND LIST</tspan>
      </text>
        <svg height="7249" viewBox="0 0 1200 1800" width="4832" x="-1084" y="-482">
            <path d="m615.73 1567.86c1.27 7.28 2.18 12.76 2.6 15.81 3.58 25.64 12.67 129.33-2.66 127.33s-34.9-40.33-40.59-50.32 5.22-38.5 5.14-80.48 28.12-54.63 35.51-12.34zm9.07-114.19c5.85 45.7 12.2 32.33 2.2 113.13-22 .81-32.86-48.55-37.89-107-6.19-72.01 29.96-50.8 35.69-6.13z" fill="#f3e6d0"/>
            <path d="m626.33 1483 .4 1.85c.17.6.41 1.19.6 1.78s.52 1.13.82 1.68.62 1.08 1 1.61a30.71 30.71 0 0 1 1.91 3.33 19.54 19.54 0 0 1 1.31 3.67 14 14 0 0 1 .41 1.9c.09.64.23 1.29.3 1.93.08 1.28.26 2.58.26 3.86s.07 2.57 0 3.85l-.16 3.84c-.73 5.06-1.64 10-2.75 15s-2.28 9.84-3.3 14.78-2 9.88-2.62 14.88c-.33 2.49-.58 5-.71 7.51 0 .63 0 1.26-.13 1.91 0 .15 0 .35-.25.51a.74.74 0 0 1 -.55-.1c-.29-.13-.56-.28-.85-.4a10 10 0 0 0 -3.68-.72 10 10 0 0 1 3.74.56c.3.11.6.24.88.36s.3.11.35.08.09-.19.1-.33c.05-.61 0-1.25 0-1.88 0-2.53.16-5.06.37-7.58.43-5 1.12-10.06 1.93-15.06s1.76-10 2.6-14.92 1.54-9.94 2-14.91l.5-3.7c.17-1.23.22-2.47.34-3.71s0-2.46.09-3.71c0-.61-.08-1.22-.11-1.83a12.36 12.36 0 0 0 -.22-1.83 17.61 17.61 0 0 0 -.9-3.55 30.27 30.27 0 0 0 -1.55-3.4c-.29-.55-.55-1.14-.83-1.72s-.46-1.19-.67-1.79-.33-1.24-.44-1.86z" fill="#231f20"/>
            <path d="m619.07 1587a81.49 81.49 0 0 0 -1 13c0 4.33.21 8.66.59 13 .19 2.15.42 4.31.71 6.45l.11.78.16.79.3 1.61c.18 1.08.34 2.16.5 3.24.59 4.32 1 8.65 1.31 13 .63 8.68.94 17.37 1 26.07s-.07 17.41-.71 26.13a96.34 96.34 0 0 1 -2.31 14.65 23.06 23.06 0 0 1 -1.27 3.66 8.71 8.71 0 0 1 -1.13 1.84 4.43 4.43 0 0 1 -1 .87c-.37.23-.61.32-.92.49a11.1 11.1 0 0 1 -3.93 1.17 7.25 7.25 0 0 1 -4.22-.93 10.44 10.44 0 0 1 -3-2.79 22.68 22.68 0 0 1 -2-3.3c-1.14-2.25-2-4.56-3-6.75a22.82 22.82 0 0 0 -1.58-3.08 5.8 5.8 0 0 0 -1-1.17 3.54 3.54 0 0 0 -.54-.39 6.79 6.79 0 0 1 -.91-.59 17.12 17.12 0 0 1 -2.73-2.8c-.79-1-1.51-2-2.21-3-5.48-8.2-9.84-16.94-14.64-25.39l-.91-1.57c-.31-.51-.61-1.05-.91-1.63a11.26 11.26 0 0 1 -1.28-3.68 10.23 10.23 0 0 1 .25-3.91c.29-1.25.72-2.39 1.09-3.55a43.68 43.68 0 0 0 1.8-7 47.72 47.72 0 0 0 .56-7.18v-.09-.09a170.48 170.48 0 0 0 5.13-22.15 82.66 82.66 0 0 0 .65-22.65c-.06-.47-.1-.94-.17-1.41l-.27-1.39c-.19-.93-.35-1.86-.56-2.78-.51-1.83-1-3.66-1.66-5.43a102.73 102.73 0 0 0 -4.71-10.37c-.44-.85-.79-1.74-1.16-2.62a11.45 11.45 0 0 1 -.46-1.36 13.55 13.55 0 0 1 -.4-1.38 41.53 41.53 0 0 1 -.9-5.65 33 33 0 0 1 0-5.71 22.73 22.73 0 0 1 1.12-5.59 22.23 22.23 0 0 0 -1 5.6 32.78 32.78 0 0 0 .09 5.69 39.27 39.27 0 0 0 1 5.6 31.89 31.89 0 0 0 .88 2.7c.39.86.74 1.74 1.19 2.58a101.67 101.67 0 0 1 4.86 10.35 54.21 54.21 0 0 1 1.75 5.46c.23.93.41 1.87.61 2.8l.29 1.41c.08.47.13 1 .19 1.42a83 83 0 0 1 -.34 22.86 170.76 170.76 0 0 1 -4.85 22.37v-.17a48.19 48.19 0 0 1 -.47 7.39 46.1 46.1 0 0 1 -1.75 7.2c-.74 2.32-1.56 4.6-1.2 6.78s1.77 4.14 3 6.29c4.93 8.42 9.43 17.11 14.89 25 .69 1 1.41 1.94 2.16 2.85a14.67 14.67 0 0 0 2.39 2.4 4.88 4.88 0 0 0 .61.4 4.91 4.91 0 0 1 1 .65 7.64 7.64 0 0 1 1.39 1.61 25.21 25.21 0 0 1 1.81 3.38c1 2.25 1.91 4.51 3 6.59s2.39 4.05 4.14 5 3.86.64 5.83-.39c.23-.12.55-.27.7-.37a1.89 1.89 0 0 0 .36-.35 6.36 6.36 0 0 0 .75-1.28 21.34 21.34 0 0 0 1.07-3.25 94 94 0 0 0 2-14.23c.86-8.58 1.24-17.24 1.4-25.89s.08-17.32-.32-26c-.2-4.32-.48-8.64-1-12.94-.12-1.07-.25-2.15-.41-3.21l-.25-1.6-.14-.81-.09-.83c-.23-2.16-.4-4.33-.54-6.5-.26-4.34-.37-8.69-.24-13a82.62 82.62 0 0 1 1.45-12.93z" fill="#231f20"/>
            <path d="m715.67 349.42c-7.48-.86-15-1.69-22.45-2.34s-15-1.13-22.47-1.51c-7.45-.92-14.92-1.74-22.39-2.52l-5.61-.58-2.8-.29c-.45 0-1-.13-1.48-.21a10.6 10.6 0 0 1 -1.49-.29 19.35 19.35 0 0 1 -5.53-2.39 24.7 24.7 0 0 1 -4.52-3.79 40.58 40.58 0 0 1 -6.52-9.49 72.66 72.66 0 0 1 -4.36-10.5 112.23 112.23 0 0 1 -3-10.9c-.83-3.68-1.53-7.38-2-11.11a119.68 119.68 0 0 0 6 21.65 72.2 72.2 0 0 0 4.76 10.1 38.69 38.69 0 0 0 6.62 8.75 22.88 22.88 0 0 0 4.26 3.25 17.45 17.45 0 0 0 4.87 1.84 8 8 0 0 0 1.28.18 13.12 13.12 0 0 0 1.32.13l2.82.16 5.64.31c7.51.43 15 .9 22.55 1.46 7.46 1.1 14.92 2.3 22.34 3.65s14.79 2.88 22.16 4.44z" fill="#231f20"/>
            <path d="m422.25 427a16.46 16.46 0 0 1 2.58-7.76 29.88 29.88 0 0 1 5.37-6.24 73.86 73.86 0 0 1 13.59-9.41c9.64-5.37 19.8-9.63 29.9-13.88 5.13-1.91 10.26-3.79 15.32-5.8a119.83 119.83 0 0 0 14.72-6.75 24.44 24.44 0 0 0 6.17-4.73c1.84-2.05 3.65-4.07 5.44-6.12a153.08 153.08 0 0 0 10.07-12.83 90.54 90.54 0 0 0 14-29.23c.31-1.33.63-2.65.92-4l.62-4c.34-2.7.47-5.44.72-8.17l1.33-16.42-.88 16.4c-.17 2.73-.23 5.47-.5 8.2l-.52 4.1c-.25 1.35-.55 2.69-.82 4a92.24 92.24 0 0 1 -13.41 30 161.25 161.25 0 0 1 -9.87 13.33c-1.75 2.11-3.54 4.21-5.31 6.29a26.51 26.51 0 0 1 -6.64 5.41 121.72 121.72 0 0 1 -14.9 7.34c-5.02 2.16-10.15 4.19-15.15 6.27-10.29 3.69-20.58 7.36-30.36 12.14a72.59 72.59 0 0 0 -13.83 8.51 29.31 29.31 0 0 0 -5.58 5.87 16.18 16.18 0 0 0 -2.98 7.48z" fill="#231f20"/>
            <path d="m720 350.72a18.59 18.59 0 0 1 7.62 4.35 41.57 41.57 0 0 1 6 6.69 73.2 73.2 0 0 1 4.78 13.61v.18a143.37 143.37 0 0 1 .2 20.41 141.37 141.37 0 0 0 -2.7-20.09v.22a68.61 68.61 0 0 0 -5.9-12.25 38.43 38.43 0 0 0 -3.87-7.34 17.63 17.63 0 0 0 -6.13-5.78z" fill="#231f20"/>
            <path d="m739.33 447.33c3 15.26 15.32 161.52 13.57 156.74s35.1 60.93 37.92 91.33 37.51 122.6 37.51 122.6 50.67 32 60.34 50.33c-14.34 38.34 5.33 30.67-6 34.67s-18.67 2-18.67 2 1.78 7 .67 13.33-11-11.86-25-16.46 1.36-12.46-15.79-26.74-68.14-137-89.83-178.8-29.05-71.33-36.61-123.1-24.44-61.73-24.44-61.73l-166.5 42.5s-.73 19.67-8.45 81-89.05 189.33-89.05 189.33c-38.67 68.67-33.19 147.34-42.67 141.67-49.32-29.49-38.91-71-38.91-71s129.58-225.67 117.85-324.35c-4.16-35-.19-63.17-11.56-111.12" fill="#f3e6d0"/>
            <g fill="#231f20">
                <path d="m514 536.5c-.12 6.44-12.67 81.92-15.48 97.94-2.14-2-9.83 18.52-12.06 5.56-5.57-32.39 1.79-130.36 1.79-130.36z" opacity=".1"/>
                <path d="m363.15 911.17c.66 7.14-.08 23.84 4.55 25.17" opacity=".1"/>
                <path d="m673 511.5s5.89-26.88 5.33-35.83a641.11 641.11 0 0 1 23.34 111s-11.55-57.91-28.67-75.17z" opacity=".1"/>
                <path d="m411.94 819.67s72.48-101.67 79.42-167.29c-20.86 91.62-134.19 195.12-116.74 245.41 14.05-42.29 37.32-78.12 37.32-78.12z" opacity=".1"/>
                <path d="m829.21 879.65c3 1.6 10.29 7.34 17.13 15.72s14.35 21.28 14.35 21.28-10.17-11.3-21.64-15c-9.47-3.5-3.47-9.07-9.84-22z" opacity=".1"/>
                <path d="m865.83 878.33c-4-9.5-.52-9.83-10.83-9.66-7 .11-10-1.88-10-1.88s8.13 8.13 13.76 15.26c3.79 5.2 6.16 23.13 6.16 23.13a34.35 34.35 0 0 0 17.8-2.18c-13.92 7.25-10.23-21.51-10.23-21.51s-6.66 2.59-6.66-3.16z" opacity=".1"/>
                <path d="m433.71 459.53a22.74 22.74 0 0 1 -.86-2.65v-.09s0-.11.06 0a1.22 1.22 0 0 1 .07.17l.11.33.21.66.4 1.34 1.58 5.36 3.08 10.73a97.76 97.76 0 0 1 2.64 10.78c.35 1.83.59 3.68.87 5.53s.48 3.7.67 5.55c1.55 14.84 2.08 29.74 2.44 44.63.63 29.79.28 59.59-.47 89.37l-.62 13.85v.3l-.11.26q-8.2 19.88-16.69 39.58l-8.52 19.71-4.3 9.83c-1.39 3.29-2.84 6.55-4.18 9.86-10.86 26.41-20 53.57-30.5 80.21-5.28 13.32-10.91 26.52-17.43 39.29q-4.93 9.54-10.09 19c-3.44 6.28-7.06 12.47-10.61 18.67-1.72 3.11-3.57 6.22-4.38 9.63a27.67 27.67 0 0 0 -.56 5.25 19.11 19.11 0 0 0 .09 2.63 25 25 0 0 1 .31 2.7c-.05 3.68-1.21 7.13-2.14 10.57a62.57 62.57 0 0 0 -2.13 10.42 36.53 36.53 0 0 0 -.18 5.33 14.62 14.62 0 0 0 1.08 5.17 52.07 52.07 0 0 0 5 9.45 152.13 152.13 0 0 0 13 17 153 153 0 0 1 -13.17-16.94 51.83 51.83 0 0 1 -5.11-9.44 15.15 15.15 0 0 1 -1.15-5.27 35.91 35.91 0 0 1 .12-5.39 62.14 62.14 0 0 1 2-10.56c.9-3.45 2-6.9 2-10.42a23.13 23.13 0 0 0 -.34-2.63 19.1 19.1 0 0 1 -.11-2.72 29.16 29.16 0 0 1 .52-5.41c.83-3.59 2.67-6.74 4.37-9.88 3.5-6.25 7-12.45 10.41-18.76s6.67-12.65 9.89-19c6.37-12.78 11.85-26 17-39.33 10.24-26.69 19.08-53.92 29.73-80.56 1.3-3.33 2.73-6.63 4.1-9.94l4.2-9.88 8.32-19.77q8.25-19.8 16.27-39.69l-.12.56.48-13.83c1.34-29.72 2.28-59.47 2.24-89.22-.07-14.86-.3-29.75-1.55-44.56-.15-1.85-.37-3.7-.55-5.55s-.46-3.68-.76-5.51a97.26 97.26 0 0 0 -2.45-10.86l-2.89-10.77-1.46-5.38-.38-1.34-.2-.67-.1-.33-.06-.16c.09 0 0 .08.08.12a20.51 20.51 0 0 0 .83 2.67z"/>
                <path d="m370 862a83.7 83.7 0 0 0 -.06 13.71 55.9 55.9 0 0 0 .92 6.75 39.36 39.36 0 0 0 2 6.44 67.65 67.65 0 0 1 2.37 6.56 28.21 28.21 0 0 1 1.07 7.08 52.52 52.52 0 0 1 -.39 7.05l-.75 6.87c-.85 5.1-1.71 10.18-2.9 15.28a34.2 34.2 0 0 1 -1.12 3.9 8.11 8.11 0 0 1 -.54 1.14 2.51 2.51 0 0 1 -1.79 1.18 3 3 0 0 1 -1.78-.37 4.42 4.42 0 0 1 -1.08-.81 10.64 10.64 0 0 1 -2.3-3.78 19.58 19.58 0 0 1 -1-4 32.51 32.51 0 0 1 -.12-8 36 36 0 0 0 0-7.48 28.08 28.08 0 0 0 -1.83-7.21 37.6 37.6 0 0 0 -3.66-6.6l1.19.13a28.09 28.09 0 0 0 -6.35 9.8 21.37 21.37 0 0 0 -1 11.62c1.36 7.89 6.11 14.83 7.81 22.74-1.95-7.85-6.9-14.54-8.57-22.59a22.21 22.21 0 0 1 .66-12.16 27.6 27.6 0 0 1 2.62-5.58 29.58 29.58 0 0 1 3.75-4.95l.62-.66.56.78a38.7 38.7 0 0 1 4 6.76 30 30 0 0 1 2.2 7.65 38.29 38.29 0 0 1 .29 7.93 30.35 30.35 0 0 0 .33 7.4 17.24 17.24 0 0 0 1 3.44 8 8 0 0 0 1.73 2.73 2.25 2.25 0 0 0 .47.34c.12.06.18 0 .07 0a.58.58 0 0 0 -.26.12c.06-.18.16-.33.25-.63a32.08 32.08 0 0 0 .89-3.54c1-5 1.69-10.06 2.37-15.14l1.18-6.76a50 50 0 0 0 .8-6.64 25.77 25.77 0 0 0 -.56-6.55 64.08 64.08 0 0 0 -1.89-6.5 41.15 41.15 0 0 1 -1.66-6.8 57.82 57.82 0 0 1 -.5-6.93 85.4 85.4 0 0 1 .96-13.72z"/>
                <path d="m340.64 875.13a23.44 23.44 0 0 1 -2.66 6.43 37.61 37.61 0 0 1 -4.21 5.6 50 50 0 0 0 -4.38 5.23 6.31 6.31 0 0 0 -1.06 2.82 14.67 14.67 0 0 0 0 3.25 15.52 15.52 0 0 0 .92 3.1 33.63 33.63 0 0 1 1 3.46c.14.58.26 1.17.37 1.76s.2 1.26.26 1.85c.11 1.22.15 2.4.18 3.57.1 4.68.07 9.27.4 13.78a50.77 50.77 0 0 0 .53 6.93 15 15 0 0 0 2 6 4.36 4.36 0 0 0 1.92 1.63 15.75 15.75 0 0 1 3.52 2 48.26 48.26 0 0 1 5.65 4.92c3.49 3.44 6.7 7 10.07 10.43a59.89 59.89 0 0 0 5.23 4.78 18 18 0 0 0 2.84 1.83 4.29 4.29 0 0 0 2.78.5l-.71 1c0-1.49 0-3-.14-4.49-.07-.74-.15-1.48-.27-2.19a5.38 5.38 0 0 0 -.57-1.79l1.29-1.08a25 25 0 0 0 2 2.09 8.56 8.56 0 0 0 1.09.86 3.25 3.25 0 0 0 .52.27h.16s0 0 0 0v.07c-.06-.19 0-.05 0-.1h.06a4.24 4.24 0 0 0 1.75-1.79 17.57 17.57 0 0 0 1.31-2.6 31.17 31.17 0 0 0 1.7-5.7 17.1 17.1 0 0 0 .34-5.86l-.06-.39.4-.06a.41.41 0 0 0 .27-.13 1 1 0 0 0 .17-.41 3.47 3.47 0 0 0 0-1.12 13.15 13.15 0 0 0 -.47-2.36 39 39 0 0 0 -1.7-4.59 68.61 68.61 0 0 0 -4.6-8.68 70.14 70.14 0 0 1 4.95 8.53 38.32 38.32 0 0 1 1.89 4.58 15.1 15.1 0 0 1 .59 2.45 4.54 4.54 0 0 1 0 1.33 1.88 1.88 0 0 1 -.29.72 1.18 1.18 0 0 1 -.78.43l.33-.45a18.1 18.1 0 0 1 -.1 6.19 33.46 33.46 0 0 1 -1.54 6 19.7 19.7 0 0 1 -1.3 2.85 9.11 9.11 0 0 1 -.94 1.35 3.82 3.82 0 0 1 -1.47 1.12 1.73 1.73 0 0 1 -.64.12 3.06 3.06 0 0 1 -.57-.1 5.58 5.58 0 0 1 -.85-.39 11.19 11.19 0 0 1 -1.32-1 24.63 24.63 0 0 1 -2.27-2.18l1.29-1.08a6.81 6.81 0 0 1 1 2.5c.17.79.28 1.57.38 2.35.18 1.57.28 3.1.32 4.68v.76l-.73.21a6.25 6.25 0 0 1 -4.26-.49 19.74 19.74 0 0 1 -3.32-2 60.57 60.57 0 0 1 -5.65-4.77c-3.56-3.32-6.92-6.8-10.43-10a46.81 46.81 0 0 0 -5.43-4.39 13.08 13.08 0 0 0 -2.81-1.47 8 8 0 0 1 -3.68-2.79 14.06 14.06 0 0 1 -1.92-3.7 25.56 25.56 0 0 1 -1-3.78 54.92 54.92 0 0 1 -.85-7.48c0-4.74.4-9.4.65-14 .06-1.14.11-2.28.09-3.37a14.14 14.14 0 0 0 -.1-1.59c-.06-.56-.13-1.12-.22-1.66a27.8 27.8 0 0 0 -.7-3.26 17.26 17.26 0 0 1 -.76-3.62 16.9 16.9 0 0 1 .25-3.67 8.24 8.24 0 0 1 1.6-3.52 53.59 53.59 0 0 1 4.92-5.05 36.39 36.39 0 0 0 4.54-5.15 23.17 23.17 0 0 0 3.23-6.03z"/>
                <path d="m739.33 447.33 7.78 53.24 2.31 26.78 1.15 13.39.57 6.7c.15 2.27.25 4.48.37 6.73.44 9 .84 17.9 1.14 26.86q.23 6.72.34 13.44c0 4.48.13 9-.26 13.44.21-4.47-.06-8.95-.27-13.42s-.54-8.94-.88-13.4c-.65-8.93-1.4-17.86-2.2-26.77-.2-2.23-.39-4.48-.62-6.67l-.84-6.67-1.68-13.33-3.36-26.65z"/>
                <path d="m750.67 586.67 10.6 35.74-.21-.38a84.87 84.87 0 0 1 13.16 18.27 71.48 71.48 0 0 1 4.28 10.55c1.15 3.61 2 7.27 2.92 10.82a65.62 65.62 0 0 0 2.64 9.56l3.52 9.62c2.27 6.44 4.49 12.9 6.57 19.4 4.19 13 8.05 26.07 11.75 39.19s7.23 26.28 10.77 39.43c1.78 6.57 3.55 13.15 5.42 19.69s3.72 13.11 6.24 19.44c-2.69-6.26-4.7-12.79-6.75-19.28s-4-13-5.93-19.56c-3.88-13.06-7.75-26.16-11.79-39.16s-8.23-25.94-12.73-38.77c-2.24-6.42-4.61-12.78-7-19.12l-3.75-9.48a70.5 70.5 0 0 1 -3.06-10c-.74-3.67-1.39-7.26-2.31-10.77a68.22 68.22 0 0 0 -3.54-10.22 82.8 82.8 0 0 0 -11.83-18.33l-.16-.2v-.19z"/>
                <path d="m828.33 819.67q9.64 5.7 19.15 11.63c6.34 4 12.66 8 18.86 12.22 2.27 1.83 4.53 3.66 6.72 5.67 1.09.95 2.2 2.12 3.21 3.19l2.88 3.24 5.76 6.47 2.88 3.24 1.44 1.62.36.4.1.12.15.22c.09.14.19.3.27.45a4 4 0 0 1 .27 1.62 9.79 9.79 0 0 1 -.46 2.45c-.22.74-.48 1.44-.75 2.13-.54 1.38-1.12 2.71-1.69 4-1.15 2.64-2.28 5.27-3.22 8a38 38 0 0 0 -2 8.22 17.35 17.35 0 0 0 .86 8.25l.06.16v.1a4 4 0 0 1 -1.67 2.27 7.77 7.77 0 0 1 -2.41 1.12 16.68 16.68 0 0 1 -5.11.41 47.75 47.75 0 0 1 -9.99-1.87 47.51 47.51 0 0 0 10 1.39 16 16 0 0 0 4.9-.62 7 7 0 0 0 2.1-1.1 3.32 3.32 0 0 0 1.23-1.74v.26a18.63 18.63 0 0 1 -1.34-8.75 40 40 0 0 1 1.68-8.65c.84-2.81 1.86-5.54 2.89-8.24.5-1.35 1-2.69 1.46-4a13.89 13.89 0 0 0 .87-3.79 2.79 2.79 0 0 0 0-.32c0-.09 0-.11 0-.18l-.08-.08-.38-.39-1.51-1.55-3-3.09-6-6.18-3-3.09a38.59 38.59 0 0 0 -3.06-2.77c-2.15-1.79-4.47-3.49-6.77-5.17-5.67-4.77-11.57-9.33-17.48-13.86s-12.15-9.02-18.18-13.41z"/>
                <path d="m709.67 626c1.48 8.66 3 17.31 5 25.88 1 4.27 1.93 8.57 4 12.34a40.83 40.83 0 0 0 7.89 10.17l.21.2v.29a87.58 87.58 0 0 0 2.45 10.12 46.12 46.12 0 0 0 1.78 4.8 18.58 18.58 0 0 0 2.42 4.29 5.06 5.06 0 0 0 .77.82l.4.34c.06.06.47.37.66.58a18.24 18.24 0 0 1 1.68 2.3c1 1.52 1.84 3 2.71 4.58 1.73 3.07 3.37 6.17 5 9.28 6.48 12.44 12.69 25 18.9 37.54 9.62 20.65 19.06 41.39 28.86 61.93 2.48 5.1 4.93 10.29 7.65 15.15l2.19 3.68c.69 1.28 1.4 2.55 2 3.85 1.29 2.59 2.43 5.24 3.48 7.92 2.12 5.35 3.82 10.84 5.57 16.24.44 1.34.87 2.69 1.36 4 .24.67.51 1.29.77 1.92a12.52 12.52 0 0 0 1 1.67 41.43 41.43 0 0 0 5.57 6.12c4.11 3.85 8.55 7.42 12.93 11.06 2.2 1.83 4.39 3.66 6.53 5.58a31.08 31.08 0 0 1 3.09 3.09c1 1.1 1.83 2.25 2.67 3.42 3.35 4.68 6.22 9.62 9.26 14.41a57.9 57.9 0 0 0 4.88 6.88 10.29 10.29 0 0 0 1.46 1.36c.53.35 1 .54 1.33.28a3.07 3.07 0 0 0 .86-1.49 10.73 10.73 0 0 0 .32-2 40.29 40.29 0 0 0 -.68-8.38c-.47-2.8-1.06-5.58-1.69-8.35l-2-8.31-1-4.15a12.94 12.94 0 0 0 -1.81-3.74 52.8 52.8 0 0 0 -5.45-6.51c-2-2.07-4-4.08-5.91-6.18a50.51 50.51 0 0 1 -5.39-6.63 17.76 17.76 0 0 1 -1.94-3.81 8.63 8.63 0 0 1 -.45-4.21 8.44 8.44 0 0 0 .52 4.19 17.55 17.55 0 0 0 2 3.76 51.61 51.61 0 0 0 5.48 6.52c2 2.06 4 4 6 6.08a52 52 0 0 1 5.61 6.49 13.73 13.73 0 0 1 1.95 3.88l1 4.15 2.1 8.29c.68 2.77 1.32 5.55 1.83 8.37a40.33 40.33 0 0 1 .83 8.6 10.83 10.83 0 0 1 -.33 2.23 3.91 3.91 0 0 1 -1.27 2.12 2 2 0 0 1 -.71.31 2.67 2.67 0 0 1 -.75 0 4 4 0 0 1 -1.16-.53 10.33 10.33 0 0 1 -1.69-1.52 58.69 58.69 0 0 1 -5.12-7c-3.13-4.77-6.07-9.65-9.43-14.19-.84-1.13-1.7-2.23-2.63-3.27a29.22 29.22 0 0 0 -3-2.89c-2.13-1.86-4.34-3.64-6.55-5.42-4.43-3.58-8.94-7.08-13.2-11a43 43 0 0 1 -6-6.4 15.17 15.17 0 0 1 -1.21-2c-.29-.68-.6-1.36-.85-2-.53-1.36-1-2.71-1.46-4.06-1.85-5.41-3.6-10.79-5.77-16-1.06-2.61-2.22-5.18-3.5-7.66-.63-1.26-1.33-2.47-2-3.68l-2.23-3.63c-2.92-5-5.41-10.13-8-15.23-10.14-20.43-19.91-41-29.85-61.51-5.81-12.73-11.61-25.46-17.68-38-1.53-3.14-3.07-6.27-4.67-9.35-.81-1.54-1.63-3.07-2.5-4.53a15.1 15.1 0 0 0 -1.33-2c0-.05-.53-.49-.9-.83a6.07 6.07 0 0 1 -1-1.12 20.75 20.75 0 0 1 -2.59-4.89 49.64 49.64 0 0 1 -1.65-5.1 89.88 89.88 0 0 1 -2.14-10.39l.26.49a42.36 42.36 0 0 1 -7.88-10.82 30.81 30.81 0 0 1 -2.33-6.28c-.55-2.14-1-4.3-1.41-6.46-1.62-8.65-2.91-17.34-4.12-26.05z"/>
                <path d="m848.5 902.5a45.6 45.6 0 0 1 -5.1.26 21.44 21.44 0 0 1 -5.18-.55 5.84 5.84 0 0 1 -2.41-1.49 8.12 8.12 0 0 1 -1.24-2.43c-.59-1.62-1.06-3.26-1.5-4.9-.87-3.28-1.63-6.58-2.32-9.89.92 3.26 1.91 6.49 3 9.69.55 1.59 1.13 3.18 1.8 4.69a7.33 7.33 0 0 0 1.17 2 4.6 4.6 0 0 0 1.95 1 20.25 20.25 0 0 0 4.79 1.19 44.51 44.51 0 0 0 5.04.43z"/>
                <path d="m712.75 635q-5.68-20.55-11.55-41-4.82-20.75-9.87-41.45c-1.69-6.89-3.41-13.78-5.23-20.64-.88-3.44-1.84-6.86-2.8-10.28s-2-6.81-3.29-10.12c1.41 3.26 2.52 6.64 3.63 10s2.15 6.77 3.15 10.18c2 6.81 4 13.64 5.91 20.48q5.77 20.52 11.25 41.12 4.49 20.83 8.8 41.71z"/>
                <path d="m379 888.2q2.64-9.41 5.76-18.69c2.4-6.06 4.94-12.06 7.73-18a125.23 125.23 0 0 1 9.51-17.01 123.19 123.19 0 0 0 -8.86 17.35c-2.57 6-4.88 12-7.06 18.16q-3.75 8.99-7.08 18.19z"/>
                <path d="m502.75 628q1-11.13 1.8-22.28c1.05-7.36 2-14.74 2.83-22.13s1.51-14.81 1.71-22.26c.16 7.45-.2 14.91-.65 22.35s-1.08 14.87-1.77 22.29q-1.84 11.03-3.92 22.03z"/>
                <path d="m415 815q16.33-27.75 31.95-55.89c5.4-9.26 10.72-18.57 15.82-28 2.54-4.72 5.05-9.46 7.35-14.28 1.16-2.4 2.29-4.84 3.41-7.28s2.31-4.86 3.48-7.27c4.7-9.66 9.83-19.09 14-28.95a110 110 0 0 0 5.23-15.17 95.39 95.39 0 0 0 2.76-15.83 97.17 97.17 0 0 1 -2.46 15.9 110 110 0 0 1 -5 15.31c-4.06 10-9 19.5-13.57 29.21-1.13 2.43-2.26 4.86-3.35 7.3s-2.17 4.9-3.29 7.35c-2.24 4.9-4.68 9.69-7.15 14.46-4.95 9.54-10.14 18.95-15.39 28.31q-16.5 27.68-33.79 54.83z"/>
            </g>
            <path d="m624.58 1134.06c-95 22.94-21.25-251.73-50.31-288.39-17.27 242 33.31 313.33-26.15 336.55-39.65 15.49-50.24-26-50.24-26-9.41-44-9.38-62.13-28.95-148.94 0 0-24.61-174.34-3.54-271.55 6.48-29.9 27.69-101.11 44-122.36 0 0 33.59-38.36 77.92-28.45 57 12.73 77.4 50.08 77.4 50.08 20.43 35.32 33.92 80.81 28.59 172.81s-38 162-40.89 176.53-7.35 91.29-5.95 102.17c-.01-.01 3.82 41.35-21.88 47.55z" fill="#f3e6d0"/>
            <path d="m526.67 1082.5c38.16-10.67 44.59 12.45 44.59 12.45 10.46 92.25-6.26 60 .37 80s6.73 193.11 9 204.82c8.12 42.55 27.74 145.75 35.13 188 1.27 7.28-18.94 23.7-35.51 12.34-.08-42-82.81-276.55-83.31-332.55s9-48.44.67-92.68c-2.78-14.43-9.11-61.71 29.06-72.38zm114.82-23.86c-2.76 19.16 3.68 37.9 7.51 55 6.33 28.34 10.13 112.69 2.9 181.32-12.25 116.24-26.6 113.34-27.1 158.68-.52 46.07-35.13 12.62-35.69 6.1-6.19-72-3.51-157.76-1.66-180.77 1.54-19.23 0-40 0-68.68 0-20.4-11.22-112.18-16.44-136.19-.08-.39-6-20.93 22.24-27.63 47.54-11.24 49.43 3.88 48.24 12.17z" fill="#f3e6d0"/>
            <path d="m578.44 954.79c12.5-26.86 9.73-110.12 13.23-157.79-22 2.38-16.77 49-17.4 48.67 0 0 12.4 7.66 4.17 109.12z" fill="#231f20" opacity=".1"/>
            <path d="m578.26 1112.84s17.58 31.73 46.32 21.22c-11.1 16.77-37.13 76.26-37.13 76.26z" fill="#231f20" opacity=".1"/>
            <path d="m566.34 1180a16.7 16.7 0 0 0 5.29-8c0 8.92 2.56 31.92 2.56 31.92z" fill="#231f20" opacity=".1"/>
            <path d="m588 1426s15.38 25.13 16.94 60.27 2.26 43 2.26 43-23.72-74.61-19.2-103.27z" fill="#231f20" opacity=".1"/>
            <path d="m575.44 1555.17s12.51 10 13.06 25.33-12.3 47.5-12.3 47.5" fill="#231f20" opacity=".1"/>
            <path d="m677.33 670.33c6.4 11.27 10.43 23.75 13.16 36.39a245 245 0 0 1 4.8 38.55c1.28 25.9-.27 51.87-3.16 77.62-3.26 25.71-7.93 51.22-13.53 76.5q-4.22 18.95-9.18 37.73-2.48 9.39-5.21 18.71c-1.7 6.23-3.58 12.41-5.05 18.7-.76 3.14-1.62 6.25-2.28 9.41l-2.06 9.46c-1.22 6.34-2.44 12.68-3.37 19.08a338.49 338.49 0 0 0 -3.62 38.55c-.22 6.46-.27 12.92-.31 19.39 0 3.23-.06 6.47-.24 9.71s-.79 6.45-.94 9.65 0 6.45-.11 9.69a78.48 78.48 0 0 1 -.69 9.68 43.46 43.46 0 0 1 -2.32 9.41 34.13 34.13 0 0 1 -4.72 8.44 33.55 33.55 0 0 0 4.63-8.47 42.75 42.75 0 0 0 2.23-9.4 78.09 78.09 0 0 0 .6-9.67c0-3.23-.08-6.46 0-9.7s.82-6.42.86-9.66.15-6.45.15-9.68c0-6.47 0-12.94.13-19.41a338.74 338.74 0 0 1 3.28-38.69c.87-6.42 2-12.79 3.2-19.16l2-9.51c.64-3.18 1.47-6.31 2.2-9.46 1.42-6.32 3.25-12.54 4.9-18.8s3.43-12.45 5-18.71q4.78-18.78 8.81-37.75c5.36-25.27 9.78-50.75 12.8-76.39 3.34-25.58 5.36-51.4 4.55-77.21a244.56 244.56 0 0 0 -4.07-38.46c-2.47-12.65-6.25-25.15-12.44-36.54z" fill="#231f20"/>
            <path d="m476.13 679.12c-1.68 6.15-3 12.4-4.2 18.65s-2.28 12.55-3.29 18.84c-2 12.59-3.55 25.24-4.89 37.91-.7 6.33-1.24 12.68-1.83 19s-1 12.7-1.46 19.05-.88 12.72-1.06 19.06c-.06 1.59-.15 3.18-.17 4.76l-.06 4.77c0 3.18-.12 6.36 0 9.54-.15 25.45.93 50.93 2.6 76.36s4 50.82 6.79 76.16 6.21 50.62 10 75.84l2.94 18.9c1 6.3 2.11 12.57 3.16 18.86l1.6 9.43 1.71 9.41 3.47 18.81-3.64-18.78-1.8-9.39-1.69-9.42c-1.11-6.28-2.28-12.55-3.34-18.83l-3.11-18.88c-4-25.2-7.65-50.45-10.67-75.78s-5.58-50.73-7.5-76.18-3.23-51-3.32-76.52c0-3.19.16-6.39.23-9.59l.14-4.79c0-1.6.17-3.19.26-4.79.31-6.4.91-12.75 1.42-19.11s1.19-12.71 1.82-19.06 1.36-12.69 2.18-19c1.58-12.67 3.39-25.3 5.6-37.87 1.13-6.28 2.29-12.55 3.64-18.79s2.68-12.45 4.47-18.57z" fill="#231f20"/>
            <path d="m574.27 845.67a6.62 6.62 0 0 1 2 2.34 15.89 15.89 0 0 1 1.2 2.86 42 42 0 0 1 1.41 6.06 119 119 0 0 1 1.24 12.35c.46 8.27.48 16.55.39 24.82-.21 16.55-.91 33.08-1.59 49.6-2.09 33-4.4 66-4.91 99-.2 16.51 0 33 1.69 49.48a126.44 126.44 0 0 0 4.63 24.26 42.07 42.07 0 0 0 5.18 11.17 19.07 19.07 0 0 0 4.22 4.47 13 13 0 0 0 5.63 2.43 13.14 13.14 0 0 1 -5.68-2.36 18.93 18.93 0 0 1 -4.31-4.44 42.26 42.26 0 0 1 -5.37-11.16 127.49 127.49 0 0 1 -5-24.29c-2-16.45-2.36-33-2.4-49.56 0-33.1 1.89-66.14 3.5-99.15 1.16-16.49 2.32-33 3-49.47.33-8.25.54-16.51.32-24.76a118.05 118.05 0 0 0 -.88-12.33 42.65 42.65 0 0 0 -1.22-6.05 16.52 16.52 0 0 0 -1.12-2.88 6.52 6.52 0 0 0 -1.93-2.39z" fill="#231f20"/>
            <path d="m574.27 834.5q.72 58.17 2.09 116.31.38 58.16 1.74 116.3l.67 29.08c.21 9.69.38 19.39.37 29.09s-.18 19.42-1.45 29a71.25 71.25 0 0 1 -3.11 14.21 35.58 35.58 0 0 1 -3 6.61l-1 1.5c-.4.45-.75.95-1.2 1.37a7.23 7.23 0 0 1 -3 2 7.32 7.32 0 0 0 2.95-2c.44-.42.78-.93 1.17-1.38l1-1.51a36 36 0 0 0 2.94-6.62 72.1 72.1 0 0 0 2.92-14.19 232.13 232.13 0 0 0 1.09-29c-.1-9.69-.39-19.38-.73-29.06l-1-29.07q-2.08-58.12-3.15-116.3-.07-58.17.7-116.34z" fill="#231f20"/>
            <path d="m496.77 1142a217 217 0 0 1 2.37 34.93c-.08 11.68-.84 23.35-1.49 35-1.49 23.26.68 46.57 4.68 69.47.9 5.74 1.94 11.47 3 17.19l1.69 8.58c.59 2.84 1.07 5.79 1.75 8.52 1.42 5.61 3.05 11.22 4.66 16.82l4.95 16.78 20.24 67q10.15 33.51 20.14 67.07 5 16.78 9.75 33.63c1.58 5.62 3.15 11.24 4.63 16.89.75 2.81 1.46 5.65 2.14 8.48.32 1.43.69 2.84 1 4.28l.42 2.14.3 2.17-.32-2.16-.45-2.15c-.28-1.43-.66-2.84-1-4.26q-1.05-4.25-2.22-8.46c-1.54-5.63-3.17-11.23-4.8-16.83-3.28-11.2-6.67-22.37-10.09-33.53q-10.27-33.46-20.81-66.85l-20.92-66.84-5.13-16.75c-1.67-5.59-3.35-11.18-4.86-16.87-.75-2.93-1.23-5.74-1.86-8.61l-1.77-8.57c-1.17-5.73-2.28-11.48-3.24-17.25-3.56-23.12-5.27-46.68-3.29-70 .88-11.64 1.88-23.26 2.19-34.91a216.85 216.85 0 0 0 -1.66-34.91z" fill="#231f20"/>
            <path d="m641.67 1076.33a134.2 134.2 0 0 0 3.43 16.76 119.47 119.47 0 0 1 3.78 16.71c2 11.26 3.62 22.56 5.21 33.87s3.11 22.63 4.55 34l1.06 8.5.43 4.29.21 2.15.13 2.15c.18 2.87.36 5.74.4 8.6l.12 4.31v4.3c-.2 11.46-1 22.89-2 34.28s-2.41 22.75-4 34.07c-3.12 22.65-6.94 45.18-11.15 67.63s-8.88 44.82-13.73 67.13c-1.19 5.58-2.47 11.16-3.55 16.75a124 124 0 0 0 -1.54 17 273 273 0 0 0 1.29 34.19 271.32 271.32 0 0 1 -1.64-34.2 122.41 122.41 0 0 1 1.37-17.09c1-5.63 2.24-11.21 3.38-16.8 4.62-22.36 9-44.76 13-67.24s7.56-45 10.44-67.65c1.43-11.32 2.65-22.66 3.59-34s1.58-22.74 1.66-34.1l.09-4.27v-4.26c0-2.84-.11-5.67-.23-8.51l-.08-2.12-.17-2.12-.33-4.24-.88-8.51q-1.81-17-3.84-34c-1.36-11.34-2.79-22.66-4.5-33.94a120.6 120.6 0 0 0 -3.43-16.74 133.84 133.84 0 0 1 -3.07-16.9z" fill="#231f20"/>
            <path d="m571.63 1175c1.17 5.62 2.14 11.28 3 17s1.67 11.36 2.42 17.06c1.44 11.39 2.55 22.83 3.41 34.29s1.47 22.94 1.76 34.43c.2 5.74.24 11.49.3 17.24l.14 17.21q0 34.39 2.11 68.75c1.39 22.89 3.54 45.74 6.63 68.47s7.06 45.36 12.83 67.56c.73 2.78 1.41 5.56 2.18 8.33l2.26 8.31q2.22 8.31 4.32 16.67c1.38 5.57 2.72 11.16 3.89 16.78.58 2.81 1.13 5.63 1.57 8.46.22 1.42.41 2.85.52 4.28a17.1 17.1 0 0 1 .07 2.15 6.36 6.36 0 0 1 -.1 1.07 1.78 1.78 0 0 1 -.19.5.32.32 0 0 1 -.45.16.32.32 0 0 0 .45-.16 2.13 2.13 0 0 0 .18-.5 6.44 6.44 0 0 0 .09-1.07 19.23 19.23 0 0 0 -.09-2.15c-.13-1.43-.34-2.85-.57-4.26-.47-2.83-1-5.64-1.66-8.45-1.22-5.6-2.62-11.17-4.06-16.72s-2.95-11.09-4.49-16.62l-2.34-8.28c-.79-2.76-1.51-5.54-2.26-8.31-6-22.19-10.19-44.83-13.55-67.55s-5.73-45.61-7.35-68.53-2.57-45.89-2.82-68.88l.21-17.23c.06-5.73.14-11.46.06-17.19-.06-11.47-.44-22.93-1.06-34.38s-1.49-22.89-2.7-34.3c-.62-5.7-1.28-11.4-2.06-17.09s-1.6-11.41-2.65-17.05z" fill="#231f20"/>
            <path d="m583.31 1120c-.57 15.52-.3 31-.17 46.57s.21 31.08-.15 46.61c-.64 15.47-.46 31 .19 46.46s1.59 31 2.19 46.53.47 31.08.24 46.61-.69 31-1.29 46.56q.54-23.28.58-46.57c0-15.52-.16-31-.95-46.53s-2-31-2.89-46.49-1.31-31.1-.9-46.66c.83-15.51 1.25-31 1.56-46.53s.55-31.08 1.59-46.56z" fill="#231f20"/>
            <path d="m479.94 675.18c14.55-15.18 16.93-69.47 17.67-85.18 1.5-32 2.39-53 2.39-53s-26.79-69.19 78.27-83.07c112.73-14.93 94.73 57.57 94.73 57.57s1.22 56-3.56 89.5c-3.85 27-3.44 43.5 6.56 67.5z" fill="#f2e6d0"/>
            <path d="m673 511.5q-.06 26.37-.4 52.73-.71 13.17-1.53 26.33c-.56 8.77-1.25 17.53-1.76 26.29a163.15 163.15 0 0 0 .19 26.25 96.06 96.06 0 0 0 2.36 12.9 112.75 112.75 0 0 0 4.14 12.5 110.38 110.38 0 0 1 -4.48-12.4 96 96 0 0 1 -2.73-12.92 165 165 0 0 1 -.89-26.39c.27-8.79.73-17.57 1-26.34s.6-17.55.83-26.33q1.81-26.29 3.27-52.62z" fill="#231f20"/>
            <path d="m500 537c.65 7.57.87 15.17.94 22.78s-.11 15.23-.46 22.85c-.91 7.6-1.94 15-2.67 22.57s-1.25 15.07-1.87 22.65-1.43 15.21-3.52 22.58a81.15 81.15 0 0 1 -9.42 20.71 80.44 80.44 0 0 0 8.39-21c1.72-7.34 2.14-14.9 2.43-22.45s.42-15.16.81-22.76 1.08-15.22 1.62-22.72q1.58-11.22 2.56-22.54c.64-7.51 1.13-15.08 1.19-22.67z" fill="#231f20"/>
            <path d="m579 520.5c-18 1.4-23 13.5-36 20.5s-35.88 10.93-35.88 10.93-33.55-10.61-33.55-37.11a161.46 161.46 0 0 0 -7.71-48.32l228.54-39.5s15.86 44.73-4.28 79c-11 18.65-50.62 27.25-76.36 20.4 0 0-23.51-6.78-34.76-5.9z" fill="#f3e6d0"/>
            <path d="m500.16 556.26c35.88 18.4 60.17-31.93 76.84-35.7-20.33 3.11-27.87 17.74-41.25 23.1-44.17 17.67-59.33-16-59.33-16s8.46 20.78 23.74 28.6z" fill="#231f20" opacity=".1"/>

            <path d="m677 515.71 6.93 13s-78.57 37.57-98.44-27.46c33.01 56.42 91.51 14.46 91.51 14.46z" fill="#231f20" opacity=".1"/>
            <path d="m590.55 499c1.13 12.25 9.45 21.56 22.61 27.2-12.72-4.2-14.59-5.27-17.35-7.89-5.5-5.22-5.26-2.37-5.26-19.31z" fill="#231f20" opacity=".1"/>
            <path d="m694.4 427a121.49 121.49 0 0 1 5 20.1 118.54 118.54 0 0 1 1.6 20.71c-.17 13.86-3.11 28-10.47 40.2-3.44 5-8.39 8.62-13.54 11.35a77.48 77.48 0 0 1 -16.31 6.14 120.81 120.81 0 0 1 -17 3.12 101.26 101.26 0 0 1 -17.33.54h.12a29.7 29.7 0 0 1 -6.22-.51c-1-.15-2-.42-3-.64s-2-.55-3-.86a47.57 47.57 0 0 1 -11-5.34 58.57 58.57 0 0 1 -9.38-7.81c-.74-.7-1.36-1.52-2-2.27s-1.37-1.49-2-2.32a35.86 35.86 0 0 1 -3.32-5.15 50.67 50.67 0 0 1 -4.25-11.4 80.93 80.93 0 0 1 -2-12 115.72 115.72 0 0 1 .36-24.19 116 116 0 0 0 0 24.15 80.79 80.79 0 0 0 2.2 11.85 50.38 50.38 0 0 0 4.38 11.16 35.16 35.16 0 0 0 3.32 5c.59.79 1.32 1.5 2 2.25s1.3 1.52 2 2.19a56.28 56.28 0 0 0 9.31 7.49 46.21 46.21 0 0 0 10.79 5c1 .29 1.91.54 2.87.79s1.93.43 2.92.56a28.87 28.87 0 0 0 5.83.39h.12a100.77 100.77 0 0 0 17-.83 118 118 0 0 0 16.69-3.35 74.55 74.55 0 0 0 15.69-6.21c4.89-2.69 9.42-6.16 12.4-10.69l.68-1c.22-.35.42-.73.64-1.09l1.26-2.2c.74-1.52 1.56-3 2.2-4.58a69.61 69.61 0 0 0 3.45-9.58 89.28 89.28 0 0 0 3.18-20.2 118 118 0 0 0 -.89-20.57 120.41 120.41 0 0 0 -4.3-20.2z" fill="#231f20"/>
            <path d="m465.83 466.5a269 269 0 0 1 6.89 31.75c.38 2.68.56 5.46.87 8.09l.22 2c.07.67.23 1.32.34 2 .26 1.31.43 2.63.81 3.91a54.71 54.71 0 0 0 5.86 14.69c.6 1.22 1.36 2.36 2.06 3.54s1.52 2.28 2.37 3.35q.62.83 1.29 1.59c.43.53.88 1 1.35 1.54a28.76 28.76 0 0 0 2.89 2.77l.07.06a27.2 27.2 0 0 0 5.52 3.75 29 29 0 0 0 3.11 1.4c.53.2 1.05.43 1.59.62l1.65.48a39.7 39.7 0 0 0 13.61 1.34c9.21-.76 18.14-4.12 26.18-8.86a69.7 69.7 0 0 0 11.11-8.52c1.75-1.57 3.54-3.12 5.4-4.58a40.39 40.39 0 0 1 6-3.89 30.11 30.11 0 0 1 13.74-3.14c2.35 0 4.7 0 7.06.09l3.52.09 1.77.09h.44.11s0 .06 0 .06h-.22c-.29 0-.58.06-.88.08.3 0 .59 0 .88-.1h.21c.07 0-.09 0-.14 0h-.43c-.59 0-1.18 0-1.77 0h-3.53c-2.35 0-4.7 0-7 .07a29.46 29.46 0 0 0 -13.45 3.38 40.27 40.27 0 0 0 -5.83 3.85c-1.8 1.49-3.54 3.06-5.26 4.67a70.26 70.26 0 0 1 -11 8.92c-8 5-17.08 8.64-26.65 9.65a42.11 42.11 0 0 1 -14.35-1.11 32.73 32.73 0 0 1 -13-6.57l.12.1a31.28 31.28 0 0 1 -3.26-3q-.77-.76-1.47-1.59c-.49-.54-1-1.09-1.4-1.66-.92-1.11-1.74-2.3-2.58-3.48s-1.59-2.41-2.26-3.68a57.89 57.89 0 0 1 -5.45-15.6c-.33-1.34-.45-2.72-.66-4.07-.08-.68-.21-1.36-.25-2l-.14-2.06c-.21-2.76-.26-5.38-.52-8.08a267.32 267.32 0 0 0 -5.54-31.94z" fill="#231f20"/>
            <path d="m618.33 1614.67s3.07 64.5-11.1 60.66c-17.65-4.78-20.41-12.29-23.26-33.91-1.66-12.66-2-51.17-2-51.17l-10.15-36.25s-1.31 51.26-1.38 72.51c5 .25.4 53.75 13.81 70 10.24 12.41 16.42 21.06 24.75 19.44s19-18.94 18.92-38.61-6.59-62.34-9.59-62.67z" fill="#f7a3a5"/>
            <path d="m625.93 1479s2.65 50.86-15.89 57.27c.76 4.13 6.56 29.78 6.56 29.78s.45 2.58 6.34.76 12.45-19 13.26-43-10.27-44.81-10.27-44.81z" fill="#f7a3a5"/>
            <g fill="#231f20" opacity=".1">
                <path d="m615.49 1561.13a26.52 26.52 0 0 0 8.28 0c3.9-.77 12.56-28.57 12.47-31.85 0 10.39-6.45 36.61-12 37.38s-7.68-.61-7.68-.61z"/>
                <path d="m571.63 1555.17s12.82 15.19 11.09 67.51c-6.52 5.28-9.46 11.44-9.36 20s-2.81-30.86-2.52-45.09.79-42.42.79-42.42z"/>
            </g>
            <path d="m582 1621a172.45 172.45 0 0 0 2.19 19c.6 3.12 1.23 6.23 2.11 9.27a62.19 62.19 0 0 0 3.11 8.91c.36 1 .85 2 1.27 3s1 2 1.52 2.91a28 28 0 0 0 3.81 5.27 18.58 18.58 0 0 0 5.07 3.9 14.11 14.11 0 0 0 3 1.09 9.58 9.58 0 0 0 3.07.27h-.15a10.57 10.57 0 0 0 2.39-1.59c.36-.34.74-.66 1.09-1l1-1.12a25.14 25.14 0 0 0 3.23-5.12l.65-1.38c.22-.46.37-1 .55-1.43a26.83 26.83 0 0 0 1-2.91c.26-1 .56-2 .78-3l.56-3a28.78 28.78 0 0 0 .4-3.06c.11-1 .24-2 .31-3.08.05-2.06.21-4.12.17-6.19s-.06-4.13-.22-6.19l-.53-6.19.71 6.17c.21 2.06.25 4.14.39 6.21s0 4.14 0 6.22c0 1-.15 2.07-.22 3.11s-.13 2.08-.32 3.1l-.49 3.09c-.19 1-.47 2-.71 3a24.11 24.11 0 0 1 -.91 3c-.17.5-.31 1-.52 1.49l-.64 1.44a26.24 26.24 0 0 1 -3.22 5.44l-1 1.22c-.37.39-.77.76-1.15 1.13a11.57 11.57 0 0 1 -2.72 1.9h-.07-.07c-5 .46-9.38-2.14-12.63-5.4a30.17 30.17 0 0 1 -4.21-5.5c-.63-1-1.13-2-1.68-3s-1-2.06-1.42-3.13a66.83 66.83 0 0 1 -2.68-9.32c-.72-3.15-1.18-6.33-1.61-9.5a173.07 173.07 0 0 1 -1.21-19.03z" fill="#231f20"/>
            <path d="m571.63 1559.75q1.3 11.7 1.89 23.47c.17 3.92.32 7.85.32 11.78s-.08 7.87-.41 11.81c-.14 2-.43 3.93-.71 5.89l-.46 2.88-.36 2.9a61 61 0 0 0 -.07 11.62c.31 3.88.86 7.75 1.39 11.64s1.06 7.78 1.56 11.68c.37 3.45.71 6.91 1 10.36s.56 7 1 10.31a53.2 53.2 0 0 0 6.46 19.27 47.2 47.2 0 0 0 13.68 15 39.26 39.26 0 0 0 9 4.76 23.92 23.92 0 0 0 4.89 1.26 10.36 10.36 0 0 0 1.24.1h.61.61a4 4 0 0 0 2.1-.66l-.11.11a67.47 67.47 0 0 0 6.29-11.38 80.23 80.23 0 0 0 4-12.42 106.09 106.09 0 0 0 2.41-26 159.86 159.86 0 0 0 -2.87-26.07 177 177 0 0 0 -6.75-25.37 177.6 177.6 0 0 1 7 25.32 160 160 0 0 1 3.17 26.1 106.54 106.54 0 0 1 -2.13 26.23 81.1 81.1 0 0 1 -3.9 12.62 70 70 0 0 1 -6.27 11.66v.06h-.06a4.94 4.94 0 0 1 -2.75 1l-.69.06h-.69a12.26 12.26 0 0 1 -1.35-.1 24.56 24.56 0 0 1 -5.17-1.26 41 41 0 0 1 -9.38-4.82 48.84 48.84 0 0 1 -14.3-15.33 54.84 54.84 0 0 1 -6.9-19.84c-.46-3.51-.73-6.94-1.09-10.38s-.73-6.88-1.14-10.32q-.61-5.85-1.3-11.69c-.44-3.9-.9-7.81-1.13-11.76a62.9 62.9 0 0 1 .34-11.88l.43-2.94.53-2.91c.32-1.92.65-3.83.83-5.78.42-3.87.6-7.79.67-11.7s0-7.84-.06-11.76q-.35-11.79-1.37-23.52z" fill="#231f20"/>
            <path d="m610 1536.27a11.58 11.58 0 0 0 4.24-1.88 14.5 14.5 0 0 0 3.34-3.15 22.53 22.53 0 0 0 3.92-8.18 20.37 20.37 0 0 0 .71-2.17c.19-.74.41-1.48.59-2.23.27-1.52.6-3 .8-4.58.47-3.11.89-6.22 1.3-9.34.81-6.23 1.55-12.48 2-18.76-.09 6.3-.48 12.59-.93 18.87q-.35 4.71-.77 9.42c-.11 1.56-.37 3.16-.57 4.75-.14.79-.32 1.58-.48 2.37a19.26 19.26 0 0 1 -.63 2.34 23.87 23.87 0 0 1 -5.14 8.22 15.07 15.07 0 0 1 -3.85 2.89 11.84 11.84 0 0 1 -4.53 1.43z" fill="#231f20"/>
            <path d="m617.33 1566.66a15.23 15.23 0 0 0 4 .72 5.38 5.38 0 0 0 2-.28 2.4 2.4 0 0 0 .81-.5 5.78 5.78 0 0 0 .57-.8 56.21 56.21 0 0 0 3.43-7.38 103.69 103.69 0 0 0 4.79-15.54 85.25 85.25 0 0 0 2.65-16 87.44 87.44 0 0 0 -.7-16.24 136.92 136.92 0 0 0 -3.08-16 146.72 146.72 0 0 0 -4.84-15.61 145.57 145.57 0 0 1 5.18 15.52 136.29 136.29 0 0 1 3.44 16 87.18 87.18 0 0 1 1.06 16.39 86.22 86.22 0 0 1 -2.33 16.29 106.68 106.68 0 0 1 -5.51 15.48 58.62 58.62 0 0 1 -3.8 7.29 5.65 5.65 0 0 1 -.65.83 2.75 2.75 0 0 1 -.94.53 5.55 5.55 0 0 1 -2.06.21 16 16 0 0 1 -4.02-.91z" fill="#231f20"/>

            <path d="m434 460.33c-5.1-9.9-10.84-26.7-11.52-35-1.18-14.2 34.13-28.59 73.67-42.89 31.85-11.44 42.75-44.16 46.37-86.44 2.47-28.89 18.24-22.16 33.59-20.31 15.68 1.88 34.62-8.66 33.39 19.27 0 0 7.93 42 30.13 45.82 22.37 3.84 67.07.36 84 14.74 24.67 20.91 10.87 41.25 15.66 91.83" fill="#f3e6d0"/><g fill="#231f20" opacity=".1"><path d="m561 374.13a77.17 77.17 0 0 0 -14.22-10.13s-1.75-2.88-14.22-.75c3.8 0 9.39 2.91 9.39 2.91z"/><path d="m618.25 347.75s-7.25 1.25-18.25 9.57c0 0-10.1 8.69-11.25 16.81 3.67-5.3 18.83-15.88 18.83-15.88z"/></g>
            <path d="m542.28 290.91c23.55 24.26 36.47 22.09 36.47 22.09h15.25l9.7-10s19.64-22 19.41-54 3.89-75-23.11-88.49-43.67-13.84-66.33 7.82-11.27 90.22-1.81 106.67c6.02 10.5 9.33 14.52 10.42 15.91z" fill="#f3e6d0"/>
            <path d="m602.28 301s-8.66 12-23.53 12c0 0-12.92 2.15-36.47-22.11 0 3.32 12.55 16.26 12.55 16.26s22 14.5 24.75 14.5c2.5 0 14.39-8.65 14.39-8.65z" fill="#231f20" opacity=".1"/>
            <path d="m577.67 313a26 26 0 0 0 8.75-1.26 30.17 30.17 0 0 0 7.87-4 49 49 0 0 0 12.11-12.74 85.9 85.9 0 0 0 8.26-15.6c1.12-2.73 2.13-5.5 3-8.31.43-1.4.82-2.82 1.18-4.24s.62-2.84.84-4.3a175 175 0 0 0 1.72-17.55c.32-5.9.42-11.81.34-17.72s-.36-11.8-.91-17.66a140.07 140.07 0 0 0 -2.61-17.38 64.29 64.29 0 0 0 -5.31-16.44 26.75 26.75 0 0 0 -4.91-6.8 56.92 56.92 0 0 0 -6.59-5.61 59.62 59.62 0 0 0 -15.31-8 50.76 50.76 0 0 0 -17-2.83 44.08 44.08 0 0 0 -16.82 3.57 49.62 49.62 0 0 0 -14.42 9.55c-1.09 1-2.08 2-3.09 3.09-.52.52-.95 1.1-1.43 1.64s-1 1.08-1.37 1.69a42 42 0 0 0 -2.45 3.59c-.37.62-.78 1.22-1.12 1.87l-1 1.93a63.61 63.61 0 0 0 -5.49 16.6 97.15 97.15 0 0 0 -1.69 17.54 137.53 137.53 0 0 0 .94 17.68 172.79 172.79 0 0 0 2.89 17.49 169.09 169.09 0 0 0 4.62 17.13 74.09 74.09 0 0 0 3.17 8.26 58.78 58.78 0 0 0 4.41 7.65 94.63 94.63 0 0 0 11.28 13.67 84 84 0 0 0 13.69 11.27 49.81 49.81 0 0 0 7.83 4.17 26.6 26.6 0 0 0 8.6 2.11 26.8 26.8 0 0 1 -8.64-2 51 51 0 0 1 -7.91-4.09 84.07 84.07 0 0 1 -13.88-11.15 94.72 94.72 0 0 1 -11.52-13.6 60.18 60.18 0 0 1 -4.56-7.7 74.1 74.1 0 0 1 -3.31-8.31 170.32 170.32 0 0 1 -4.83-17.21 174.16 174.16 0 0 1 -3.13-17.57 138.14 138.14 0 0 1 -1.17-17.85 99.23 99.23 0 0 1 1.5-17.86 65.59 65.59 0 0 1 5.44-17.16l1-2c.35-.67.76-1.31 1.14-2a45.29 45.29 0 0 1 2.52-3.79c.42-.63.95-1.18 1.41-1.78s.95-1.2 1.47-1.74c1-1.09 2-2.22 3.17-3.24a51.87 51.87 0 0 1 15-10.18 46.72 46.72 0 0 1 17.74-4 53.8 53.8 0 0 1 18 2.76 62.66 62.66 0 0 1 16.19 8.26 61.15 61.15 0 0 1 7 5.83 30 30 0 0 1 5.58 7.53 67.63 67.63 0 0 1 5.84 17.26 144.12 144.12 0 0 1 2.23 17.85c.41 6 .55 11.95.48 17.91s-.32 11.92-.79 17.86a178.06 178.06 0 0 1 -2.18 17.77c-.27 1.47-.59 2.94-1 4.41s-.84 2.88-1.32 4.3c-1 2.84-2 5.62-3.24 8.35a87.79 87.79 0 0 1 -8.77 15.59 49.28 49.28 0 0 1 -12.58 12.61 30.25 30.25 0 0 1 -8.06 3.82 26 26 0 0 1 -8.8 1.06z" fill="#231f20"/>

            <path d="m493.08 645s75.75 6.41 178.21 8.47c22.71 42.67 43.93 74.8 13.78 201.64-32.5 5.67-87.24 2.13-107.58-2.66-.61 1.54 0 7.15 0 9.76-94.11-10.47-80.49-25-119.89-16.39-6.1-97.32 1.01-123.07 35.48-200.82z" fill="#0276a5"/>
            <g fill="#231f20" opacity=".1">
                <path d="m584.25 813-.58-25.56-7.47 3.56-7.37-80.94-3.47 42.38-16.19-10 9.64 22-10.69 6.25 14.25 16-5.1 7 7.64 7.62 7.16 13.69-12.07 46.35a174.59 174.59 0 0 1 17.51.87v-9.76c4.78.51 17.35 2.77 22.27 3.48-3.34-28.23-15.53-42.94-15.53-42.94z"/>
                <path d="m584.23 785.81 5.27-12.86 8.38-3.95-5.38-3.35 8.67-21.15-10.25 11.75-9.9-51.01z"/>
                <path d="m620.85 676s4.08 11.66 16.32 15.32 46.83 6.84 46.83 6.84a275.9 275.9 0 0 1 -63.15-22.16z"/>
                <path d="m585.67 683.44-2.46 7.43s53.79-15.49 75.47-27.47c-48 12.6-92.08 9.74-92.08 9.74s-37.34 1.3-60.64-6.63c14.92 14.52 61.91 18.38 61.91 18.38l.43-4z"/>
                <path d="m480 694.76s34.91-2 68.15-14.33c-10.24-11.33-51.54 4.21-51.54 4.21l-16 7.43z"/>
                <path d="m460.67 741.67s-3.36 47.05-2.19 63.33c1.52 21 29.77 39.27 29.77 39.27s-15.56-4-30.65 1.56c-.77-3.89-3.68-39.65-1.2-79.46a108.84 108.84 0 0 1 4.27-24.7z"/>
                <path d="m681.92 855.68s-22.25 10.65-96.42 5.69c-8.56-1.76-8-8.91-8-8.91s44 7.87 104.42 3.22z"/>
                <path d="m459.85 854.36-2.25-8.53s-4.81-4.53 24.4-1.83c26.87 2.48 60.79 12.26 60.79 12.26z"/>
                <path d="m578 865.65-25.07-6s23.91 2.78 26.46 34.54z"/>
            </g>
            <path d="m671.29 653.48q-30.28-1-60.55-.79c-10.08-.27-20.16-.42-30.24-.37h-7.58c-2.53 0-5.06 0-7.59-.07-5.06-.09-10.11-.31-15.16-.6-10.09-.59-20.16-1.53-30.19-2.75s-20-2.7-29.94-4.59c10 1.66 20 2.89 30 3.89s20.1 1.69 30.18 2c5 .17 10.07.27 15.11.24 2.51 0 5-.06 7.55-.11l7.56-.19c10.11-.29 20.22-.38 30.32-.35q30.34 1.26 60.53 3.69z" fill="#231f20"/>
            <path d="m577.49 852.46a167.12 167.12 0 0 0 26 3.41c8.72.6 17.47.66 26.2.65 17.47-.16 34.94-1.08 52.33-2.58l4.42-.32-1.23 1.06c1.9-8.25 3.33-16.71 4.54-25.15s2.15-16.94 2.8-25.46c.14-2.12.34-4.25.43-6.38l.2-6.41c.12-4.27.28-8.54.37-12.81-.07-8.55.07-17.1-.4-25.64a346 346 0 0 0 -5.5-51l-1.25-6.29c-.44-2.09-1-4.16-1.48-6.24l-.75-3.12c-.25-1-.58-2.06-.86-3.09-.61-2-1.15-4.12-1.81-6.15l-2.05-6.09c-.78-2-1.51-4-2.33-6a78.73 78.73 0 0 0 -5.8-11.44 77.83 77.83 0 0 1 6 11.37c.84 2 1.61 4 2.42 5.95l2.13 6.07c.69 2 1.26 4.09 1.89 6.14.3 1 .65 2 .91 3.08l.8 3.12c.52 2.08 1.09 4.15 1.57 6.24l1.33 6.29a345.75 345.75 0 0 1 6.2 51c.59 8.56.57 17.14.75 25.72 0 4.29-.13 8.58-.2 12.87l-.11 6.43c-.06 2.15-.23 4.3-.34 6.44-.55 8.57-1.39 17.12-2.47 25.64s-2.42 17-4.25 25.46l-.21 1-1 .09-4.45.38c-17.5 1-35 1.49-52.55 1.17-8.76-.22-17.52-.51-26.24-1.36a166.52 166.52 0 0 1 -26.01-4.05z" fill="#231f20"/>
            <path d="m576.98 864.9-1.38-46.89v-.08l.02-.12 1.02-5.52 5.8-26.81-.01.13 3.07-77.53-1.5 77.58v.06l-.02.07-5.26 26.93-1.24 5.47.02-.2z" fill="#231f20"/>
            <path d="m562.88 861.76q-17.46-4.34-35-8.3c-5.79-1.56-11.58-3.09-17.4-4.53s-11.65-2.81-17.54-3.65-11.94-1.28-17.89-1.61c-3-.16-6-.17-9 0a35 35 0 0 0 -4.45.48 13.62 13.62 0 0 0 -2.18.54 6.15 6.15 0 0 0 -1 .44 1.9 1.9 0 0 0 -.82.74 1.92 1.92 0 0 1 .8-.77 6.28 6.28 0 0 1 1-.47 13.43 13.43 0 0 1 2.17-.61 35.41 35.41 0 0 1 4.46-.61c3-.23 6-.3 9-.23 6 .1 12 .55 18 1.08s11.9 1.93 17.78 3.16 11.72 2.63 17.56 4q17.33 4.98 34.51 10.34z" fill="#231f20"/>
            <path d="m457.6 845.83c-1.64-11.41-2.82-22.9-3.63-34.42s-1.17-23.09-.93-34.69l.34-4.34c.1-1.44.21-2.89.4-4.33l1-8.64.25-2.16.35-2.14.7-4.29c.49-2.85.86-5.73 1.5-8.55l1.77-8.5c.62-2.83 1.37-5.62 2-8.43l1.05-4.21 1.19-4.17c.82-2.77 1.54-5.57 2.45-8.31 3.38-11 7.43-21.88 11.89-32.53a295.25 295.25 0 0 1 15.1-31.1 294.35 294.35 0 0 0 -14.28 31.44c-4.17 10.73-7.93 21.61-11 32.69-.84 2.75-1.48 5.56-2.22 8.33l-1.08 4.17-.94 4.21c-.6 2.8-1.28 5.59-1.82 8.41l-1.53 8.47c-.57 2.82-.86 5.67-1.27 8.51l-.59 4.26-.28 2.13-.2 2.14-.77 8.55c-.15 1.43-.22 2.86-.29 4.29l-.22 4.28c-.83 11.43-1.06 22.93-.84 34.44s.85 23.01 1.9 34.49z" fill="#231f20"/>
            <path d="m574.19 793.75-2-9.92v-.07c.4-7.2.52-14.41.54-21.62s-.14-14.41-.43-21.61a433 433 0 0 0 -4.26-62.3l-.08-.59.56-.08a35.47 35.47 0 0 1 5-.35h5c3.31.1 6.6.29 9.9.55h.39l-.1.37-6.46 23.54 5.83-23.7.3.41c-3.29-.17-6.59-.28-9.88-.29-1.64 0-3.29 0-4.93.08a35.11 35.11 0 0 0 -4.84.46l.48-.67a435.51 435.51 0 0 1 5.93 62.45c-.09 7.24-.31 14.47-.72 21.7s-.9 14.43-1.68 21.62v-.07z" fill="#231f20"/>
            <path d="m569 673.72 21.64-.45-.45.43.06-5.21.57-12.91.28.41a18 18 0 0 0 -2.51-.51c-.86-.13-1.74-.23-2.62-.32-1.75-.17-3.52-.29-5.28-.39-3.53-.18-7.08-.27-10.62-.31l.21-.18c-.49 3.21-.86 6.45-1.11 9.69a72.1 72.1 0 0 0 -.17 9.75 73.92 73.92 0 0 1 0-9.76c.18-3.26.49-6.5.91-9.74v-.17h.09c3.55 0 7.1 0 10.65.1 1.77.06 3.54.14 5.32.28.89.07 1.77.15 2.66.26a17.3 17.3 0 0 1 2.71.5l.28.09v.32l-.3 12.94-.29 5.21v.45h-.44z" fill="#231f20"/>
            <path d="m483 659c1.9.87 3.85 1.61 5.82 2.3l3 1 3 .9c2 .63 4 1.12 6 1.63 1 .25 2 .54 3 .76l3.06.65c4.06.94 8.18 1.53 12.28 2.26l6.19.81c2.06.28 4.12.56 6.2.71a336.21 336.21 0 0 0 49.87 2.51 490.35 490.35 0 0 0 49.89-4 489.54 489.54 0 0 1 -49.86 5.09 336.25 336.25 0 0 1 -50.16-1.46c-2.08-.24-4.15-.61-6.21-1l-6.19-1.08c-4.1-.91-8.22-1.68-12.26-2.8l-3-.78c-1-.26-2-.59-3-.89-2-.6-4-1.18-6-1.89l-3-1-2.93-1.13c-1.92-.79-3.84-1.59-5.7-2.59z" fill="#231f20"/>
            <path d="m674.25 663.05-11.8 2.34-23.95 1.51 23.72-3.62z" fill="#231f20"/>
            <path d="m475 392s32.53 55.2 103.26 49.1 97.74-96.39 97.74-96.39 62-5.66 63.33 35.62c-22.4 9.52-44.93 46.67-44.93 46.67s18.49 40.11-10.5 93.81c-9.54 17.68-14.11 65.05-14.46 80.19-.79 34 2.59 50.42 2.59 50.42s-30.91 10.09-103 5.75-79-16.93-79-16.93 7.4-34.41 7.57-50.24c.12-11.75-6.38-25.6-16.19-47.79a152 152 0 0 1 -7.73-24.09c-4.38-20.12-4.36-43.12-7.85-51.62s-43.58-39.5-43.58-39.5-3.77-1.11 3.08-11 49.67-24 49.67-24z" fill="#fff"/>
            <g fill="#231f20" opacity=".1">
                <path d="m536.33 552.56 38.24-23.65s5.58-6.54 27.77-2.61c11.54 2.05 10.82 5.68 23.16 7.59-8.61 5.92-20.09 12.91-39 13-3.67 0-6.08 5.84-9.76 6.51-9.37 1.7-8.94-4-24.75-.8-16.99 3.4-15.66-.04-15.66-.04z"/>
                <path d="m627.93 423.69s-42.64 20.08-77.26 19.36c30.64 4.28 49.53 17.28 59.66 4.28 8.76-11.24 17.6-23.64 17.6-23.64z"/>
                <path d="m470.21 484.59s.87-20.22-4.38-26.26-18.95-12.42-18.95-12.42 23.38 12.42 23.33 38.68z"/>
                <path d="m737.85 381.33-1.37-9.33s-22.67 24-27 36a196.87 196.87 0 0 1 28.37-26.67z"/>
                <path d="m670.13 651.69 3.61 7.31s-88-1.74-120.41-.74-62.6-14.68-62.6-14.68l1.3-1.46s-3.32 7.13 73.61 12.77c64 4.7 104.49-3.2 104.49-3.2"/>
                <path d="m476 528.27c7.57 18.81 20.75 46.55 21 52.4 0 0-.32-20.68 12.09-27.33-20.09 2.16-33.09-25.07-33.09-25.07z"/>
                <path d="m687.33 520.43s-19.58 16.94-40.83 15c13 12.56 31 5 31 5z"/>
            </g>
            <path d="m490 640.24c2-7.21 3.71-14.52 5-21.89a153.11 153.11 0 0 0 2.46-22.27c.11-1.86 0-3.72 0-5.59 0-.93-.11-1.85-.17-2.78s-.14-1.85-.24-2.78a65.34 65.34 0 0 0 -2.45-10.84 102.61 102.61 0 0 0 -3.92-10.45q-2.28-5.1-4.8-10.11c-3.34-6.69-6.82-13.38-9.46-20.49a81.59 81.59 0 0 1 -3.27-10.91l-.5-2.82a26.83 26.83 0 0 1 -.43-2.83c-.18-1.89-.4-3.82-.5-5.66-.49-7.45-1.22-14.87-2.41-22.21a153.44 153.44 0 0 0 -5.09-21.61l.17.39a69.55 69.55 0 0 0 -6.07-8.55 65.18 65.18 0 0 0 -8.33-8.53 81 81 0 0 0 -9.72-7c-3.42-2.15-7-4.07-10.54-6.26a33.28 33.28 0 0 1 -5.17-3.8 12.63 12.63 0 0 1 -3.79-5.75l-.09-.3v-.3a18.49 18.49 0 0 1 3.32-8.25 33.66 33.66 0 0 1 5.83-6.3 75.32 75.32 0 0 1 14-9.23 149.75 149.75 0 0 1 15.17-6.93c5.15-2 10.35-3.82 15.69-5.38l.89-.26.51.82a100.52 100.52 0 0 0 9.95 13 122 122 0 0 0 11.82 11.48 110.47 110.47 0 0 0 27.9 17.34 105.85 105.85 0 0 0 64.75 5.47 89.12 89.12 0 0 0 15.65-5.25c2.49-1.19 5-2.31 7.38-3.72s4.74-2.82 7.07-4.3a111.76 111.76 0 0 0 12.95-10.31 125.92 125.92 0 0 0 11.35-12.08 154.78 154.78 0 0 0 9.87-13.35q4.54-7 8.44-14.31t7.1-15a151.87 151.87 0 0 0 5.68-15.63 152.83 152.83 0 0 1 -5.53 15.69c-2.1 5.13-4.43 10.18-7 15.11s-5.33 9.74-8.32 14.42a152.32 152.32 0 0 1 -9.78 13.49 126 126 0 0 1 -11.33 12.23 111.09 111.09 0 0 1 -13 10.52c-2.33 1.51-4.63 3.1-7.09 4.41s-4.93 2.6-7.44 3.83a90.53 90.53 0 0 1 -15.8 5.46 107.37 107.37 0 0 1 -65.76-5 112.7 112.7 0 0 1 -28.58-17.39 124.21 124.21 0 0 1 -12.14-11.59 100.49 100.49 0 0 1 -10.35-13.3l1.4.56c-5.18 1.57-10.35 3.41-15.39 5.45a144.91 144.91 0 0 0 -14.79 6.86 72.5 72.5 0 0 0 -13.36 9 31 31 0 0 0 -5.28 5.79 15.68 15.68 0 0 0 -2.74 6.89v-.6a9.78 9.78 0 0 0 2.95 4.3 32.19 32.19 0 0 0 4.73 3.39c3.43 2.06 7.08 4 10.6 6.16a85.63 85.63 0 0 1 10.2 7.23 68.35 68.35 0 0 1 8.85 8.91 72.59 72.59 0 0 1 6.21 9.09l.11.19.05.2a155.29 155.29 0 0 1 4.84 22.13c1.07 7.48 1.67 15 2 22.51.07 1.9.25 3.7.39 5.53.05.92.22 1.83.36 2.73l.43 2.73a78 78 0 0 0 3 10.65c2.45 7 5.77 13.71 9 20.48q2.43 5.07 4.64 10.27a103 103 0 0 1 3.78 10.66 66.15 66.15 0 0 1 2.29 11.09c.08.94.13 1.88.19 2.82s.15 1.89.12 2.83c0 1.88 0 3.77-.09 5.64a154.88 154.88 0 0 1 -2.89 22.32c-1.48 7.38-3.26 14.67-5.48 21.84z" fill="#231f20"/>
            <path d="m676 344.71a101.15 101.15 0 0 1 24.9-.91c8.29.78 16.73 2.69 24.14 7.14a38.17 38.17 0 0 1 3.45 2.62c.54.49 1.13.91 1.62 1.44l1.52 1.56a31.45 31.45 0 0 1 4.86 7.15 38 38 0 0 1 3.78 16.6v.69l-.66.23a36.77 36.77 0 0 0 -7.11 3.69l-1.73 1.1-1.7 1.16c-1.13.75-2.23 1.57-3.33 2.39a127.1 127.1 0 0 0 -12.53 10.66 95.16 95.16 0 0 0 -10.85 12.37 60.65 60.65 0 0 0 -8 14.4 60.45 60.45 0 0 1 7.64-14.67 95.56 95.56 0 0 1 10.57-12.77 128.68 128.68 0 0 1 12.33-11.11c1.09-.86 2.18-1.72 3.31-2.52l1.68-1.23 1.73-1.16a37.05 37.05 0 0 1 7.44-4.1l-.66.92a36 36 0 0 0 -4-15.56 28.69 28.69 0 0 0 -4.67-6.46l-1.43-1.4c-.47-.48-1-.85-1.54-1.28a32.55 32.55 0 0 0 -3.25-2.33c-6.62-4.53-14.68-6.91-22.78-8.13a101.25 101.25 0 0 0 -24.73-.49z" fill="#231f20"/>
            <path d="m694.4 427a303 303 0 0 1 5.52 33.92c.58 5.71 1 11.43 1.05 17.2l-.15 2.23c-.11.72-.26 1.44-.39 2.16l-.2 1.07-.27 1.06-.54 2.1c-.38 1.4-.84 2.76-1.26 4.14s-.92 2.73-1.38 4.09c-3.84 10.83-8.19 21.43-12 32.2-1.91 5.38-3.65 10.8-5.14 16.27l-1 4.11-.87 4.14c-.5 2.78-.91 5.61-1.38 8.41-1.19 7.5-2.19 15-2.82 22.65s-1.08 15.2-1.33 22.82a441.63 441.63 0 0 0 1 45.74l.08 1.14-1.08.14c-15.21 2-30.44 3-45.71 3.63s-30.55.52-45.8-.08c-3.81-.19-7.63-.24-11.44-.56l-11.42-.79c-3.8-.3-7.6-.73-11.39-1.1l-5.7-.57-5.67-.74-11.35-1.53-11.27-1.94-5.64-1-5.59-1.2-11.26-2.38 11.21 2.26 5.61 1.13 5.65.9 11.29 1.8 11.35 1.37 5.67.67 5.7.5c3.8.31 7.59.69 11.39.95 7.61.42 15.21.92 22.83 1.05 15.23.4 30.47.28 45.68-.51s30.42-2.06 45.44-4.2l-1 1.28a442.12 442.12 0 0 1 -1.59-46c.15-7.67.43-15.36 1.05-23s1.44-15.32 2.55-22.94c.55-2.84 1-5.67 1.63-8.51l1-4.25 1.18-4.18c1.66-5.54 3.56-11 5.63-16.35 4.09-10.74 8.72-21.23 12.81-31.89l1.47-4c.44-1.35.93-2.69 1.34-4l.58-2 .29-1 .22-1c.14-.69.3-1.38.43-2.06l.19-2.06c.11-5.67-.17-11.41-.6-17.1a302.22 302.22 0 0 0 -4.6-34.19z" fill="#231f20"/>
            <path d="m620 535-29.48-.38h-1.12l.32-1.12 1-3.66 1.46 1.14-2.07 1.35-17.44 10.33-4.67 2.76 3.72-3.94c2.92-3.08 5.88-6.19 8.47-9.49a7.9 7.9 0 0 0 .8-1.22s0-.09 0-.07a.37.37 0 0 0 .16.32.26.26 0 0 0 .15.07h.06-.09a3.84 3.84 0 0 0 -.63.33c-.87.53-1.72 1.17-2.58 1.8s-1.75 1.26-2.65 1.85-1.81 1.16-2.75 1.68a71 71 0 0 1 -24.13 8.35 70.8 70.8 0 0 0 23.74-9c.91-.55 1.78-1.17 2.66-1.74s1.7-1.27 2.55-1.9 1.68-1.33 2.61-1.93a5.15 5.15 0 0 1 .78-.43 1.66 1.66 0 0 1 .29-.09.72.72 0 0 1 .23 0h.16a.9.9 0 0 1 .24.12.7.7 0 0 1 .24.69 1.37 1.37 0 0 1 -.08.31 8.63 8.63 0 0 1 -.89 1.49c-2.58 3.5-5.43 6.65-8.28 9.86l-1-1.17 17.22-10.8 2.15-1.23 2.3-1.32-.84 2.46-1.22 3.58-.8-1.14z" fill="#231f20"/>

            <path d="m597.5 144c-47-25-80.29 16.63-83.45 68.18-4.72 76.84 22.14 71.93 22.14 71.93-5.64-3-6.65-39.22-4.74-68.89 2.41-37.47 13.23-41.75 24.88-47 22-9.91 35.77 4.51 35.77 4.51s27.46 2.36 27.63 59.5c.09 31.47-1.09 41.39-5.06 53.71 0 0 24.83-5.63 18.27-72.08-5.62-56.86-14.22-72.03-35.44-69.86z" fill="#4d4d4f"/><g fill="#4e4e4f" opacity=".1"><path d="m536.76 283.13c-8.19 4.7-6.69-93.46 6.21-103.46 31.12-24.12 49.13-6.92 49.13-6.92s-7.36-16.44-31.9-9.76-26.4 33.68-26.4 33.68-9.8 85.09 2.96 86.46z"/><path d="m592.1 172.75s24.21-9.13 27.42 49.83c2.93 53.73-5.7 64.1-5.7 64.1s7.8-62.12-1.57-88.18c-9.13-25.38-20.15-25.75-20.15-25.75z"/><path d="m593.44 172.75s2.17-4.3 1-8c.78.89 2-3.34 2.67-6.54s1.95-3.2 2.66-5.46 3.64-8.18 3.64-8.18.52-1-2.29-2.78c-1.93-1.25-6-2.34-13.43-2.69a44.29 44.29 0 0 1 10.06 5.5 69.8 69.8 0 0 0 -10.56-1.68s5.38 3.44 7.43 5.74c-3.59-1.5-11.36-2.09-11.36-2.09s8.55 3.85 9.55 6.59c-3-3.83-14.43-5.5-14.43-5.5s2.25 1.37 2.18 2.21c-7.59-1.58-11.31-.91-11.31-.91s13.75 1.58 20.17 8.2a10.85 10.85 0 0 0 -3.4-.83s8.73 2.29 7.42 16.42z"/><path d="m602.38 144.56a14.41 14.41 0 0 1 5.93-.56c-4 .88-4.52 1.94-4.52 1.94s1.71-.06 3.65.06c0 0-3.78 1.68-4.88 2.12l3 1.57c-.62.25-2.11.25-2.94.5a8 8 0 0 1 2.76 2.5c-1.37.06-4.82.43-4.82.43s5.41 3 5.55 3.56a20.58 20.58 0 0 0 -8.11.7s4.94.37 7.5 1.93c-2.44-.12-4.56-.76-7.75.44a28.73 28.73 0 0 1 7.5 2.77s-5.5-.44-8.25.23c2.06.44 6.44 3.76 6.44 3.76-2.88-1.07-6.38.22-6.38.22a39.44 39.44 0 0 0 5.38 3.17 16.49 16.49 0 0 1 -3.5.66c1.7 2 2.46 3.21 2.31 5.25l-8.44-3.37s1.75-17.25 9.57-27.88z"/><path d="m550.5 150.33c-37-2.66-47 126.18-27.27 126.63-16.85 0-9.74-93.21-2.62-101.09 0 0-.15 0-.7 3.32 8.67-20.77 14-24.86 14-24.86s-.67 1.82-1.53 4.92c7.14-9.14 18.12-8.92 18.12-8.92z"/><path d="m637 230.17c2.58 34-7 56.37-23.18 56.51 17.35-9.72 18.61-28.33 19.94-62 .83 5.51 1.68 8.83 1.68 8.83z"/><path d="m631.6 201.66s-1.93-22.49-15.1-33.33c17.29 14 17.26 38.81 17.26 38.81a13.83 13.83 0 0 0 -2.16-5.48z"/></g><g fill="#4e4e4f" opacity=".1"><path d="m536.76 283.13c-8.19 4.7-6.69-93.46 6.21-103.46 31.12-24.12 49.13-6.92 49.13-6.92s-7.36-16.44-31.9-9.76-26.4 33.68-26.4 33.68-9.8 85.09 2.96 86.46z"/><path d="m592.1 172.75s24.21-9.13 27.42 49.83c2.93 53.73-5.7 64.1-5.7 64.1s7.8-62.12-1.57-88.18c-9.13-25.38-20.15-25.75-20.15-25.75z"/></g><g fill="#231f20"><path d="m592.1 171.57a31.11 31.11 0 0 0 -12.82-8.95 25.91 25.91 0 0 0 -7.7-1.4 28.92 28.92 0 0 0 -7.75 1 38.2 38.2 0 0 0 -13.83 7.23 46.65 46.65 0 0 0 -10.3 11.68 35.11 35.11 0 0 0 -3 5.76 25.93 25.93 0 0 0 -1.81 6.2c-.64 4.33-1.12 8.74-1.58 13.13q-1.37 13.17-2.07 26.41c-.46 8.81-.71 17.65-.43 26.47a116.31 116.31 0 0 0 1.09 13.19 41.45 41.45 0 0 0 1.42 6.43 15.51 15.51 0 0 0 1.29 3 5.57 5.57 0 0 0 2.2 2.31l.42.2h-.45a15.68 15.68 0 0 1 -9.68-3.45 26.35 26.35 0 0 1 -6.66-7.93 26.11 26.11 0 0 0 6.73 7.83 15.43 15.43 0 0 0 9.58 3.31v.23a5.79 5.79 0 0 1 -2.35-2.38 17.32 17.32 0 0 1 -1.34-3.06 41.17 41.17 0 0 1 -1.51-6.48 117 117 0 0 1 -1.23-13.22c-.38-8.84-.23-17.69.12-26.53s1-17.67 1.78-26.48c.42-4.41.85-8.8 1.44-13.22a27.64 27.64 0 0 1 1.83-6.51 36 36 0 0 1 3.06-6 47.83 47.83 0 0 1 10.84-11.77 39 39 0 0 1 14.27-7.07 29.55 29.55 0 0 1 8-.85 26.23 26.23 0 0 1 7.8 1.59 31.46 31.46 0 0 1 12.64 9.33z"/><path d="m592.1 172.75a19.44 19.44 0 0 1 6.39 1.88 26.6 26.6 0 0 1 5.56 3.72 34.93 34.93 0 0 1 8.18 10.58c4.23 7.94 6.26 16.85 7.32 25.72.43 3 .47 6.07.6 9.11 0 1.52.16 3 .15 4.56v4.55c0 3 0 6.07-.08 9.1s-.16 6.07-.27 9.1c-.28 6.07-.63 12.13-1.38 18.16-.18 1.51-.42 3-.62 4.52s-.49 3-.85 4.48a45.75 45.75 0 0 1 -1.15 4.43l-.36 1.08-.43 1.07a7.59 7.59 0 0 1 -1.19 2l-.25-.37a34.92 34.92 0 0 0 14.43-15.11 32.86 32.86 0 0 0 1.53-4 33.89 33.89 0 0 0 1.49-8.37 34.14 34.14 0 0 1 -1.38 8.4 32.2 32.2 0 0 1 -1.49 4 35.16 35.16 0 0 1 -14.38 15.45l-1.12.63.87-1a7.14 7.14 0 0 0 1-1.89l.41-1 .34-1.08a43.73 43.73 0 0 0 1.08-4.38c.33-1.48.51-3 .78-4.47s.4-3 .56-4.5c.67-6 .94-12.06 1.14-18.11.06-3 .16-6 .14-9.08s0-6.05 0-9.08l-.06-4.54c0-1.52-.14-3-.21-4.53-.17-3-.24-6-.71-9-.81-8.78-2.58-17.62-6.54-25.55a34.17 34.17 0 0 0 -7.79-10.63 25.65 25.65 0 0 0 -5.4-3.83 19.3 19.3 0 0 0 -6.31-2.02z"/><path d="m546 151.25c-3.86 1-7 3.59-9.67 6.41l-1.92 2.22-1.71 2.38c-.28.41-.59.79-.84 1.21l-.75 1.26-1.5 2.53a96.15 96.15 0 0 0 -8.61 21.85c-1.15 3.76-1.88 7.63-2.76 11.46-.23 1-.41 1.92-.57 2.89l-.5 2.91-1 5.81.92-5.83.47-2.91c.14-1 .31-1.94.53-2.9.83-3.84 1.52-7.72 2.63-11.5a96.34 96.34 0 0 1 8.39-22.04l1.57-2.51.78-1.26c.27-.41.59-.79.88-1.19l1.79-2.36 2-2.2c.66-.73 1.44-1.34 2.16-2s1.57-1.2 2.34-1.8a15.8 15.8 0 0 1 5.37-2.43z"/><path d="m575.73 150.21a20 20 0 0 1 9 3 21.43 21.43 0 0 1 6.54 6.86 19.16 19.16 0 0 1 1.86 4.37 14.1 14.1 0 0 1 .47 4.71 14.53 14.53 0 0 0 -.53-4.69 19.46 19.46 0 0 0 -1.93-4.32 21.06 21.06 0 0 0 -6.56-6.69 19.87 19.87 0 0 0 -8.85-3.24z"/><path d="m611.63 166.36a13 13 0 0 0 -4.1-.54 15.61 15.61 0 0 0 -8 2.06 15.74 15.74 0 0 1 8-2.34 13.23 13.23 0 0 1 4.1.82z"/><path d="m621.12 172.75a3.54 3.54 0 0 1 1.22 1.06 12.84 12.84 0 0 1 .94 1.34 30.55 30.55 0 0 1 1.5 2.9 63.47 63.47 0 0 1 2.33 6.11 216.66 216.66 0 0 1 5.4 25.51 218.31 218.31 0 0 0 -5.94-25.34c-.6-2.09-1.25-4.16-2.05-6.17a29 29 0 0 0 -1.37-2.94 10.92 10.92 0 0 0 -.87-1.37 3.39 3.39 0 0 0 -1.16-1.1z"/><path d="m583.81 167.32a19.88 19.88 0 0 0 -6.33-4.1 26.13 26.13 0 0 0 -7.31-1.82l-2-.19.09-.52a44 44 0 0 1 4.57 1.7 22.49 22.49 0 0 1 2.18 1.13 6.35 6.35 0 0 1 1.92 1.61l.29.4-.5-.16a70.27 70.27 0 0 0 -6.88-1.81 27.12 27.12 0 0 0 -7.07-.69v-.08a33.12 33.12 0 0 1 4.24 1.34 33.54 33.54 0 0 0 -4.26-1.26l-.26-.06h.27a27.41 27.41 0 0 1 7.11.56 69 69 0 0 1 6.95 1.69l-.21.25a6.2 6.2 0 0 0 -1.81-1.43 21.43 21.43 0 0 0 -2.15-1.06 43 43 0 0 0 -4.55-1.6l-2.37-.71 2.46.19 2.06.16a26.07 26.07 0 0 1 7.35 2.13 19.67 19.67 0 0 1 6.21 4.33z"/><path d="m596.08 172.75a19.31 19.31 0 0 1 8.26 3.28 23.37 23.37 0 0 1 6 6.63 34.48 34.48 0 0 1 3.5 8.17 34.49 34.49 0 0 0 -3.74-8 23 23 0 0 0 -6.07-6.32 19 19 0 0 0 -7.95-3.76z"/><path d="m590.5 152.92a13.57 13.57 0 0 1 2.38 1.05 7.06 7.06 0 0 1 3 4.09 6.94 6.94 0 0 0 -3.19-3.85 12.86 12.86 0 0 0 -2.19-1.29z"/><path d="m597.92 146.83a2.67 2.67 0 0 1 1.08 1.59v.05l.15.78-.4-.68a4.49 4.49 0 0 0 -3.14-1.74 6.51 6.51 0 0 1 1.84.44 3.29 3.29 0 0 1 1.53 1.16l-.25.1v-.05a2.54 2.54 0 0 0 -.81-1.65z"/><path d="m604.28 147.71a5.64 5.64 0 0 0 -1.3 0 3.81 3.81 0 0 0 -2.42.78 3.94 3.94 0 0 1 2.41-1.06 5.26 5.26 0 0 1 1.31.28z"/><path d="m592.1 149.75a6.69 6.69 0 0 1 2.28.48 7.15 7.15 0 0 1 3.12 3.38 7 7 0 0 0 -3.24-3.12 6.51 6.51 0 0 0 -2.16-.74z"/><path d="m602.19 150.17a2.77 2.77 0 0 0 -1.39.36 2.19 2.19 0 0 0 -.9 1.05 2.94 2.94 0 0 0 -.27.84v.05a9.37 9.37 0 0 0 -1 2.3 6.23 6.23 0 0 0 -.79 2.25 6.61 6.61 0 0 1 .69-2.32 9.15 9.15 0 0 1 .91-2.4 3.06 3.06 0 0 1 .26-.94 2.41 2.41 0 0 1 1.08-1.06 2.94 2.94 0 0 1 1.41-.13z"/><path d="m605.38 145.06a2.64 2.64 0 0 0 -1.83.29 3.79 3.79 0 0 0 -1 .58l-.12-.16a2.82 2.82 0 0 1 2.62.26 2.74 2.74 0 0 0 -2.52-.09l-.67.37.55-.52a3.94 3.94 0 0 1 1-.7 2.82 2.82 0 0 1 1.97-.03z"/><path d="m603.44 160.94a13.28 13.28 0 0 0 -2.6.05 7.44 7.44 0 0 0 -4.76 1.82 7.69 7.69 0 0 1 4.74-2.11 14.27 14.27 0 0 1 2.62.24z"/><path d="m603.94 156.56a5.1 5.1 0 0 0 -1.46 0 11.17 11.17 0 0 0 -2.91.41 11 11 0 0 1 2.9-.69 5.23 5.23 0 0 1 1.47.28z"/></g>
            <path d="m572.7 264.38a13.3 13.3 0 0 0 3-.07c2.45 2.09 6.56-.74 6.77-1.61-4.4-1.06-3.74.88-7.82.83s-4.52.19-5.64-.95c.57 1.14 1.19 2.47 3.69 1.8z" fill="#231f20" opacity=".1"/><g fill="#272727"><path d="m577.48 264.67c1.84-.09 4-.39 4.89-2.14-2.16-.4-3.89 0-4.89 2.14"/><path d="m568.31 262.53c.85 1.68 2.28 1.52 4 1.52-.56-1.7-2.43-1.52-4-1.52"/></g>

        </svg>
        <text fill="#000" font-family="PT Sans Narrow" font-size="144" font-weight="bold" letter-spacing="-.02em" xml:space="preserve">
         <tspan x="179" y="2024.93">SPARK JOY IN </tspan>
            <tspan x="179" y="2146.93">EVERYDAY </tspan>
            <tspan x="179" y="2268.93">MAKEUP!</tspan>
      </text>
        <path clip-rule="evenodd" d="m1373.58 1603.87c-.2-.16-.4-.34-.59-.51l-.41 1.51c-.2-.16-.4-.34-.59-.51l-.41 1.51c-.2-.16-.4-.34-.59-.51l-.41 1.51c-.2-.16-.4-.34-.59-.51l-.41 1.51c-.2-.16-.4-.34-.59-.51l-.41 1.51c-.2-.16-.4-.34-.59-.51l-.41 1.51c-.2-.16-.4-.34-.59-.51l-.41 1.51c-.2-.16-.4-.34-.59-.51l-.41 1.51c-.2-.16-.4-.34-.59-.51l-.41 1.51c-.2-.16-.4-.34-.59-.51l-3.4 12.51c2.27 2.09 4.85 3.77 7.76 5.04 2.91 1.28 6.3 1.92 10.17 1.92 4.2 0 7.84-.87 10.91-2.61 1.99-1.17 3.76-2.58 5.3-4.21.34-.33.67-.66 1-1 .34-.33.67-.66 1-1 .34-.33.67-.66 1-1 .34-.33.67-.66 1-1 .34-.33.67-.66 1-1 .34-.33.67-.66 1-1 .34-.33.67-.66 1-1 .34-.33.67-.66 1-1 .34-.33.68-.66 1-1.01-1.29 1.22-2.73 2.29-4.3 3.22-3.07 1.74-6.71 2.61-10.91 2.61-3.87 0-7.26-.64-10.17-1.92-2.91-1.27-5.49-2.95-7.76-5.04zm24.64-.64c-1.89 2.79-4.42 4.46-7.6 5.01.82-2.61 1.23-5.64 1.23-9.09 0-3.13-.36-5.91-1.09-8.34s-1.7-4.63-2.91-6.6c-1.13-1.97-2.46-3.77-3.99-5.39-1.54-1.62-3.11-3.24-4.73-4.87-1.86-1.85-3.8-3.82-5.81-5.91-2.02-2.08-3.88-4.51-5.58-7.3-1.61-2.78-2.95-6.02-4-9.73s-1.57-8.05-1.57-13.03c0-4.87.56-9.27 1.7-13.21 1.21-3.94 2.82-7.3 4.84-10.08.86-1.14 1.79-2.18 2.77-3.11.33-.34.67-.68 1.01-1 .32-.34.66-.68 1-1 .32-.34.66-.68 1-1 .32-.34.65-.68 1-1 .32-.34.65-.68 1-1 .32-.34.66-.68 1-1 .32-.34.66-.68 1-1 .32-.34.66-.68 1-1 .32-.34.65-.67.99-.99-.61.65-1.2 1.35-1.77 2.1-2.02 2.78-3.63 6.14-4.84 10.08-1.14 3.94-1.7 8.34-1.7 13.21 0 4.98.52 9.32 1.57 13.03s2.39 6.95 4 9.73c1.7 2.79 3.56 5.22 5.58 7.3 2.01 2.09 3.95 4.06 5.81 5.91 1.62 1.62 3.19 3.25 4.73 4.87 1.53 1.62 2.86 3.42 3.99 5.39 1.21 1.97 2.18 4.17 2.91 6.6s1.09 5.21 1.09 8.34c0 5.91-1.21 10.6-3.63 14.08zm4.12-92.63c1.79.72 3.45 1.76 4.99 3.12l-.42 1.53c-.19-.18-.39-.36-.58-.53l-.42 1.53c-.19-.18-.39-.36-.58-.53l-.42 1.53c-.19-.18-.39-.36-.58-.53l-.42 1.53c-.19-.18-.39-.36-.58-.53l-.42 1.53c-.19-.18-.39-.36-.58-.53l-.42 1.53c-.19-.18-.39-.36-.58-.53l-.42 1.53c-.19-.18-.39-.36-.58-.53l-.42 1.53c-.19-.18-.39-.36-.58-.53l-.42 1.53c-.19-.18-.39-.36-.58-.53l-.42 1.53c-1.7-1.62-3.56-2.84-5.57-3.65-1.94-.93-4-1.39-6.18-1.39-.75 0-1.48.05-2.17.17.58-2.18 1.45-4 2.6-5.48 2.42-3.13 5.61-4.69 9.57-4.69 2.18 0 4.24.46 6.18 1.39zm-381.12-9.42c-.33.11-.67.22-1 .34v.66c-.33.11-.67.22-1 .34v.66c-.33.11-.67.22-1 .34v.66c-.33.11-.67.22-1 .34v.66c-.33.11-.67.22-1 .34v.66c-.33.11-.67.22-1 .34v.66c-.33.11-.67.22-1 .34v.66c-.33.11-.67.22-1 .34v.66c-.33.11-.67.22-1 .34v.66c-.33.11-.67.22-1 .34v118.7h10.66v-1h1v-1h1v-1h1v-1h1v-1h1v-1h1v-1h1v-1h1v-1h1v-1h-9.66zm10.66 80.61c.38-.06.77-.12 1.15-.19 1.13 2.78 2.42 6.2 3.87 10.25 1.46 3.94 2.91 8.11 4.36 12.52 1.46 4.28 2.83 8.63 4.12 13.03 1.38 4.4 2.51 8.34 3.39 11.82h10.91c-.08-.33-.15-.67-.23-1h1.23c-.08-.33-.15-.67-.23-1h1.23c-.08-.33-.15-.67-.23-1h1.23c-.08-.33-.15-.67-.23-1h1.23c-.08-.33-.15-.67-.23-1h1.23c-.08-.33-.15-.67-.23-1h1.23c-.08-.33-.15-.67-.23-1h1.23c-.08-.33-.15-.67-.23-1h1.23c-.08-.33-.15-.67-.23-1h1.23c-.08-.33-.15-.67-.23-1h-9.68c-.88-3.48-2.01-7.42-3.39-11.82-1.29-4.4-2.66-8.75-4.12-13.03-1.45-4.41-2.9-8.58-4.36-12.52-1.45-4.05-2.74-7.47-3.87-10.25-1.3.23-2.63.41-4 .52-1.38.12-2.75.17-4.12.17h-3.03zm21.22-14.37c-.05-.12-.09-.23-.14-.34.87-.61 1.7-1.29 2.49-2.03-.33.35-.66.68-1 1-.33.35-.66.68-1 1-.12.13-.23.25-.35.37zm-11.02-8.71c1.15-3.53 1.73-8.06 1.73-13.61 0-4.52-.41-8.28-1.21-11.29-.73-3.13-1.82-5.56-3.28-7.3-1.37-1.86-3.06-3.19-5.08-4-.75-.31-1.54-.57-2.36-.76v-9.94c1.78-.34 3.71-.52 5.81-.52 2.43 0 4.61.41 6.55 1.22 2.02.81 3.71 2.14 5.08 4 1.46 1.74 2.55 4.17 3.28 7.3.8 3.01 1.21 6.77 1.21 11.29 0 8.92-1.5 15.24-4.49 18.95-1.89 2.28-4.31 3.83-7.24 4.66zm-834.08-58.93v12.38h18.657v107.06h9.903v1h-1v1h-1v1h-1v1h-1v1h-1v1h-1v1h-1v1h-1v1h-1v1h-10.903v-107.06h-18.657v-13.38h1v-1h1v-1h1v-1h1v-1h1v-1h1v-1h1v-1h1v-1h1v-1zm29.56 22.38h8.657v-1h1v-1h1v-1h1v-1h1v-1h1v-1h1v-1h1v-1h1v-1h1v-1h-17.657zm115.066-22.38h-1v1h-1v1h-1v1h-1v1h-1v1h-1v1h-1v1h-1v1h-1v1h-1v40.92h10zm-38.526 0h-1v1h-1v1h-1v1h-1v1h-1v1h-1v1h-1v1h-1v1h-1v1h-1v120.44h10.904v-1h1v-1h1v-1h1v-1h1v-1h1v-1h1v-1h1v-1h1v-1h1v-1h-9.904zm10.904 73.48v-10h27.622v55.96h9.903v1h-1v1h-1v1h-1v1h-1v1h-1v1h-1v1h-1v1h-1v1h-1v1h-10.903v-55.96zm104.935-73.48v119.44h38.616v1h-1v1h-1v1h-1v1h-1v1h-1v1h-1v1h-1v1h-1v1h-1v1h-39.616v-120.44h1v-1h1v-1h1v-1h1v-1h1v-1h1v-1h1v-1h1v-1h1v-1zm36.678 12.38h-25.774v10h16.774v-1h1v-1h1v-1h1v-1h1v-1h1v-1h1v-1h1v-1h1v-1h1zm-2.544 50.4h-23.23v10h14.23v-1h1v-1h1v-1h1v-1h1v-1h1v-1h1v-1h1v-1h1v-1h1zm136.852-62.78h-1v1h-1v1h-1v1h-1v1h-1v1h-1v1h-1v1h-1v1h-1v1h-1v120.44h10.904v-1h1v-1h1v-1h1v-1h1v-1h1v-1h1v-1h1v-1h1v-1h1v-1h-9.904zm10.904 73.3h13.745v-1h1v-1h1v-1h1v-1h1v-1h1v-1h1v-1h1v-1h1v-1h1v-1h-22.745zm0-50.92v-10h25.774v1h-1v1h-1v1h-1v1h-1v1h-1v1h-1v1h-1v1h-1v1h-1v1zm91.805 90.11c3.957 6.37 9.853 9.56 17.687 9.56 5.854 0 10.647-1.74 14.379-5.22-.325.35-.659.68-1.002 1-.325.35-.658.68-1 1-.325.35-.658.68-1 1-.325.35-.658.68-1 1-.325.35-.658.68-1 1-.325.35-.658.68-1 1-.325.35-.658.68-1 1-.325.35-.658.68-1 1-.324.35-.657.68-.999 1-3.863 4.14-8.988 6.22-15.378 6.22-7.834 0-13.73-3.19-17.687-9.56-3.877-6.37-5.816-16.45-5.816-30.24v-83.25h1v-1h1v-1h1v-1h1v-1h1v-1h1v-1h1v-1h1v-1h1v-1h1v82.25c0 13.78 1.939 23.86 5.816 30.24zm30.892-112.49h-1v1h-1v1h-1v1h-1v1h-1v1h-1v1h-1v1h-1v1h-1v1h-1v81.86c0 7.14-.595 12.94-1.785 17.41 4.366-.34 7.365-2.64 8.999-6.91 1.858-4.75 2.786-11.58 2.786-20.5zm68.065 0v12.38h18.657v107.06h9.904v1h-1v1h-1v1h-1v1h-1v1h-1v1h-1v1h-1v1h-1v1h-1v1h-10.904v-107.06h-18.657v-13.38h1v-1h1v-1h1v-1h1v-1h1v-1h1v-1h1v-1h1v-1h1v-1zm29.561 22.38h8.657v-1h1v-1h1v-1h1v-1h1v-1h1v-1h1v-1h1v-1h1v-1h1v-1h-17.657zm81.628 90.11c3.957 6.37 9.853 9.56 17.688 9.56 5.853 0 10.646-1.74 14.379-5.22-.326.35-.66.68-1.003 1-.324.35-.658.68-1 1-.324.35-.658.68-1 1-.324.35-.658.68-1 1-.324.35-.658.68-1 1-.324.35-.657.68-1 1-.324.35-.658.68-1 1-.324.35-.658.68-1 1-.324.35-.657.68-.999 1-3.862 4.14-8.988 6.22-15.377 6.22-7.835 0-13.731-3.19-17.688-9.56-3.877-6.37-5.815-16.45-5.815-30.24v-83.25h1v-1h1v-1h1v-1h1v-1h1v-1h1v-1h1v-1h1v-1h1v-1h1v82.25c0 13.78 1.938 23.86 5.815 30.24zm30.893-112.49h-1v1h-1v1h-1v1h-1v1h-1v1h-1v1h-1v1h-1v1h-1v1h-1v81.86c0 7.14-.595 12.94-1.785 17.41 4.365-.34 7.365-2.64 8.999-6.91 1.857-4.75 2.786-11.58 2.786-20.5zm184.817 0v119.44h38.61v1h-1v1h-1v1h-1v1h-1v1h-1v1h-1v1h-1v1h-1v1h-1v1h-39.61v-120.44h1v-1h1v-1h1v-1h1v-1h1v-1h1v-1h1v-1h1v-1h1v-1zm36.67 12.38h-25.77v10h16.77v-1h1v-1h1v-1h1v-1h1v-1h1v-1h1v-1h1v-1h1v-1h1zm-2.54 50.4h-23.23v10h14.23v-1h1v-1h1v-1h1v-1h1v-1h1v-1h1v-1h1v-1h1v-1h1zm136.85-62.78v119.44h9.91v1h-1v1h-1v1h-1v1h-1v1h-1v1h-1v1h-1v1h-1v1h-1v1h-10.91v-120.44h1v-1h1v-1h1v-1h1v-1h1v-1h1v-1h1v-1h1v-1h1v-1zm263.86 49.88c.73-2.55 1.09-5.58 1.09-9.08 0-4.05-.44-7.35-1.33-9.9-.81-2.67-1.9-4.69-3.27-6.08-1.37-1.51-2.99-2.55-4.85-3.13-.99-.33-2.02-.56-3.08-.7v-9.48c1.21-.23 2.42-.4 3.63-.52 1.29-.11 2.55-.17 3.76-.17 2.02 0 3.92.29 5.69.87 1.86.58 3.48 1.62 4.85 3.13 1.37 1.39 2.46 3.41 3.27 6.08.89 2.55 1.33 5.85 1.33 9.9 0 11.15-3.7 17.51-11.09 19.08zm-11.44 22.94c5.08.28 8.86 2.3 11.32 6.05 2.75 4.05 4.12 9.67 4.12 16.85 0 4.17-.44 7.71-1.33 10.6-.05.18-.1.35-.16.51.49-.12.96-.26 1.43-.43 2.02-.69 3.76-1.85 5.21-3.47 1.54-1.62 2.71-3.82 3.52-6.61.89-2.89 1.33-6.43 1.33-10.6 0-7.18-1.37-12.8-4.12-16.85-2.66-4.06-6.86-6.09-12.6-6.09h-8.72zm-10.91-71.4v116.11c3.32.92 6.51 1.62 9.58 2.08 3.06.47 6.01.7 8.84.7 4.28 0 8.2-.58 11.75-1.74 3.26-1.14 6.09-2.84 8.5-5.1-.06.07-.11.13-.17.19-.27.28-.55.55-.83.82-.06.06-.11.12-.17.18-.27.28-.55.55-.83.82-.06.06-.11.12-.17.18-.27.28-.55.55-.83.82-.06.06-.11.12-.17.18-.27.28-.55.55-.83.82-.06.06-.11.12-.17.18-.27.28-.55.55-.83.82-.06.06-.11.12-.17.18-.27.28-.55.55-.83.82-.06.06-.11.12-.17.18-.27.28-.55.55-.83.82-.06.06-.11.12-.17.18-.27.28-.55.55-.83.82-.06.06-.11.12-.17.18-.27.28-.55.55-.83.82-.06.06-.11.12-.17.18-2.59 2.67-5.69 4.64-9.33 5.91-3.55 1.16-7.47 1.74-11.75 1.74-2.83 0-5.78-.23-8.84-.7-3.07-.46-6.26-1.16-9.58-2.08v-116.79c.34-.11.67-.22 1-.32v-.68c.34-.11.67-.22 1-.32v-.68c.34-.11.67-.22 1-.32v-.68c.34-.11.67-.22 1-.32v-.68c.34-.11.67-.22 1-.32v-.68c.34-.11.67-.22 1-.32v-.68c.34-.11.67-.22 1-.32v-.68c.34-.11.67-.22 1-.32v-.68c.34-.11.67-.22 1-.32v-.68c.34-.11.67-.22 1-.32zm33.77 54.77c.04-.04.07-.08.11-.12.34-.32.68-.65 1-1 .34-.32.68-.65 1-1-.77.72-1.58 1.37-2.44 1.93.11.07.22.13.33.19zm75.45-54.79c-.33.11-.67.22-1 .34v.66c-.33.11-.67.22-1 .34v.66c-.33.11-.67.22-1 .34v.66c-.33.11-.67.22-1 .34v.66c-.33.11-.67.22-1 .34v.66c-.33.11-.67.22-1 .34v.66c-.33.11-.67.22-1 .34v.66c-.33.11-.67.22-1 .34v.66c-.33.11-.67.22-1 .34v.66c-.33.11-.67.22-1 .34v118.7h10.66v-1h1v-1h1v-1h1v-1h1v-1h1v-1h1v-1h1v-1h1v-1h1v-1h-9.66zm10.66 80.61c.39-.06.77-.12 1.15-.19 1.13 2.78 2.42 6.2 3.87 10.25 1.46 3.94 2.91 8.11 4.36 12.52 1.46 4.28 2.83 8.63 4.12 13.03 1.38 4.4 2.51 8.34 3.4 11.82h10.9c-.08-.33-.15-.67-.23-1h1.23c-.08-.33-.15-.67-.23-1h1.23l-.08-.36c-.05-.21-.1-.43-.15-.64h1.23c-.08-.33-.15-.67-.23-1h1.23c-.08-.33-.15-.67-.23-1h1.23c-.08-.33-.15-.67-.23-1h1.23c-.08-.33-.15-.67-.23-1h1.23c-.08-.33-.15-.67-.23-1h1.23c-.08-.33-.15-.67-.23-1h1.23c-.08-.33-.15-.67-.23-1h-9.67c-.89-3.48-2.02-7.42-3.4-11.82-1.29-4.4-2.66-8.75-4.12-13.03-1.45-4.41-2.9-8.58-4.36-12.52-1.45-4.05-2.74-7.47-3.87-10.25-1.3.23-2.63.41-4 .52-1.38.12-2.75.17-4.12.17h-3.03zm21.22-14.37c.12-.12.23-.24.35-.37.34-.32.67-.65 1-1 .34-.32.67-.65 1-1-.79.74-1.62 1.42-2.49 2.03.05.11.09.22.14.34zm-21.22-45.67c.82.19 1.61.45 2.36.76 2.02.81 3.71 2.14 5.09 4 1.45 1.74 2.54 4.17 3.27 7.3.8 3.01 1.21 6.77 1.21 11.29 0 5.55-.58 10.08-1.73 13.61 2.93-.83 5.35-2.38 7.25-4.66 2.98-3.71 4.48-10.03 4.48-18.95 0-4.52-.41-8.28-1.21-11.29-.73-3.13-1.82-5.56-3.27-7.3-1.38-1.86-3.07-3.19-5.09-4-1.94-.81-4.12-1.22-6.55-1.22-2.09 0-4.03.18-5.81.52zm97.61-21.97v119.44h9.9v1h-1v1h-1v1h-1v1h-1v1h-1v1h-1v1h-1v1h-1v1h-1v1h-10.9v-120.44h1v-1h1v-1h1v-1h1v-1h1v-1h1v-1h1v-1h1v-1h1v-1zm75.93 30.11c-1.45 7.99-2.18 17.67-2.18 29.02 0 10.89.73 20.34 2.18 28.33 1.54 7.88 3.64 14.43 6.3 19.64 2.75 5.1 5.98 8.92 9.7 11.47 3.71 2.43 7.75 3.65 12.11 3.65 3.55 0 6.95-.52 10.18-1.56 2.75-.89 5.12-1.95 7.11-3.18v.35c-.32.22-.65.44-1 .65v.35c-.32.22-.65.44-1 .65v.35c-.32.22-.65.44-1 .65v.35c-.32.22-.65.44-1 .65v.35c-.32.22-.65.44-1 .65v.35c-.32.22-.65.44-1 .65v.35c-.32.22-.65.44-1 .65v.35c-.32.22-.65.44-1 .65v.35c-.32.22-.65.44-1 .65v.35c-2.18 1.51-4.88 2.78-8.11 3.83-3.23 1.04-6.63 1.56-10.18 1.56-4.36 0-8.4-1.22-12.11-3.65-3.72-2.55-6.95-6.37-9.7-11.47-2.66-5.21-4.76-11.76-6.3-19.64-1.45-7.99-2.18-17.44-2.18-28.33 0-11.35.73-21.03 2.18-29.02 1.46-7.99 3.52-14.48 6.18-19.47 1.77-3.28 3.77-5.97 5.97-8.05.33-.35.67-.69 1.01-1.01.32-.34.66-.68 1-1 .32-.34.66-.68 1-1 .32-.34.66-.68 1-1 .32-.34.66-.68.99-1 .33-.34.67-.68 1.01-1 .32-.34.66-.68 1-1 .32-.34.66-.68 1-1 .32-.34.65-.67.99-.99-1.81 1.92-3.47 4.27-4.97 7.05-2.66 4.99-4.72 11.47-6.18 19.47zm42.18-14.3c-1.69-1.6-3.52-2.91-5.47-3.95-2.18-1.27-4.68-1.91-7.51-1.91-6.52 0-11.34 3.54-14.45 10.63 1.38-.42 2.87-.63 4.45-.63 2.83 0 5.33.64 7.51 1.91 2.18 1.16 4.2 2.67 6.06 4.52l.41-1.57c.2.18.39.38.59.57l.41-1.57c.2.18.39.38.59.57l.41-1.57c.2.18.39.38.59.57l.41-1.57c.2.18.39.38.59.57l.41-1.57c.2.18.39.38.59.57l.41-1.57c.2.18.39.38.59.57l.41-1.57c.2.18.39.38.59.57l.41-1.57c.2.18.39.38.59.57l.41-1.57c.2.18.39.38.59.57zm-16.68 92.2c1.14.32 2.34.48 3.58.48 2.5 0 4.64-.41 6.42-1.22v-46.09h-1v1h-1v1h-1v1h-1v1h-1v1h-1v1h-1v1h-1v1h-1v1h-1zm124.05-108.01h-1v1h-1v1h-1v1h-1v1h-1v1h-1v1h-1v1h-1v1h-1v1h-1v40.92h10zm-38.53 0h-1v1h-1v1h-1v1h-1v1h-1v1h-1v1h-1v1h-1v1h-1v1h-1v120.44h10.91v-1h1v-1h1v-1h1v-1h1v-1h1v-1h1v-1h1v-1h1v-1h1v-1h-9.91zm10.91 73.48v-10h27.62v55.96h9.9v1h-1v1h-1v1h-1v1h-1v1h-1v1h-1v1h-1v1h-1v1h-1v1h-10.9v-55.96zm96.45-73.48h-1v1h-1v1h-1v1h-1v1h-1v1h-1v1h-1v1h-1v1h-1v1h-1v13.38h18.66v107.06h10.9v-1h1v-1h1v-1h1v-1h1v-1h1v-1h1v-1h1v-1h1v-1h1v-1h-9.9v-107.06h-18.66zm29.56 22.38h8.66v-1h1v-1h1v-1h1v-1h1v-1h1v-1h1v-1h1v-1h1v-1h1v-1h-17.66z" fill="#000" fill-rule="evenodd"/>
        <g stroke="#000" stroke-width="4">
            <path d="m256.217 1498.78v13.38h-18.657v107.06h-10.903v-107.06h-18.657v-13.38z" mask="url(#c)"/>
            <path d="m352.626 1498.78h10.903v120.44h-10.903v-55.96h-27.622v55.96h-10.904v-120.44h10.904v50.92h27.622z" mask="url(#c)"/>
            <path d="m429.939 1619.22v-120.44h37.678v13.38h-26.774v37.37h24.23v13.03h-24.23v43.28h28.712v13.38z" mask="url(#c)"/>
            <path d="m600.925 1619.22v-120.44h37.678v13.38h-26.774v37.89h23.745v13.03h-23.745v56.14z" mask="url(#c)"/>
            <path d="m721.321 1621.83c-7.834 0-13.73-3.19-17.687-9.56-3.877-6.37-5.816-16.45-5.816-30.24v-83.25h10.904v81.86c0 9.15.928 16.04 2.786 20.68 1.858 4.52 5.21 6.78 10.056 6.78 5.007 0 8.399-2.32 10.176-6.96 1.858-4.75 2.786-11.58 2.786-20.5v-81.86h10.904v83.25c0 13.55-2.019 23.58-6.058 30.06-4.038 6.49-10.055 9.74-18.051 9.74z" mask="url(#c)"/>
            <path d="m850.809 1498.78v13.38h-18.657v107.06h-10.904v-107.06h-18.657v-13.38z" mask="url(#c)"/>
            <path d="m931.468 1621.83c-7.835 0-13.73-3.19-17.688-9.56-3.877-6.37-5.815-16.45-5.815-30.24v-83.25h10.903v81.86c0 9.15.929 16.04 2.787 20.68 1.857 4.52 5.209 6.78 10.055 6.78 5.008 0 8.4-2.32 10.177-6.96 1.857-4.75 2.786-11.58 2.786-20.5v-81.86h10.903v83.25c0 13.55-2.019 23.58-6.057 30.06-4.038 6.49-10.056 9.74-18.051 9.74z" mask="url(#c)"/>
            <path d="m1021.22 1500.52c5.65-1.97 11.1-2.96 16.35-2.96 4.2 0 8 .7 11.39 2.09s6.3 3.59 8.72 6.6c2.43 3.02 4.28 6.9 5.58 11.65 1.37 4.75 2.06 10.48 2.06 17.2 0 8.35-1.13 15.12-3.4 20.34-2.18 5.1-5.16 8.98-8.96 11.64.97 2.32 2.18 5.5 3.63 9.56 1.54 3.94 3.07 8.34 4.61 13.21 1.61 4.75 3.15 9.67 4.6 14.77 1.54 5.1 2.83 9.96 3.88 14.6h-10.91c-.88-3.48-2.01-7.42-3.39-11.82-1.29-4.4-2.66-8.75-4.12-13.03-1.45-4.41-2.9-8.58-4.36-12.52-1.45-4.05-2.74-7.47-3.87-10.25-1.3.23-2.63.41-4 .52-1.38.12-2.75.18-4.12.18h-3.03v46.92h-10.66zm10.66 58.91h4.6c5.58 0 9.86-1.79 12.84-5.38 2.99-3.71 4.49-10.03 4.49-18.95 0-4.52-.41-8.28-1.21-11.29-.73-3.13-1.82-5.56-3.28-7.3-1.37-1.86-3.06-3.19-5.08-4-1.94-.81-4.12-1.22-6.55-1.22-2.1 0-4.03.18-5.81.53z" mask="url(#c)"/>
            <path d="m1129.49 1619.22v-120.44h37.67v13.38h-26.77v37.37h24.23v13.03h-24.23v43.28h28.71v13.38z" mask="url(#c)"/>
            <path d="m1300.47 1498.78h10.91v120.44h-10.91z" mask="url(#c)"/>
            <path d="m1388.16 1608.44c4.36 0 7.71-1.73 10.06-5.21 2.42-3.48 3.63-8.17 3.63-14.08 0-3.13-.36-5.91-1.09-8.34s-1.7-4.63-2.91-6.6c-1.13-1.97-2.46-3.77-3.99-5.39-1.54-1.62-3.11-3.24-4.73-4.87-1.86-1.85-3.8-3.82-5.81-5.91-2.02-2.08-3.88-4.51-5.58-7.3-1.61-2.78-2.95-6.02-4-9.73s-1.57-8.05-1.57-13.03c0-4.87.56-9.27 1.7-13.21 1.21-3.94 2.82-7.3 4.84-10.08 2.1-2.78 4.56-4.92 7.39-6.43 2.91-1.51 6.02-2.26 9.33-2.26 3.23 0 6.22.58 8.97 1.74 2.74 1.16 5.04 2.55 6.9 4.17l-3.39 12.34c-1.7-1.62-3.56-2.84-5.57-3.65-1.94-.93-4-1.39-6.18-1.39-3.96 0-7.15 1.56-9.57 4.69-2.35 3.01-3.52 7.47-3.52 13.38 0 3.25.37 6.09 1.09 8.52.81 2.43 1.82 4.63 3.03 6.6 1.29 1.97 2.75 3.77 4.36 5.39 1.7 1.62 3.48 3.3 5.33 5.04 1.86 1.74 3.76 3.65 5.7 5.74 1.94 2.08 3.67 4.51 5.21 7.29 1.61 2.67 2.9 5.86 3.87 9.56 1.05 3.6 1.58 7.88 1.58 12.86 0 4.52-.49 8.81-1.45 12.86-.97 4.06-2.51 7.65-4.61 10.78-2.02 3.01-4.6 5.45-7.75 7.3-3.07 1.74-6.71 2.61-10.91 2.61-3.87 0-7.26-.64-10.17-1.92-2.91-1.27-5.49-2.95-7.76-5.04l3.4-12.51c2.1 1.86 4.24 3.36 6.42 4.52 2.26 1.04 4.84 1.56 7.75 1.56z" mask="url(#c)"/>
            <path d="m1552.89 1550.05h7.51c10.01 0 15.02-6.49 15.02-19.47 0-4.05-.44-7.35-1.33-9.9-.81-2.67-1.9-4.69-3.27-6.08-1.37-1.51-2.99-2.55-4.85-3.13-1.77-.58-3.67-.87-5.69-.87-1.21 0-2.47.06-3.76.17-1.21.12-2.42.29-3.63.52zm0 12.51v43.45c1.53.35 3.03.64 4.48.87 1.54.23 3.03.35 4.48.35 2.26 0 4.4-.35 6.42-1.05 2.02-.69 3.76-1.85 5.21-3.47 1.54-1.62 2.71-3.82 3.52-6.61.89-2.89 1.33-6.43 1.33-10.6 0-7.18-1.37-12.8-4.12-16.85-2.67-4.06-6.86-6.09-12.6-6.09zm-10.91-62.04c2.83-.93 5.7-1.62 8.61-2.09 2.98-.58 5.93-.87 8.84-.87 3.63 0 7.07.53 10.3 1.57 3.31.93 6.22 2.61 8.72 5.04 2.5 2.32 4.48 5.44 5.94 9.38 1.53 3.83 2.3 8.63 2.3 14.43 0 7.18-1.05 13.09-3.15 17.72-2.1 4.52-4.81 7.88-8.12 10.08 4.12 2.32 7.51 5.86 10.18 10.61 2.66 4.75 4 11.29 4 19.63 0 6.26-.73 11.53-2.18 15.82-1.38 4.29-3.36 7.82-5.94 10.6-2.59 2.67-5.69 4.64-9.33 5.91-3.55 1.16-7.47 1.74-11.75 1.74-2.83 0-5.78-.23-8.84-.7-3.07-.46-6.26-1.16-9.58-2.08z" mask="url(#c)"/>
            <path d="m1651.2 1500.52c5.65-1.97 11.1-2.96 16.35-2.96 4.2 0 8 .7 11.39 2.09s6.3 3.59 8.72 6.6c2.43 3.02 4.29 6.9 5.58 11.65 1.37 4.75 2.06 10.48 2.06 17.2 0 8.35-1.13 15.12-3.4 20.34-2.18 5.1-5.16 8.98-8.96 11.64.97 2.32 2.18 5.5 3.63 9.56 1.54 3.94 3.07 8.34 4.61 13.21 1.61 4.75 3.15 9.67 4.6 14.77 1.54 5.1 2.83 9.96 3.88 14.6h-10.9c-.89-3.48-2.02-7.42-3.4-11.82-1.29-4.4-2.66-8.75-4.12-13.03-1.45-4.41-2.9-8.58-4.36-12.52-1.45-4.05-2.74-7.47-3.87-10.25-1.3.23-2.63.41-4 .52-1.38.12-2.75.18-4.12.18h-3.03v46.92h-10.66zm10.66 58.91h4.6c5.58 0 9.86-1.79 12.85-5.38 2.98-3.71 4.48-10.03 4.48-18.95 0-4.52-.41-8.28-1.21-11.29-.73-3.13-1.82-5.56-3.27-7.3-1.38-1.86-3.07-3.19-5.09-4-1.94-.81-4.12-1.22-6.55-1.22-2.09 0-4.03.18-5.81.53z" mask="url(#c)"/>
            <path d="m1759.47 1498.78h10.9v120.44h-10.9z" mask="url(#c)"/>
            <path d="m1833.22 1558.91c0-11.35.73-21.03 2.18-29.02 1.46-7.99 3.52-14.48 6.18-19.47 2.75-5.09 6.02-8.74 9.82-10.94 3.87-2.32 8.19-3.48 12.96-3.48 3.63 0 6.94.75 9.93 2.26 2.99 1.39 5.41 3.01 7.27 4.87l-3.39 13.03c-1.86-1.85-3.88-3.36-6.06-4.52-2.18-1.27-4.68-1.91-7.51-1.91-7.03 0-12.07 4.11-15.14 12.34-3.07 8.11-4.61 20.39-4.61 36.84 0 8.81.45 16.34 1.34 22.6.97 6.25 2.3 11.35 3.99 15.29 1.7 3.94 3.76 6.84 6.18 8.69 2.43 1.85 5.13 2.78 8.12 2.78 2.5 0 4.64-.41 6.42-1.22v-47.09h10.9v56.65c-2.18 1.51-4.88 2.78-8.11 3.83-3.23 1.04-6.63 1.56-10.18 1.56-4.36 0-8.4-1.22-12.11-3.65-3.72-2.55-6.95-6.37-9.7-11.47-2.66-5.21-4.76-11.76-6.3-19.64-1.45-7.99-2.18-17.44-2.18-28.33z" mask="url(#c)"/>
            <path d="m1984.95 1498.78h10.9v120.44h-10.9v-55.96h-27.62v55.96h-10.91v-120.44h10.91v50.92h27.62z" mask="url(#c)"/>
            <path d="m2102 1498.78v13.38h-18.66v107.06h-10.9v-107.06h-18.66v-13.38z" mask="url(#c)"/>
        </g>
        <text fill="#000" font-family="PT Sans Narrow" font-size="320" font-weight="bold" letter-spacing="-.02em" xml:space="preserve">
         <tspan x="1269.94" y="2573.84">#SUPER</tspan>
            <tspan x="1251.35" y="2845.84">WOMEN</tspan>
      </text>
        <text fill="#000" font-family="PT Sans Narrow" font-size="144" font-weight="bold" letter-spacing="-.02em" xml:space="preserve">
         <tspan x="1526.36" y="732.928">COVER GIRL:</tspan>
      </text>
        <text fill="#000" font-family="PT Sans Narrow" font-size="192" font-weight="bold" letter-spacing="-.02em">
            <tspan x="1420.76" y="895.928">&lt;&lt;NAME&gt;&gt;</tspan>
        </text>
    </g>
</svg>