<svg fill="none" height="2990" viewBox="0 0 2300 2990" width="2300" xmlns="http://www.w3.org/2000/svg" xmlns:xlink="http://www.w3.org/1999/xlink"><clipPath id="a"><path d="m0 0h2300v2990h-2300z"/></clipPath><clipPath id="b"><path d="m100 90h2110v363h-2110z"/></clipPath><mask id="c" fill="#fff"><path d="m256.217 1498.78v13.38h-18.657v107.06h-10.903v-107.06h-18.657v-13.38z" fill="#fff"/><path d="m352.626 1498.78h10.903v120.44h-10.903v-55.96h-27.622v55.96h-10.904v-120.44h10.904v50.92h27.622z" fill="#fff"/><path d="m429.939 1619.22v-120.44h37.678v13.38h-26.774v37.37h24.23v13.03h-24.23v43.28h28.712v13.38z" fill="#fff"/><path d="m600.925 1619.22v-120.44h37.678v13.38h-26.774v37.89h23.745v13.03h-23.745v56.14z" fill="#fff"/><path d="m721.321 1621.83c-7.834 0-13.73-3.19-17.687-9.56-3.877-6.37-5.816-16.45-5.816-30.24v-83.25h10.904v81.86c0 9.15.928 16.04 2.786 20.68 1.858 4.52 5.21 6.78 10.056 6.78 5.007 0 8.399-2.32 10.176-6.96 1.858-4.75 2.786-11.58 2.786-20.5v-81.86h10.904v83.25c0 13.55-2.019 23.58-6.058 30.06-4.038 6.49-10.055 9.74-18.051 9.74z" fill="#fff"/><path d="m850.809 1498.78v13.38h-18.657v107.06h-10.904v-107.06h-18.657v-13.38z" fill="#fff"/><path d="m931.468 1621.83c-7.835 0-13.73-3.19-17.688-9.56-3.877-6.37-5.815-16.45-5.815-30.24v-83.25h10.903v81.86c0 9.15.929 16.04 2.787 20.68 1.857 4.52 5.209 6.78 10.055 6.78 5.008 0 8.4-2.32 10.177-6.96 1.857-4.75 2.786-11.58 2.786-20.5v-81.86h10.903v83.25c0 13.55-2.019 23.58-6.057 30.06-4.038 6.49-10.056 9.74-18.051 9.74z" fill="#fff"/><path d="m1021.22 1500.52c5.65-1.97 11.1-2.96 16.35-2.96 4.2 0 8 .7 11.39 2.09s6.3 3.59 8.72 6.6c2.43 3.02 4.28 6.9 5.58 11.65 1.37 4.75 2.06 10.48 2.06 17.2 0 8.35-1.13 15.12-3.4 20.34-2.18 5.1-5.16 8.98-8.96 11.64.97 2.32 2.18 5.5 3.63 9.56 1.54 3.94 3.07 8.34 4.61 13.21 1.61 4.75 3.15 9.67 4.6 14.77 1.54 5.1 2.83 9.96 3.88 14.6h-10.91c-.88-3.48-2.01-7.42-3.39-11.82-1.29-4.4-2.66-8.75-4.12-13.03-1.45-4.41-2.9-8.58-4.36-12.52-1.45-4.05-2.74-7.47-3.87-10.25-1.3.23-2.63.41-4 .52-1.38.12-2.75.18-4.12.18h-3.03v46.92h-10.66zm10.66 58.91h4.6c5.58 0 9.86-1.79 12.84-5.38 2.99-3.71 4.49-10.03 4.49-18.95 0-4.52-.41-8.28-1.21-11.29-.73-3.13-1.82-5.56-3.28-7.3-1.37-1.86-3.06-3.19-5.08-4-1.94-.81-4.12-1.22-6.55-1.22-2.1 0-4.03.18-5.81.53z" fill="#fff"/><path d="m1129.49 1619.22v-120.44h37.67v13.38h-26.77v37.37h24.23v13.03h-24.23v43.28h28.71v13.38z" fill="#fff"/><path d="m1300.47 1498.78h10.91v120.44h-10.91z" fill="#fff"/><path d="m1388.16 1608.44c4.36 0 7.71-1.73 10.06-5.21 2.42-3.48 3.63-8.17 3.63-14.08 0-3.13-.36-5.91-1.09-8.34s-1.7-4.63-2.91-6.6c-1.13-1.97-2.46-3.77-3.99-5.39-1.54-1.62-3.11-3.24-4.73-4.87-1.86-1.85-3.8-3.82-5.81-5.91-2.02-2.08-3.88-4.51-5.58-7.3-1.61-2.78-2.95-6.02-4-9.73s-1.57-8.05-1.57-13.03c0-4.87.56-9.27 1.7-13.21 1.21-3.94 2.82-7.3 4.84-10.08 2.1-2.78 4.56-4.92 7.39-6.43 2.91-1.51 6.02-2.26 9.33-2.26 3.23 0 6.22.58 8.97 1.74 2.74 1.16 5.04 2.55 6.9 4.17l-3.39 12.34c-1.7-1.62-3.56-2.84-5.57-3.65-1.94-.93-4-1.39-6.18-1.39-3.96 0-7.15 1.56-9.57 4.69-2.35 3.01-3.52 7.47-3.52 13.38 0 3.25.37 6.09 1.09 8.52.81 2.43 1.82 4.63 3.03 6.6 1.29 1.97 2.75 3.77 4.36 5.39 1.7 1.62 3.48 3.3 5.33 5.04 1.86 1.74 3.76 3.65 5.7 5.74 1.94 2.08 3.67 4.51 5.21 7.29 1.61 2.67 2.9 5.86 3.87 9.56 1.05 3.6 1.58 7.88 1.58 12.86 0 4.52-.49 8.81-1.45 12.86-.97 4.06-2.51 7.65-4.61 10.78-2.02 3.01-4.6 5.45-7.75 7.3-3.07 1.74-6.71 2.61-10.91 2.61-3.87 0-7.26-.64-10.17-1.92-2.91-1.27-5.49-2.95-7.76-5.04l3.4-12.51c2.1 1.86 4.24 3.36 6.42 4.52 2.26 1.04 4.84 1.56 7.75 1.56z" fill="#fff"/><path d="m1552.89 1550.05h7.51c10.01 0 15.02-6.49 15.02-19.47 0-4.05-.44-7.35-1.33-9.9-.81-2.67-1.9-4.69-3.27-6.08-1.37-1.51-2.99-2.55-4.85-3.13-1.77-.58-3.67-.87-5.69-.87-1.21 0-2.47.06-3.76.17-1.21.12-2.42.29-3.63.52zm0 12.51v43.45c1.53.35 3.03.64 4.48.87 1.54.23 3.03.35 4.48.35 2.26 0 4.4-.35 6.42-1.05 2.02-.69 3.76-1.85 5.21-3.47 1.54-1.62 2.71-3.82 3.52-6.61.89-2.89 1.33-6.43 1.33-10.6 0-7.18-1.37-12.8-4.12-16.85-2.67-4.06-6.86-6.09-12.6-6.09zm-10.91-62.04c2.83-.93 5.7-1.62 8.61-2.09 2.98-.58 5.93-.87 8.84-.87 3.63 0 7.07.53 10.3 1.57 3.31.93 6.22 2.61 8.72 5.04 2.5 2.32 4.48 5.44 5.94 9.38 1.53 3.83 2.3 8.63 2.3 14.43 0 7.18-1.05 13.09-3.15 17.72-2.1 4.52-4.81 7.88-8.12 10.08 4.12 2.32 7.51 5.86 10.18 10.61 2.66 4.75 4 11.29 4 19.63 0 6.26-.73 11.53-2.18 15.82-1.38 4.29-3.36 7.82-5.94 10.6-2.59 2.67-5.69 4.64-9.33 5.91-3.55 1.16-7.47 1.74-11.75 1.74-2.83 0-5.78-.23-8.84-.7-3.07-.46-6.26-1.16-9.58-2.08z" fill="#fff"/><path d="m1651.2 1500.52c5.65-1.97 11.1-2.96 16.35-2.96 4.2 0 8 .7 11.39 2.09s6.3 3.59 8.72 6.6c2.43 3.02 4.29 6.9 5.58 11.65 1.37 4.75 2.06 10.48 2.06 17.2 0 8.35-1.13 15.12-3.4 20.34-2.18 5.1-5.16 8.98-8.96 11.64.97 2.32 2.18 5.5 3.63 9.56 1.54 3.94 3.07 8.34 4.61 13.21 1.61 4.75 3.15 9.67 4.6 14.77 1.54 5.1 2.83 9.96 3.88 14.6h-10.9c-.89-3.48-2.02-7.42-3.4-11.82-1.29-4.4-2.66-8.75-4.12-13.03-1.45-4.41-2.9-8.58-4.36-12.52-1.45-4.05-2.74-7.47-3.87-10.25-1.3.23-2.63.41-4 .52-1.38.12-2.75.18-4.12.18h-3.03v46.92h-10.66zm10.66 58.91h4.6c5.58 0 9.86-1.79 12.85-5.38 2.98-3.71 4.48-10.03 4.48-18.95 0-4.52-.41-8.28-1.21-11.29-.73-3.13-1.82-5.56-3.27-7.3-1.38-1.86-3.07-3.19-5.09-4-1.94-.81-4.12-1.22-6.55-1.22-2.09 0-4.03.18-5.81.53z" fill="#fff"/><path d="m1759.47 1498.78h10.9v120.44h-10.9z" fill="#fff"/><path d="m1833.22 1558.91c0-11.35.73-21.03 2.18-29.02 1.46-7.99 3.52-14.48 6.18-19.47 2.75-5.09 6.02-8.74 9.82-10.94 3.87-2.32 8.19-3.48 12.96-3.48 3.63 0 6.94.75 9.93 2.26 2.99 1.39 5.41 3.01 7.27 4.87l-3.39 13.03c-1.86-1.85-3.88-3.36-6.06-4.52-2.18-1.27-4.68-1.91-7.51-1.91-7.03 0-12.07 4.11-15.14 12.34-3.07 8.11-4.61 20.39-4.61 36.84 0 8.81.45 16.34 1.34 22.6.97 6.25 2.3 11.35 3.99 15.29 1.7 3.94 3.76 6.84 6.18 8.69 2.43 1.85 5.13 2.78 8.12 2.78 2.5 0 4.64-.41 6.42-1.22v-47.09h10.9v56.65c-2.18 1.51-4.88 2.78-8.11 3.83-3.23 1.04-6.63 1.56-10.18 1.56-4.36 0-8.4-1.22-12.11-3.65-3.72-2.55-6.95-6.37-9.7-11.47-2.66-5.21-4.76-11.76-6.3-19.64-1.45-7.99-2.18-17.44-2.18-28.33z" fill="#fff"/><path d="m1984.95 1498.78h10.9v120.44h-10.9v-55.96h-27.62v55.96h-10.91v-120.44h10.91v50.92h27.62z" fill="#fff"/><path d="m2102 1498.78v13.38h-18.66v107.06h-10.9v-107.06h-18.66v-13.38z" fill="#fff"/></mask><g clip-path="url(#a)"><path d="m0 0h2300v2990h-2300z" fill="#ef8ca9"/><path clip-rule="evenodd" d="m2170 594h-2040v2300h2040zm-2075-35v2370h2110v-2370z" fill="#000" fill-rule="evenodd"/><g clip-path="url(#b)" fill="#000"><path d="m1018.32 243.95v208.786h88.85v-362.736h-79.29l-91.809 135.003-92.703-134.8447h-78.661v362.6307h84.89v-210.475l84.943 126.085z"/><path d="m1562.34 452.683h-91.06l-22.86-72.726h-128.39l-27.35 73.201h-90.85l131.45-362.8413h99.78zm-222.25-136.745h86.1l-42.23-131.942z"/><path d="m426.52 452.736v-362.5249h218.137v72.8849h-127.598v67.924h120.735v69.982h-121.052v78.638h130.925v73.096z"/><path d="m1988.91 452.683v-362.5247h216.18v73.5187h-130.71v67.449h125.38v69.665h-125.33v78.374h135.57v73.518z"/><path d="m310.113 305.752h-121.422v147.09h-88.691v-362.6309h210.271v72.7799h-121.052v69.085h120.894z"/><path d="m1746.43 369.19h133.94v83.81h-223.32v-362.8417h89.38z"/></g><text fill="#000" font-family="PT Sans Narrow" font-size="144" font-weight="bold" letter-spacing="-.02em" xml:space="preserve"><tspan x="179" y="934.928">ON OUR </tspan><tspan x="179" y="1056.93">TREND LIST</tspan></text><svg height="7249" viewBox="0 0 1200 1800" width="4832" x="-1084" y="-482"/><text fill="#000" font-family="PT Sans Narrow" font-size="144" font-weight="bold" letter-spacing="-.02em" xml:space="preserve"><tspan x="179" y="2024.93">SPARK JOY IN </tspan><tspan x="179" y="2146.93">EVERYDAY </tspan><tspan x="179" y="2268.93">MAKEUP!</tspan></text><path clip-rule="evenodd" d="m1373.58 1603.87c-.2-.16-.4-.34-.59-.51l-.41 1.51c-.2-.16-.4-.34-.59-.51l-.41 1.51c-.2-.16-.4-.34-.59-.51l-.41 1.51c-.2-.16-.4-.34-.59-.51l-.41 1.51c-.2-.16-.4-.34-.59-.51l-.41 1.51c-.2-.16-.4-.34-.59-.51l-.41 1.51c-.2-.16-.4-.34-.59-.51l-.41 1.51c-.2-.16-.4-.34-.59-.51l-.41 1.51c-.2-.16-.4-.34-.59-.51l-.41 1.51c-.2-.16-.4-.34-.59-.51l-3.4 12.51c2.27 2.09 4.85 3.77 7.76 5.04 2.91 1.28 6.3 1.92 10.17 1.92 4.2 0 7.84-.87 10.91-2.61 1.99-1.17 3.76-2.58 5.3-4.21.34-.33.67-.66 1-1 .34-.33.67-.66 1-1 .34-.33.67-.66 1-1 .34-.33.67-.66 1-1 .34-.33.67-.66 1-1 .34-.33.67-.66 1-1 .34-.33.67-.66 1-1 .34-.33.67-.66 1-1 .34-.33.68-.66 1-1.01-1.29 1.22-2.73 2.29-4.3 3.22-3.07 1.74-6.71 2.61-10.91 2.61-3.87 0-7.26-.64-10.17-1.92-2.91-1.27-5.49-2.95-7.76-5.04zm24.64-.64c-1.89 2.79-4.42 4.46-7.6 5.01.82-2.61 1.23-5.64 1.23-9.09 0-3.13-.36-5.91-1.09-8.34s-1.7-4.63-2.91-6.6c-1.13-1.97-2.46-3.77-3.99-5.39-1.54-1.62-3.11-3.24-4.73-4.87-1.86-1.85-3.8-3.82-5.81-5.91-2.02-2.08-3.88-4.51-5.58-7.3-1.61-2.78-2.95-6.02-4-9.73s-1.57-8.05-1.57-13.03c0-4.87.56-9.27 1.7-13.21 1.21-3.94 2.82-7.3 4.84-10.08.86-1.14 1.79-2.18 2.77-3.11.33-.34.67-.68 1.01-1 .32-.34.66-.68 1-1 .32-.34.66-.68 1-1 .32-.34.65-.68 1-1 .32-.34.65-.68 1-1 .32-.34.66-.68 1-1 .32-.34.66-.68 1-1 .32-.34.66-.68 1-1 .32-.34.65-.67.99-.99-.61.65-1.2 1.35-1.77 2.1-2.02 2.78-3.63 6.14-4.84 10.08-1.14 3.94-1.7 8.34-1.7 13.21 0 4.98.52 9.32 1.57 13.03s2.39 6.95 4 9.73c1.7 2.79 3.56 5.22 5.58 7.3 2.01 2.09 3.95 4.06 5.81 5.91 1.62 1.62 3.19 3.25 4.73 4.87 1.53 1.62 2.86 3.42 3.99 5.39 1.21 1.97 2.18 4.17 2.91 6.6s1.09 5.21 1.09 8.34c0 5.91-1.21 10.6-3.63 14.08zm4.12-92.63c1.79.72 3.45 1.76 4.99 3.12l-.42 1.53c-.19-.18-.39-.36-.58-.53l-.42 1.53c-.19-.18-.39-.36-.58-.53l-.42 1.53c-.19-.18-.39-.36-.58-.53l-.42 1.53c-.19-.18-.39-.36-.58-.53l-.42 1.53c-.19-.18-.39-.36-.58-.53l-.42 1.53c-.19-.18-.39-.36-.58-.53l-.42 1.53c-.19-.18-.39-.36-.58-.53l-.42 1.53c-.19-.18-.39-.36-.58-.53l-.42 1.53c-.19-.18-.39-.36-.58-.53l-.42 1.53c-1.7-1.62-3.56-2.84-5.57-3.65-1.94-.93-4-1.39-6.18-1.39-.75 0-1.48.05-2.17.17.58-2.18 1.45-4 2.6-5.48 2.42-3.13 5.61-4.69 9.57-4.69 2.18 0 4.24.46 6.18 1.39zm-381.12-9.42c-.33.11-.67.22-1 .34v.66c-.33.11-.67.22-1 .34v.66c-.33.11-.67.22-1 .34v.66c-.33.11-.67.22-1 .34v.66c-.33.11-.67.22-1 .34v.66c-.33.11-.67.22-1 .34v.66c-.33.11-.67.22-1 .34v.66c-.33.11-.67.22-1 .34v.66c-.33.11-.67.22-1 .34v.66c-.33.11-.67.22-1 .34v118.7h10.66v-1h1v-1h1v-1h1v-1h1v-1h1v-1h1v-1h1v-1h1v-1h1v-1h-9.66zm10.66 80.61c.38-.06.77-.12 1.15-.19 1.13 2.78 2.42 6.2 3.87 10.25 1.46 3.94 2.91 8.11 4.36 12.52 1.46 4.28 2.83 8.63 4.12 13.03 1.38 4.4 2.51 8.34 3.39 11.82h10.91c-.08-.33-.15-.67-.23-1h1.23c-.08-.33-.15-.67-.23-1h1.23c-.08-.33-.15-.67-.23-1h1.23c-.08-.33-.15-.67-.23-1h1.23c-.08-.33-.15-.67-.23-1h1.23c-.08-.33-.15-.67-.23-1h1.23c-.08-.33-.15-.67-.23-1h1.23c-.08-.33-.15-.67-.23-1h1.23c-.08-.33-.15-.67-.23-1h1.23c-.08-.33-.15-.67-.23-1h-9.68c-.88-3.48-2.01-7.42-3.39-11.82-1.29-4.4-2.66-8.75-4.12-13.03-1.45-4.41-2.9-8.58-4.36-12.52-1.45-4.05-2.74-7.47-3.87-10.25-1.3.23-2.63.41-4 .52-1.38.12-2.75.17-4.12.17h-3.03zm21.22-14.37c-.05-.12-.09-.23-.14-.34.87-.61 1.7-1.29 2.49-2.03-.33.35-.66.68-1 1-.33.35-.66.68-1 1-.12.13-.23.25-.35.37zm-11.02-8.71c1.15-3.53 1.73-8.06 1.73-13.61 0-4.52-.41-8.28-1.21-11.29-.73-3.13-1.82-5.56-3.28-7.3-1.37-1.86-3.06-3.19-5.08-4-.75-.31-1.54-.57-2.36-.76v-9.94c1.78-.34 3.71-.52 5.81-.52 2.43 0 4.61.41 6.55 1.22 2.02.81 3.71 2.14 5.08 4 1.46 1.74 2.55 4.17 3.28 7.3.8 3.01 1.21 6.77 1.21 11.29 0 8.92-1.5 15.24-4.49 18.95-1.89 2.28-4.31 3.83-7.24 4.66zm-834.08-58.93v12.38h18.657v107.06h9.903v1h-1v1h-1v1h-1v1h-1v1h-1v1h-1v1h-1v1h-1v1h-1v1h-10.903v-107.06h-18.657v-13.38h1v-1h1v-1h1v-1h1v-1h1v-1h1v-1h1v-1h1v-1h1v-1zm29.56 22.38h8.657v-1h1v-1h1v-1h1v-1h1v-1h1v-1h1v-1h1v-1h1v-1h1v-1h-17.657zm115.066-22.38h-1v1h-1v1h-1v1h-1v1h-1v1h-1v1h-1v1h-1v1h-1v1h-1v40.92h10zm-38.526 0h-1v1h-1v1h-1v1h-1v1h-1v1h-1v1h-1v1h-1v1h-1v1h-1v120.44h10.904v-1h1v-1h1v-1h1v-1h1v-1h1v-1h1v-1h1v-1h1v-1h1v-1h-9.904zm10.904 73.48v-10h27.622v55.96h9.903v1h-1v1h-1v1h-1v1h-1v1h-1v1h-1v1h-1v1h-1v1h-1v1h-10.903v-55.96zm104.935-73.48v119.44h38.616v1h-1v1h-1v1h-1v1h-1v1h-1v1h-1v1h-1v1h-1v1h-1v1h-39.616v-120.44h1v-1h1v-1h1v-1h1v-1h1v-1h1v-1h1v-1h1v-1h1v-1zm36.678 12.38h-25.774v10h16.774v-1h1v-1h1v-1h1v-1h1v-1h1v-1h1v-1h1v-1h1v-1h1zm-2.544 50.4h-23.23v10h14.23v-1h1v-1h1v-1h1v-1h1v-1h1v-1h1v-1h1v-1h1v-1h1zm136.852-62.78h-1v1h-1v1h-1v1h-1v1h-1v1h-1v1h-1v1h-1v1h-1v1h-1v120.44h10.904v-1h1v-1h1v-1h1v-1h1v-1h1v-1h1v-1h1v-1h1v-1h1v-1h-9.904zm10.904 73.3h13.745v-1h1v-1h1v-1h1v-1h1v-1h1v-1h1v-1h1v-1h1v-1h1v-1h-22.745zm0-50.92v-10h25.774v1h-1v1h-1v1h-1v1h-1v1h-1v1h-1v1h-1v1h-1v1h-1v1zm91.805 90.11c3.957 6.37 9.853 9.56 17.687 9.56 5.854 0 10.647-1.74 14.379-5.22-.325.35-.659.68-1.002 1-.325.35-.658.68-1 1-.325.35-.658.68-1 1-.325.35-.658.68-1 1-.325.35-.658.68-1 1-.325.35-.658.68-1 1-.325.35-.658.68-1 1-.325.35-.658.68-1 1-.324.35-.657.68-.999 1-3.863 4.14-8.988 6.22-15.378 6.22-7.834 0-13.73-3.19-17.687-9.56-3.877-6.37-5.816-16.45-5.816-30.24v-83.25h1v-1h1v-1h1v-1h1v-1h1v-1h1v-1h1v-1h1v-1h1v-1h1v82.25c0 13.78 1.939 23.86 5.816 30.24zm30.892-112.49h-1v1h-1v1h-1v1h-1v1h-1v1h-1v1h-1v1h-1v1h-1v1h-1v81.86c0 7.14-.595 12.94-1.785 17.41 4.366-.34 7.365-2.64 8.999-6.91 1.858-4.75 2.786-11.58 2.786-20.5zm68.065 0v12.38h18.657v107.06h9.904v1h-1v1h-1v1h-1v1h-1v1h-1v1h-1v1h-1v1h-1v1h-1v1h-10.904v-107.06h-18.657v-13.38h1v-1h1v-1h1v-1h1v-1h1v-1h1v-1h1v-1h1v-1h1v-1zm29.561 22.38h8.657v-1h1v-1h1v-1h1v-1h1v-1h1v-1h1v-1h1v-1h1v-1h1v-1h-17.657zm81.628 90.11c3.957 6.37 9.853 9.56 17.688 9.56 5.853 0 10.646-1.74 14.379-5.22-.326.35-.66.68-1.003 1-.324.35-.658.68-1 1-.324.35-.658.68-1 1-.324.35-.658.68-1 1-.324.35-.658.68-1 1-.324.35-.657.68-1 1-.324.35-.658.68-1 1-.324.35-.658.68-1 1-.324.35-.657.68-.999 1-3.862 4.14-8.988 6.22-15.377 6.22-7.835 0-13.731-3.19-17.688-9.56-3.877-6.37-5.815-16.45-5.815-30.24v-83.25h1v-1h1v-1h1v-1h1v-1h1v-1h1v-1h1v-1h1v-1h1v-1h1v82.25c0 13.78 1.938 23.86 5.815 30.24zm30.893-112.49h-1v1h-1v1h-1v1h-1v1h-1v1h-1v1h-1v1h-1v1h-1v1h-1v81.86c0 7.14-.595 12.94-1.785 17.41 4.365-.34 7.365-2.64 8.999-6.91 1.857-4.75 2.786-11.58 2.786-20.5zm184.817 0v119.44h38.61v1h-1v1h-1v1h-1v1h-1v1h-1v1h-1v1h-1v1h-1v1h-1v1h-39.61v-120.44h1v-1h1v-1h1v-1h1v-1h1v-1h1v-1h1v-1h1v-1h1v-1zm36.67 12.38h-25.77v10h16.77v-1h1v-1h1v-1h1v-1h1v-1h1v-1h1v-1h1v-1h1v-1h1zm-2.54 50.4h-23.23v10h14.23v-1h1v-1h1v-1h1v-1h1v-1h1v-1h1v-1h1v-1h1v-1h1zm136.85-62.78v119.44h9.91v1h-1v1h-1v1h-1v1h-1v1h-1v1h-1v1h-1v1h-1v1h-1v1h-10.91v-120.44h1v-1h1v-1h1v-1h1v-1h1v-1h1v-1h1v-1h1v-1h1v-1zm263.86 49.88c.73-2.55 1.09-5.58 1.09-9.08 0-4.05-.44-7.35-1.33-9.9-.81-2.67-1.9-4.69-3.27-6.08-1.37-1.51-2.99-2.55-4.85-3.13-.99-.33-2.02-.56-3.08-.7v-9.48c1.21-.23 2.42-.4 3.63-.52 1.29-.11 2.55-.17 3.76-.17 2.02 0 3.92.29 5.69.87 1.86.58 3.48 1.62 4.85 3.13 1.37 1.39 2.46 3.41 3.27 6.08.89 2.55 1.33 5.85 1.33 9.9 0 11.15-3.7 17.51-11.09 19.08zm-11.44 22.94c5.08.28 8.86 2.3 11.32 6.05 2.75 4.05 4.12 9.67 4.12 16.85 0 4.17-.44 7.71-1.33 10.6-.05.18-.1.35-.16.51.49-.12.96-.26 1.43-.43 2.02-.69 3.76-1.85 5.21-3.47 1.54-1.62 2.71-3.82 3.52-6.61.89-2.89 1.33-6.43 1.33-10.6 0-7.18-1.37-12.8-4.12-16.85-2.66-4.06-6.86-6.09-12.6-6.09h-8.72zm-10.91-71.4v116.11c3.32.92 6.51 1.62 9.58 2.08 3.06.47 6.01.7 8.84.7 4.28 0 8.2-.58 11.75-1.74 3.26-1.14 6.09-2.84 8.5-5.1-.06.07-.11.13-.17.19-.27.28-.55.55-.83.82-.06.06-.11.12-.17.18-.27.28-.55.55-.83.82-.06.06-.11.12-.17.18-.27.28-.55.55-.83.82-.06.06-.11.12-.17.18-.27.28-.55.55-.83.82-.06.06-.11.12-.17.18-.27.28-.55.55-.83.82-.06.06-.11.12-.17.18-.27.28-.55.55-.83.82-.06.06-.11.12-.17.18-.27.28-.55.55-.83.82-.06.06-.11.12-.17.18-.27.28-.55.55-.83.82-.06.06-.11.12-.17.18-.27.28-.55.55-.83.82-.06.06-.11.12-.17.18-2.59 2.67-5.69 4.64-9.33 5.91-3.55 1.16-7.47 1.74-11.75 1.74-2.83 0-5.78-.23-8.84-.7-3.07-.46-6.26-1.16-9.58-2.08v-116.79c.34-.11.67-.22 1-.32v-.68c.34-.11.67-.22 1-.32v-.68c.34-.11.67-.22 1-.32v-.68c.34-.11.67-.22 1-.32v-.68c.34-.11.67-.22 1-.32v-.68c.34-.11.67-.22 1-.32v-.68c.34-.11.67-.22 1-.32v-.68c.34-.11.67-.22 1-.32v-.68c.34-.11.67-.22 1-.32v-.68c.34-.11.67-.22 1-.32zm33.77 54.77c.04-.04.07-.08.11-.12.34-.32.68-.65 1-1 .34-.32.68-.65 1-1-.77.72-1.58 1.37-2.44 1.93.11.07.22.13.33.19zm75.45-54.79c-.33.11-.67.22-1 .34v.66c-.33.11-.67.22-1 .34v.66c-.33.11-.67.22-1 .34v.66c-.33.11-.67.22-1 .34v.66c-.33.11-.67.22-1 .34v.66c-.33.11-.67.22-1 .34v.66c-.33.11-.67.22-1 .34v.66c-.33.11-.67.22-1 .34v.66c-.33.11-.67.22-1 .34v.66c-.33.11-.67.22-1 .34v118.7h10.66v-1h1v-1h1v-1h1v-1h1v-1h1v-1h1v-1h1v-1h1v-1h1v-1h-9.66zm10.66 80.61c.39-.06.77-.12 1.15-.19 1.13 2.78 2.42 6.2 3.87 10.25 1.46 3.94 2.91 8.11 4.36 12.52 1.46 4.28 2.83 8.63 4.12 13.03 1.38 4.4 2.51 8.34 3.4 11.82h10.9c-.08-.33-.15-.67-.23-1h1.23c-.08-.33-.15-.67-.23-1h1.23l-.08-.36c-.05-.21-.1-.43-.15-.64h1.23c-.08-.33-.15-.67-.23-1h1.23c-.08-.33-.15-.67-.23-1h1.23c-.08-.33-.15-.67-.23-1h1.23c-.08-.33-.15-.67-.23-1h1.23c-.08-.33-.15-.67-.23-1h1.23c-.08-.33-.15-.67-.23-1h1.23c-.08-.33-.15-.67-.23-1h-9.67c-.89-3.48-2.02-7.42-3.4-11.82-1.29-4.4-2.66-8.75-4.12-13.03-1.45-4.41-2.9-8.58-4.36-12.52-1.45-4.05-2.74-7.47-3.87-10.25-1.3.23-2.63.41-4 .52-1.38.12-2.75.17-4.12.17h-3.03zm21.22-14.37c.12-.12.23-.24.35-.37.34-.32.67-.65 1-1 .34-.32.67-.65 1-1-.79.74-1.62 1.42-2.49 2.03.05.11.09.22.14.34zm-21.22-45.67c.82.19 1.61.45 2.36.76 2.02.81 3.71 2.14 5.09 4 1.45 1.74 2.54 4.17 3.27 7.3.8 3.01 1.21 6.77 1.21 11.29 0 5.55-.58 10.08-1.73 13.61 2.93-.83 5.35-2.38 7.25-4.66 2.98-3.71 4.48-10.03 4.48-18.95 0-4.52-.41-8.28-1.21-11.29-.73-3.13-1.82-5.56-3.27-7.3-1.38-1.86-3.07-3.19-5.09-4-1.94-.81-4.12-1.22-6.55-1.22-2.09 0-4.03.18-5.81.52zm97.61-21.97v119.44h9.9v1h-1v1h-1v1h-1v1h-1v1h-1v1h-1v1h-1v1h-1v1h-1v1h-10.9v-120.44h1v-1h1v-1h1v-1h1v-1h1v-1h1v-1h1v-1h1v-1h1v-1zm75.93 30.11c-1.45 7.99-2.18 17.67-2.18 29.02 0 10.89.73 20.34 2.18 28.33 1.54 7.88 3.64 14.43 6.3 19.64 2.75 5.1 5.98 8.92 9.7 11.47 3.71 2.43 7.75 3.65 12.11 3.65 3.55 0 6.95-.52 10.18-1.56 2.75-.89 5.12-1.95 7.11-3.18v.35c-.32.22-.65.44-1 .65v.35c-.32.22-.65.44-1 .65v.35c-.32.22-.65.44-1 .65v.35c-.32.22-.65.44-1 .65v.35c-.32.22-.65.44-1 .65v.35c-.32.22-.65.44-1 .65v.35c-.32.22-.65.44-1 .65v.35c-.32.22-.65.44-1 .65v.35c-.32.22-.65.44-1 .65v.35c-2.18 1.51-4.88 2.78-8.11 3.83-3.23 1.04-6.63 1.56-10.18 1.56-4.36 0-8.4-1.22-12.11-3.65-3.72-2.55-6.95-6.37-9.7-11.47-2.66-5.21-4.76-11.76-6.3-19.64-1.45-7.99-2.18-17.44-2.18-28.33 0-11.35.73-21.03 2.18-29.02 1.46-7.99 3.52-14.48 6.18-19.47 1.77-3.28 3.77-5.97 5.97-8.05.33-.35.67-.69 1.01-1.01.32-.34.66-.68 1-1 .32-.34.66-.68 1-1 .32-.34.66-.68 1-1 .32-.34.66-.68.99-1 .33-.34.67-.68 1.01-1 .32-.34.66-.68 1-1 .32-.34.66-.68 1-1 .32-.34.65-.67.99-.99-1.81 1.92-3.47 4.27-4.97 7.05-2.66 4.99-4.72 11.47-6.18 19.47zm42.18-14.3c-1.69-1.6-3.52-2.91-5.47-3.95-2.18-1.27-4.68-1.91-7.51-1.91-6.52 0-11.34 3.54-14.45 10.63 1.38-.42 2.87-.63 4.45-.63 2.83 0 5.33.64 7.51 1.91 2.18 1.16 4.2 2.67 6.06 4.52l.41-1.57c.2.18.39.38.59.57l.41-1.57c.2.18.39.38.59.57l.41-1.57c.2.18.39.38.59.57l.41-1.57c.2.18.39.38.59.57l.41-1.57c.2.18.39.38.59.57l.41-1.57c.2.18.39.38.59.57l.41-1.57c.2.18.39.38.59.57l.41-1.57c.2.18.39.38.59.57l.41-1.57c.2.18.39.38.59.57zm-16.68 92.2c1.14.32 2.34.48 3.58.48 2.5 0 4.64-.41 6.42-1.22v-46.09h-1v1h-1v1h-1v1h-1v1h-1v1h-1v1h-1v1h-1v1h-1v1h-1zm124.05-108.01h-1v1h-1v1h-1v1h-1v1h-1v1h-1v1h-1v1h-1v1h-1v1h-1v40.92h10zm-38.53 0h-1v1h-1v1h-1v1h-1v1h-1v1h-1v1h-1v1h-1v1h-1v1h-1v120.44h10.91v-1h1v-1h1v-1h1v-1h1v-1h1v-1h1v-1h1v-1h1v-1h1v-1h-9.91zm10.91 73.48v-10h27.62v55.96h9.9v1h-1v1h-1v1h-1v1h-1v1h-1v1h-1v1h-1v1h-1v1h-1v1h-10.9v-55.96zm96.45-73.48h-1v1h-1v1h-1v1h-1v1h-1v1h-1v1h-1v1h-1v1h-1v1h-1v13.38h18.66v107.06h10.9v-1h1v-1h1v-1h1v-1h1v-1h1v-1h1v-1h1v-1h1v-1h1v-1h-9.9v-107.06h-18.66zm29.56 22.38h8.66v-1h1v-1h1v-1h1v-1h1v-1h1v-1h1v-1h1v-1h1v-1h1v-1h-17.66z" fill="#000" fill-rule="evenodd"/><g stroke="#000" stroke-width="4"><path d="m256.217 1498.78v13.38h-18.657v107.06h-10.903v-107.06h-18.657v-13.38z" mask="url(#c)"/><path d="m352.626 1498.78h10.903v120.44h-10.903v-55.96h-27.622v55.96h-10.904v-120.44h10.904v50.92h27.622z" mask="url(#c)"/><path d="m429.939 1619.22v-120.44h37.678v13.38h-26.774v37.37h24.23v13.03h-24.23v43.28h28.712v13.38z" mask="url(#c)"/><path d="m600.925 1619.22v-120.44h37.678v13.38h-26.774v37.89h23.745v13.03h-23.745v56.14z" mask="url(#c)"/><path d="m721.321 1621.83c-7.834 0-13.73-3.19-17.687-9.56-3.877-6.37-5.816-16.45-5.816-30.24v-83.25h10.904v81.86c0 9.15.928 16.04 2.786 20.68 1.858 4.52 5.21 6.78 10.056 6.78 5.007 0 8.399-2.32 10.176-6.96 1.858-4.75 2.786-11.58 2.786-20.5v-81.86h10.904v83.25c0 13.55-2.019 23.58-6.058 30.06-4.038 6.49-10.055 9.74-18.051 9.74z" mask="url(#c)"/><path d="m850.809 1498.78v13.38h-18.657v107.06h-10.904v-107.06h-18.657v-13.38z" mask="url(#c)"/><path d="m931.468 1621.83c-7.835 0-13.73-3.19-17.688-9.56-3.877-6.37-5.815-16.45-5.815-30.24v-83.25h10.903v81.86c0 9.15.929 16.04 2.787 20.68 1.857 4.52 5.209 6.78 10.055 6.78 5.008 0 8.4-2.32 10.177-6.96 1.857-4.75 2.786-11.58 2.786-20.5v-81.86h10.903v83.25c0 13.55-2.019 23.58-6.057 30.06-4.038 6.49-10.056 9.74-18.051 9.74z" mask="url(#c)"/><path d="m1021.22 1500.52c5.65-1.97 11.1-2.96 16.35-2.96 4.2 0 8 .7 11.39 2.09s6.3 3.59 8.72 6.6c2.43 3.02 4.28 6.9 5.58 11.65 1.37 4.75 2.06 10.48 2.06 17.2 0 8.35-1.13 15.12-3.4 20.34-2.18 5.1-5.16 8.98-8.96 11.64.97 2.32 2.18 5.5 3.63 9.56 1.54 3.94 3.07 8.34 4.61 13.21 1.61 4.75 3.15 9.67 4.6 14.77 1.54 5.1 2.83 9.96 3.88 14.6h-10.91c-.88-3.48-2.01-7.42-3.39-11.82-1.29-4.4-2.66-8.75-4.12-13.03-1.45-4.41-2.9-8.58-4.36-12.52-1.45-4.05-2.74-7.47-3.87-10.25-1.3.23-2.63.41-4 .52-1.38.12-2.75.18-4.12.18h-3.03v46.92h-10.66zm10.66 58.91h4.6c5.58 0 9.86-1.79 12.84-5.38 2.99-3.71 4.49-10.03 4.49-18.95 0-4.52-.41-8.28-1.21-11.29-.73-3.13-1.82-5.56-3.28-7.3-1.37-1.86-3.06-3.19-5.08-4-1.94-.81-4.12-1.22-6.55-1.22-2.1 0-4.03.18-5.81.53z" mask="url(#c)"/><path d="m1129.49 1619.22v-120.44h37.67v13.38h-26.77v37.37h24.23v13.03h-24.23v43.28h28.71v13.38z" mask="url(#c)"/><path d="m1300.47 1498.78h10.91v120.44h-10.91z" mask="url(#c)"/><path d="m1388.16 1608.44c4.36 0 7.71-1.73 10.06-5.21 2.42-3.48 3.63-8.17 3.63-14.08 0-3.13-.36-5.91-1.09-8.34s-1.7-4.63-2.91-6.6c-1.13-1.97-2.46-3.77-3.99-5.39-1.54-1.62-3.11-3.24-4.73-4.87-1.86-1.85-3.8-3.82-5.81-5.91-2.02-2.08-3.88-4.51-5.58-7.3-1.61-2.78-2.95-6.02-4-9.73s-1.57-8.05-1.57-13.03c0-4.87.56-9.27 1.7-13.21 1.21-3.94 2.82-7.3 4.84-10.08 2.1-2.78 4.56-4.92 7.39-6.43 2.91-1.51 6.02-2.26 9.33-2.26 3.23 0 6.22.58 8.97 1.74 2.74 1.16 5.04 2.55 6.9 4.17l-3.39 12.34c-1.7-1.62-3.56-2.84-5.57-3.65-1.94-.93-4-1.39-6.18-1.39-3.96 0-7.15 1.56-9.57 4.69-2.35 3.01-3.52 7.47-3.52 13.38 0 3.25.37 6.09 1.09 8.52.81 2.43 1.82 4.63 3.03 6.6 1.29 1.97 2.75 3.77 4.36 5.39 1.7 1.62 3.48 3.3 5.33 5.04 1.86 1.74 3.76 3.65 5.7 5.74 1.94 2.08 3.67 4.51 5.21 7.29 1.61 2.67 2.9 5.86 3.87 9.56 1.05 3.6 1.58 7.88 1.58 12.86 0 4.52-.49 8.81-1.45 12.86-.97 4.06-2.51 7.65-4.61 10.78-2.02 3.01-4.6 5.45-7.75 7.3-3.07 1.74-6.71 2.61-10.91 2.61-3.87 0-7.26-.64-10.17-1.92-2.91-1.27-5.49-2.95-7.76-5.04l3.4-12.51c2.1 1.86 4.24 3.36 6.42 4.52 2.26 1.04 4.84 1.56 7.75 1.56z" mask="url(#c)"/><path d="m1552.89 1550.05h7.51c10.01 0 15.02-6.49 15.02-19.47 0-4.05-.44-7.35-1.33-9.9-.81-2.67-1.9-4.69-3.27-6.08-1.37-1.51-2.99-2.55-4.85-3.13-1.77-.58-3.67-.87-5.69-.87-1.21 0-2.47.06-3.76.17-1.21.12-2.42.29-3.63.52zm0 12.51v43.45c1.53.35 3.03.64 4.48.87 1.54.23 3.03.35 4.48.35 2.26 0 4.4-.35 6.42-1.05 2.02-.69 3.76-1.85 5.21-3.47 1.54-1.62 2.71-3.82 3.52-6.61.89-2.89 1.33-6.43 1.33-10.6 0-7.18-1.37-12.8-4.12-16.85-2.67-4.06-6.86-6.09-12.6-6.09zm-10.91-62.04c2.83-.93 5.7-1.62 8.61-2.09 2.98-.58 5.93-.87 8.84-.87 3.63 0 7.07.53 10.3 1.57 3.31.93 6.22 2.61 8.72 5.04 2.5 2.32 4.48 5.44 5.94 9.38 1.53 3.83 2.3 8.63 2.3 14.43 0 7.18-1.05 13.09-3.15 17.72-2.1 4.52-4.81 7.88-8.12 10.08 4.12 2.32 7.51 5.86 10.18 10.61 2.66 4.75 4 11.29 4 19.63 0 6.26-.73 11.53-2.18 15.82-1.38 4.29-3.36 7.82-5.94 10.6-2.59 2.67-5.69 4.64-9.33 5.91-3.55 1.16-7.47 1.74-11.75 1.74-2.83 0-5.78-.23-8.84-.7-3.07-.46-6.26-1.16-9.58-2.08z" mask="url(#c)"/><path d="m1651.2 1500.52c5.65-1.97 11.1-2.96 16.35-2.96 4.2 0 8 .7 11.39 2.09s6.3 3.59 8.72 6.6c2.43 3.02 4.29 6.9 5.58 11.65 1.37 4.75 2.06 10.48 2.06 17.2 0 8.35-1.13 15.12-3.4 20.34-2.18 5.1-5.16 8.98-8.96 11.64.97 2.32 2.18 5.5 3.63 9.56 1.54 3.94 3.07 8.34 4.61 13.21 1.61 4.75 3.15 9.67 4.6 14.77 1.54 5.1 2.83 9.96 3.88 14.6h-10.9c-.89-3.48-2.02-7.42-3.4-11.82-1.29-4.4-2.66-8.75-4.12-13.03-1.45-4.41-2.9-8.58-4.36-12.52-1.45-4.05-2.74-7.47-3.87-10.25-1.3.23-2.63.41-4 .52-1.38.12-2.75.18-4.12.18h-3.03v46.92h-10.66zm10.66 58.91h4.6c5.58 0 9.86-1.79 12.85-5.38 2.98-3.71 4.48-10.03 4.48-18.95 0-4.52-.41-8.28-1.21-11.29-.73-3.13-1.82-5.56-3.27-7.3-1.38-1.86-3.07-3.19-5.09-4-1.94-.81-4.12-1.22-6.55-1.22-2.09 0-4.03.18-5.81.53z" mask="url(#c)"/><path d="m1759.47 1498.78h10.9v120.44h-10.9z" mask="url(#c)"/><path d="m1833.22 1558.91c0-11.35.73-21.03 2.18-29.02 1.46-7.99 3.52-14.48 6.18-19.47 2.75-5.09 6.02-8.74 9.82-10.94 3.87-2.32 8.19-3.48 12.96-3.48 3.63 0 6.94.75 9.93 2.26 2.99 1.39 5.41 3.01 7.27 4.87l-3.39 13.03c-1.86-1.85-3.88-3.36-6.06-4.52-2.18-1.27-4.68-1.91-7.51-1.91-7.03 0-12.07 4.11-15.14 12.34-3.07 8.11-4.61 20.39-4.61 36.84 0 8.81.45 16.34 1.34 22.6.97 6.25 2.3 11.35 3.99 15.29 1.7 3.94 3.76 6.84 6.18 8.69 2.43 1.85 5.13 2.78 8.12 2.78 2.5 0 4.64-.41 6.42-1.22v-47.09h10.9v56.65c-2.18 1.51-4.88 2.78-8.11 3.83-3.23 1.04-6.63 1.56-10.18 1.56-4.36 0-8.4-1.22-12.11-3.65-3.72-2.55-6.95-6.37-9.7-11.47-2.66-5.21-4.76-11.76-6.3-19.64-1.45-7.99-2.18-17.44-2.18-28.33z" mask="url(#c)"/><path d="m1984.95 1498.78h10.9v120.44h-10.9v-55.96h-27.62v55.96h-10.91v-120.44h10.91v50.92h27.62z" mask="url(#c)"/><path d="m2102 1498.78v13.38h-18.66v107.06h-10.9v-107.06h-18.66v-13.38z" mask="url(#c)"/></g><text fill="#000" font-family="PT Sans Narrow" font-size="320" font-weight="bold" letter-spacing="-.02em" xml:space="preserve"><tspan x="1269.94" y="2573.84">#SUPER </tspan><tspan x="1251.35" y="2845.84">WOMEN</tspan></text><text fill="#000" font-family="PT Sans Narrow" font-size="144" font-weight="bold" letter-spacing="-.02em" xml:space="preserve"><tspan x="1526.36" y="732.928">COVER GIRL: </tspan></text><text fill="#000" font-family="PT Sans Narrow" font-size="192" font-weight="bold" letter-spacing="-.02em"><tspan x="1420.76" y="895.928">&lt;&lt;NAME&gt;&gt;</tspan></text></g></svg>