<svg xmlns="http://www.w3.org/2000/svg" viewBox="0 0 1200 1800"><title>long-wavy-1</title><g style="isolation:isolate"><g id="hourglass"><g id="hair_back" data-name="hair back"><g id="long_wavy_1" data-name="long wavy 1"><g id="shading"><path d="M591.68,411.16c17.57,0,35.33-26.91,55.07-32.41,5.55-1.55,35.13-6.25,25.37-25.87,0,0,11.53,5.86,16.21,2.45-18.43-3.46-18.29-16.55-11.26-25.53,1.12,3.24,5.19,3.06,9.68,1.57-9.9.74-5.5-15.34-4.45-19.7,4.8-19.95,1.77-43.56-17.21-50.91,1.57-40.92-16.78-40.92-18.92-55.55-5.81-39.62-9.61-44.55-9.61-44.55s-13.38-28.84-60.45-28.83c-41.78,0-62.84,28.21-67.66,41.33-11.69,31.83,4.69,51-22.07,84.22-3.5,4.34-6.16,10.37-3.36,21.82,0,0-26.69,11.71-9.18,57.46-25.84,38.59,10,52.34,10.54,67.64-.32-13.23-17.62-25.18-4.79-51.55-7.22,29.13,7.78,42.88,22.61,48.39,1.93.71-21.16-16.06-2.32-58.39-18,46.3,7.7,59.52,9.92,60.53,9.65,4.35,36.23,1.08,45.18,1C565.43,404.1,574.1,411.16,591.68,411.16Z" style="fill:#4d4d4f"/></g><g id="shadow" style="opacity:0.1;mix-blend-mode:multiply"><path d="M507,271.5s-9.4,13.93-7.25,29.2c3.56,25.25-13.51,43.05-13.51,43.05s31.4-14.39,17.76-43.05C497.8,287.67,507,271.5,507,271.5Z" style="fill:#4e4e4f"/><path d="M522.21,276.51c-4.46,8.22-10.17,22.73-2.76,39.48s-10,40.76-10,40.76,12.15-8.28,12.72-15c0,12.28-4.63,17.65-8.85,28.66s-17.87,15.2-17.87,15.2,4.27,12.34,12,16.33c0,0,4,5,33.29,2.91,31.5-2.1,29.63,5.46,42.94,6.31s14.23,3,44.52-23.82,21.7-36.31,4.12-49.06c-1.92-1.4-.22,5.89-2.46,5.47-7.54-1.42-7.68-30.77-8.87-33s-5.14,23-6,20.49c-4.1-12.81-3-27.56-1.43-36.25,2.47-13.52-3.22-49.8-42.7-43S526.66,268.3,522.21,276.51Z" style="fill:#4e4e4f"/><path d="M491.5,295.75c2.5,10.54-1.45,16.41-3.75,20.24s-4.84-11.22-2.75-20.24S489,285.21,491.5,295.75Z" style="fill:#4e4e4f"/><path d="M653.45,287.78s-7.17,4.93-8.89,15.66,4.77,20.88,4.77,20.88-3.83-10.65-1.16-21.32S653.45,287.78,653.45,287.78Z" style="fill:#4e4e4f"/><path d="M648.26,246.33s5.19,33-22.42,43.64c13.35,5.7,22.42-14.77,22.42-24.37Z" style="fill:#4e4e4f"/><path d="M513.37,253.42s0-12,1.7-19.06c-7.64,10.22-9,16.47-7,27.06s14.13,15.09,14.13,15.09S513.33,270.17,513.37,253.42Z" style="fill:#4e4e4f"/></g><g id="dark_shadow" data-name="dark shadow" style="opacity:0.1;mix-blend-mode:multiply"><path d="M530.93,281.38c-3.22,24.67,1,18.09,1.19,31.64,2.93-1.34,2.29-2.26,2.29-2.26.24,2.62,2.59,22.41-3,38-10.78,30.23-11.32,60.75,17,68.25s58.81,2.81,70.06-5.84,14.94-38.91,0-58.41-12-54.13-12.5-70.64,3-23.78-30.27-23.32S532.85,266.63,530.93,281.38Z" style="fill:#4e4e4f"/></g><g id="stroke"><path d="M649.33,324.32a41.12,41.12,0,0,1-4.9-13.72,24.92,24.92,0,0,1,1.69-14.52,22.47,22.47,0,0,1,4.26-6.13,52.65,52.65,0,0,0,4.76-5.41,42.58,42.58,0,0,0,3.74-6.08,46.09,46.09,0,0,0,2.66-6.61,53.37,53.37,0,0,0,2.57-14c0-1.2.07-2.4.06-3.6s0-2.42-.14-3.59a28.92,28.92,0,0,0-1.49-6.92,101.43,101.43,0,0,0-5.77-13.27c-2.17-4.35-4.42-8.68-6.48-13.1q-1.56-3.32-2.92-6.73a44.26,44.26,0,0,1-2-7.09c-1-4.79-1.56-9.62-2.32-14.43a187.37,187.37,0,0,0-6.49-28.42,186.22,186.22,0,0,1,7,28.34c.85,4.79,1.53,9.62,2.58,14.34a44.18,44.18,0,0,0,2.08,6.92q1.41,3.35,3,6.61c2.13,4.36,4.44,8.63,6.7,12.95a102.94,102.94,0,0,1,6.1,13.37,30.85,30.85,0,0,1,1.71,7.29c.13,1.25.13,2.46.21,3.7s0,2.47,0,3.7a55.35,55.35,0,0,1-2.41,14.64,48.71,48.71,0,0,1-3,6.81,46,46,0,0,1-4.13,6.19,55.12,55.12,0,0,1-5.08,5.37,21.15,21.15,0,0,0-4.24,5.65,24.19,24.19,0,0,0-2.13,14A41.1,41.1,0,0,0,649.33,324.32Z" style="fill:#231f20"/><path d="M502.76,227.53a53,53,0,0,1-2.08,11.63,59.16,59.16,0,0,1-4.56,11c-2,3.42-4.27,6.66-6.5,9.89a48.1,48.1,0,0,0-5.77,10.13,16.12,16.12,0,0,0-1,5.66,15.37,15.37,0,0,0,1.18,5.66,19.08,19.08,0,0,0,3,5c1.21,1.54,2.54,3,3.87,4.43-1.37-1.4-2.75-2.81-4-4.32a19.83,19.83,0,0,1-3.2-5,15.8,15.8,0,0,1-1.38-5.79,16.66,16.66,0,0,1,.9-5.9,49,49,0,0,1,5.56-10.49c2.13-3.31,4.28-6.58,6.15-10a58.27,58.27,0,0,0,5.12-10.5A52.77,52.77,0,0,0,502.76,227.53Z" style="fill:#231f20"/><path d="M639.19,169.5a37.32,37.32,0,0,0-8.34-16A54.32,54.32,0,0,0,616.92,142a39.22,39.22,0,0,0-4-2.15l-2-1c-.68-.33-1.4-.56-2.1-.85-1.41-.53-2.79-1.15-4.23-1.6l-4.34-1.27a77.06,77.06,0,0,0-17.87-2.42c-1.5-.05-3-.18-4.51-.17l-4.52.17c-3,0-6,.45-9,.73a101.58,101.58,0,0,0-17.68,3.87,64.69,64.69,0,0,0-16.26,7.77,54.15,54.15,0,0,0-13.05,12.4,60,60,0,0,0-8.51,16,92.1,92.1,0,0,0-4.36,17.66c-1.8,12.05-1.78,24.29-1.68,36.47-.28-12.18-.48-24.42,1.15-36.54a93,93,0,0,1,4.14-17.86,60.8,60.8,0,0,1,8.4-16.31A55,55,0,0,1,529.61,144a65.74,65.74,0,0,1,16.51-8.19,102.42,102.42,0,0,1,17.93-4.21c3.06-.33,6.1-.8,9.18-.87l4.61-.24c1.54,0,3.08.07,4.62.1a79.66,79.66,0,0,1,18.21,3l4.4,1.43c1.45.5,2.84,1.18,4.26,1.76.71.31,1.43.57,2.11.93l2,1.09a39.33,39.33,0,0,1,4,2.3,54.8,54.8,0,0,1,13.78,12.1A37.5,37.5,0,0,1,639.19,169.5Z" style="fill:#231f20"/><path d="M671.08,273.6a26.38,26.38,0,0,1,6.55,5.6,33,33,0,0,1,4.72,7.25A37.93,37.93,0,0,1,684.68,312a40.38,40.38,0,0,1-3.14,8.12,61.17,61.17,0,0,1-4.55,7.38c-1.65,2.37-3.4,4.65-4.93,7.07s-2.84,5-2.86,7.87a10.41,10.41,0,0,0,3.26,7.57,18.34,18.34,0,0,0,7.37,4.21,23.52,23.52,0,0,0,8.5,1.09,23.73,23.73,0,0,1-8.54-.95,18.65,18.65,0,0,1-7.53-4.14,10.79,10.79,0,0,1-3.49-7.78c0-3,1.34-5.72,2.81-8.17s3.23-4.79,4.83-7.17a62.8,62.8,0,0,0,4.37-7.36,38.43,38.43,0,0,0,2.93-8,38,38,0,0,0,1-8.43,39.05,39.05,0,0,0-2.92-16.67,33.17,33.17,0,0,0-4.43-7.3A26.41,26.41,0,0,0,671.08,273.6Z" style="fill:#231f20"/><path d="M666.66,260.76a50.24,50.24,0,0,1,13.15,12.78,34.06,34.06,0,0,1,1.69,35.15A36,36,0,0,0,685,291a35.18,35.18,0,0,0-6.13-16.82A49.58,49.58,0,0,0,666.66,260.76Z" style="fill:#231f20"/><path d="M468.41,348.75a7.19,7.19,0,0,0,2.7-2.34,10.35,10.35,0,0,0,1.52-3.2,18.55,18.55,0,0,0,.47-7c0-.59-.18-1.18-.26-1.76s-.17-1.18-.33-1.75c-.32-1.16-.54-2.32-.93-3.45s-.74-2.27-1.17-3.38l-1.36-3.32a43,43,0,0,1-2.72-14.7,38,38,0,0,1,.88-7.44,36.64,36.64,0,0,1,2.47-7,42,42,0,0,1,8.64-11.91,50.92,50.92,0,0,1,11.74-8.66,50.85,50.85,0,0,0-11.23,9.15,41.13,41.13,0,0,0-7.86,12,32.1,32.1,0,0,0-2.51,13.87,40.56,40.56,0,0,0,3.23,13.72l1.08,3.56c.33,1.19.58,2.42.87,3.62s.41,2.46.62,3.68c.1.61.1,1.25.16,1.86s.12,1.24.09,1.87a19.35,19.35,0,0,1-1.21,7.35A9,9,0,0,1,468.41,348.75Z" style="fill:#231f20"/><path d="M482.05,408a6.16,6.16,0,0,0,2.1-4.26,12.47,12.47,0,0,0-.61-4.77,32.74,32.74,0,0,0-4.54-8.56l-3-3.91c-.49-.68-1-1.31-1.48-2l-1.37-2.08a48.9,48.9,0,0,1-4.36-9,43.58,43.58,0,0,1-1.34-19.9,55.36,55.36,0,0,1,6.73-18.65,47,47,0,0,1,5.73-8.09,81.77,81.77,0,0,0,5.8-7.9,56.42,56.42,0,0,0,4.64-8.63,26.49,26.49,0,0,0,2.26-9.51,26.74,26.74,0,0,1-2,9.61,57.33,57.33,0,0,1-4.44,8.82,82,82,0,0,1-5.63,8.11,45.69,45.69,0,0,0-5.42,8.11,54.24,54.24,0,0,0-6.09,18.36,41.81,41.81,0,0,0,1.8,19,46.17,46.17,0,0,0,3.7,8.88l1.22,2.1c.4.7.89,1.35,1.34,2l2.76,4.09a33.86,33.86,0,0,1,4.17,9,13.18,13.18,0,0,1,.37,5A6.31,6.31,0,0,1,482.05,408Z" style="fill:#231f20"/><path d="M571.82,407.63a91,91,0,0,0-10.64-1.6c-3.57-.34-7.15-.57-10.73-.64s-7.16-.08-10.74.07c-1.79.05-3.57.18-5.36.28l-5.41.25a88.35,88.35,0,0,1-21.59-2.49,27,27,0,0,1-2.62-.76l-2.6-.85-2.52-1.06c-.42-.18-.84-.34-1.26-.53l-1.21-.64a34.81,34.81,0,0,1-8.89-6.32,32,32,0,0,1-6.36-8.83,36.36,36.36,0,0,1-3.17-10.36,51,51,0,0,1,1.5-21.4,50.62,50.62,0,0,0-1,21.31,35.66,35.66,0,0,0,3.35,10.09,30.8,30.8,0,0,0,6.39,8.42,33,33,0,0,0,8.74,5.9l1.19.59c.41.18.82.32,1.23.49l2.48,1,2.54.76a22.6,22.6,0,0,0,2.57.68,85.46,85.46,0,0,0,21.18,1.91C543.21,403.67,557.88,404,571.82,407.63Z" style="fill:#231f20"/><path d="M672.67,355.33a9,9,0,0,1,1.65,4.66,9.56,9.56,0,0,1-1.08,4.9,19.41,19.41,0,0,1-7.15,7,52.75,52.75,0,0,1-9.06,4.35c-3.13,1.18-6.37,2.1-9.45,3.14q-2.34.72-4.65,1.55c-1.52.6-3.07,1.15-4.55,1.84a68.47,68.47,0,0,0-8.69,4.56,79.71,79.71,0,0,0-8,5.66c-2.58,2.06-5,4.26-7.53,6.44-5,4.37-10.63,8.29-17,10.22a30.69,30.69,0,0,1-19.59,0,30.48,30.48,0,0,0,19.43-.5l1.17-.39,1.13-.49c.75-.34,1.52-.63,2.25-1a41,41,0,0,0,4.25-2.48c.68-.46,1.39-.87,2-1.38l1.94-1.52c1.31-1,2.5-2.13,3.73-3.24,2.42-2.24,4.84-4.53,7.39-6.67a79.86,79.86,0,0,1,8-6,69.64,69.64,0,0,1,8.77-4.9c1.5-.75,3.06-1.36,4.61-2s3.14-1.18,4.72-1.72c3.26-.9,6.44-1.62,9.57-2.62a50.41,50.41,0,0,0,9-3.76,18.69,18.69,0,0,0,7.23-6.36,9.26,9.26,0,0,0,1.28-4.63A8.88,8.88,0,0,0,672.67,355.33Z" style="fill:#231f20"/></g></g></g></g></g></svg>