<svg viewBox="0 0 1200 1800" xmlns="http://www.w3.org/2000/svg"><path d="m572.56 307.1s-21.68-3.35-45.81-42.43c-4.42-7.16-22.14-46.74-21.31-56.92 4.48-54.87 55.78-69.12 68.81-64.49 9.86-2.19 58.25.24 63.75 53.91 2.65 25.87-12.84 45.05-13.94 56-3.96 39.25-51.5 53.93-51.5 53.93z" fill="#4d4d4f"/><g fill="#4d4d4f" opacity=".1"><path d="m574 146.72s-40.78-7.47-51.62 31.12c6.42-9.62 15.24-30.59 51.62-31.12z"/><path d="m521.29 239a55 55 0 0 1 -12.67-24.32c2.71 3 6 9.54 6 9.54a84.81 84.81 0 0 1 -.28-17.32c2 4.83 2.1 4 2.1 4s3-18.21 6.13-24.55c2.8 13.07-1.28 52.65-1.28 52.65z"/><path d="m624.06 233.49s3-.78 7.05-8.16l-3.79-6.85s-1.5-32.69-17.49-36.08c3.84 33.05 14.23 51.09 14.23 51.09z"/><path d="m577.92 146.14s34.16-4 46.08 30.86c0 0-18-26.3-46.08-30.86z"/><path d="m633.12 212.75s-2.12 17.25-10.81 30.54"/><path d="m633.12 212.75a85.62 85.62 0 0 1 -1.84 10.75 73 73 0 0 1 -9 19.79 72.52 72.52 0 0 0 8.15-20 85.7 85.7 0 0 0 2.69-10.54z"/></g><g fill="#231f20"><path d="m516.49 243.05a150.24 150.24 0 0 1 -9.75-21.82 50.5 50.5 0 0 1 -2.7-11.77v-1.55-.78l.05-.75.2-3c.05-1 .18-2 .32-3l.39-3a74.41 74.41 0 0 1 3.28-11.63l.52-1.42.6-1.38c.41-.93.8-1.85 1.23-2.77.93-1.78 1.8-3.6 2.88-5.3s2.19-3.38 3.33-5 2.44-3.19 3.81-4.67a66.19 66.19 0 0 1 8.75-8.24 72.46 72.46 0 0 1 21-11.35 63 63 0 0 1 11.6-2.86c1-.17 2-.21 3-.33s2-.13 3-.09a19.91 19.91 0 0 1 5.9.79 19.56 19.56 0 0 0 -5.9-.65c-1 0-2 .1-3 .15s-2 .2-3 .39a63.2 63.2 0 0 0 -11.47 3 71.78 71.78 0 0 0 -20.53 11.73 65.87 65.87 0 0 0 -8.4 8.25c-1.3 1.48-2.46 3.07-3.63 4.65s-2.2 3.26-3.13 5-1.83 3.48-2.7 5.23c-.39.9-.75 1.82-1.13 2.72l-.56 1.36-.47 1.4a71.92 71.92 0 0 0 -2.98 11.39l-.51 2.9c-.18 1-.35 1.94-.44 2.92l-.33 2.93-.08.73v.77 1.43a48.23 48.23 0 0 0 2.12 11.54 148.73 148.73 0 0 0 8.73 22.08z"/><path d="m576 143a32.81 32.81 0 0 1 11.22-.81 49.6 49.6 0 0 1 11.08 2.34 67.45 67.45 0 0 1 10.4 4.61 72.24 72.24 0 0 1 9.44 6.41 67.61 67.61 0 0 1 7.94 8.2c1.26 1.42 2.29 3 3.43 4.55l1.53 2.41.76 1.21.68 1.25 1.35 2.52 1.17 2.59.59 1.3c.17.44.32.89.49 1.34l1 2.67a60.41 60.41 0 0 1 2.42 11.1 61.2 61.2 0 0 1 -1.5 22.48 83.85 83.85 0 0 1 -8.54 20.81 83.24 83.24 0 0 0 8-20.93 60.24 60.24 0 0 0 1-22.22 58.17 58.17 0 0 0 -2.65-10.83l-1-2.59c-.17-.43-.33-.87-.51-1.29l-.6-1.26-1.2-2.5-1.38-2.42-.69-1.2-.76-1.16-1.54-2.31c-1.15-1.45-2.19-3-3.45-4.35a63.64 63.64 0 0 0 -7.89-7.77 70.33 70.33 0 0 0 -8.87-6.66 65.92 65.92 0 0 0 -9.94-5 49 49 0 0 0 -10.79-2.81 32.45 32.45 0 0 0 -11.19.32z"/><path d="m530.93 251.5a54.58 54.58 0 0 1 -5.21-4.65c-.84-.82-1.61-1.7-2.42-2.55s-1.55-1.75-2.27-2.68a56.35 56.35 0 0 1 -10-25.84 55.66 55.66 0 0 0 11.17 25c.62 1 1.31 1.89 2 2.84s1.37 1.86 2.12 2.74a52.81 52.81 0 0 0 4.61 5.14z"/><path d="m517.44 227.59c-.48-1.26-.93-2.53-1.36-3.81a41.76 41.76 0 0 1 -1.11-8 41.49 41.49 0 0 0 1.66 7.86c.24 1.36.51 2.64.81 3.95z"/><path d="m628.75 207.12c.09 3.51.1 7 0 10.54-.29 3.51-.66 7-1.2 10.48a52.62 52.62 0 0 1 -2.42 10.24 52.26 52.26 0 0 0 2-10.3c.39-3.48.62-7 .77-10.47q.56-5.22.85-10.49z"/><path d="m633.12 216.93q-.58 4.9-1.53 9.78a89.22 89.22 0 0 1 -3.18 9.38 35.3 35.3 0 0 1 -2.19 4.45 10.2 10.2 0 0 1 -3.28 3.65 10.1 10.1 0 0 0 3-3.79 35 35 0 0 0 1.91-4.51 86 86 0 0 0 2.61-9.46q1.54-4.69 2.66-9.5z"/></g></svg>