<svg xmlns="http://www.w3.org/2000/svg" viewBox="0 0 1200 1800"><title>short-tied-1</title><g style="isolation:isolate"><g id="hourglass"><g id="hair_back" data-name="hair back"><g id="short_tied_1" data-name="short tied 1"><g id="shading"><path d="M540,284.67s-.94,18.08-.25,21.62l1.88-12.54s.13,9.75,3.63,15c.74-7.37,0-24.08,0-24.08l-9-8.69s.79,8.69-5.9,7.81a4.93,4.93,0,0,0,6.69-3.54c-2.06,8.31-2.38,9.86-2.38,9.86l4.57-9.17s-3.25,17.12-3.25,19.94A140.68,140.68,0,0,1,540,284.67Z" style="fill:#4d4d4f"/><path d="M604.32,315.65a182,182,0,0,1-3.44-18.9l11.74-22.92s-.19,10.57,2.62,11.85c-2.53-1-3.24-7.3-3.24-7.3s-.44,10.46,2.42,12c-3.75-1.79-3.59-10-3.59-10s-2,11.8,2.55,14.13c0,0-3,0-5.32-10.29,0,0-1.43,11.45,3.4,14.54,0,0-3.66.54-5.55-9.83,0,0,2.84,12.09,3.25,14.78-2.6-4.75-4.63-12.54-4.63-12.54s2.93,11.64,2.39,20a134.8,134.8,0,0,0-4.14-16C604.25,303.59,604.32,315.65,604.32,315.65Z" style="fill:#4d4d4f"/><path d="M520.38,226.67S508.33,170.24,569,178c44.67-14.29,54.45,11.56,55.06,47,6.61-33.6-4.1-83-53.77-83.93S515.44,185.33,520.38,226.67Z" style="fill:#4d4d4f"/></g><g id="shadow" style="opacity:0.1;mix-blend-mode:multiply"><path d="M613.36,273s-.27,10.63,2.22,12.7a5,5,0,0,1-3-1.44c.85,2.2,1.29,5.34,2.43,6.1-1.53.65-4.12-4.66-4.12-4.66s.81,6.16,2.25,8.6c-2.37-.26-4-5.85-4-5.85l-1,2.36s2.13,6.65,3,7.46c-1.62-.19-3.27-2.35-3.27-2.35a25.88,25.88,0,0,1,1.58,8.56c-1.14-1.72-3-5.26-3-5.26.74,4.4.87,12.55.32,13.44-.52-1.24-1-4.76-2.26-7a45.4,45.4,0,0,1,0,10.29c-5-14-9.56-9.05-9.56-9.05Z" style="fill:#4d4d4f"/><path d="M536.34,273.64c.12,9.08-6.51,10.28-6.51,10.28s4.29,3.76,7.24-4.83a54.1,54.1,0,0,0-3.3,13.18,23.6,23.6,0,0,1,3.88-5.36s-2.72,11.43-2,16.68c0,0,1.9-6.14,3-9.32,0,0-1.12,5.08.43,16.17.77-5.21,2.38-12.31,2.38-12.31s.81,13.43,3.71,17.87a112.72,112.72,0,0,1,.81-20.8Z" style="fill:#4d4d4f"/><path d="M573.77,177.91a66.57,66.57,0,0,0,2.49-23.83c3.84,8,3.21,17.75,2.26,22.67l-4.75,1.16" style="fill:#4d4d4f"/><path d="M590.05,174.66a153.26,153.26,0,0,1,2.49-23.83c6.64,14.34-2.49,23.83-2.49,23.83" style="fill:#4d4d4f"/><path d="M601.58,176a99.75,99.75,0,0,0,1.86-18.83,49.66,49.66,0,0,1,3.21,8.83c2,8.06,0,11.62,0,11.62Z" style="fill:#4d4d4f"/><path d="M616.65,189.58a19.26,19.26,0,0,0,4.52-12.21c7.27,20.91,3.2,46.57,3.2,46.57S623.39,197.41,616.65,189.58Z" style="fill:#4d4d4f"/><path d="M568.67,177.91s-3.58-19.48-2.58-24.49c-2.51,8-3.42,16-1.92,20.91a76,76,0,0,1-2.34-17.58s-.39,2.83-1.22,9.25c-1.88-6.73,0-16.5,0-16.5l-4.91.67s-4.59,10.61,2.56,26.94Z" style="fill:#4d4d4f"/><path d="M551.08,177.48s-7.29-8.31-9-22.52a28,28,0,0,0,1,21.54s-4.76-7-5.41-13.75c-1.34,6-.81,10.85,3.84,17.13,3.66-2,9.57-2.4,9.57-2.4" style="fill:#4d4d4f"/><path d="M535.67,182.12s-7.13-5.73-8.67-11.59a60.05,60.05,0,0,0-4.84,8.9,14.77,14.77,0,0,0,5.44,9.31C532,183.5,535.67,182.12,535.67,182.12Z" style="fill:#4d4d4f"/><path d="M525.83,191.55s-5.32-3.22-5.37-6.55c-2.55,5.88-3.55,34.84-.34,41.45C519.29,213.63,520.58,200.94,525.83,191.55Z" style="fill:#4d4d4f"/></g><g id="stroke"><path d="M624.06,224.93c-.46-4.79-1.17-9.54-2.06-14.25a113.24,113.24,0,0,0-3.51-13.91,45.57,45.57,0,0,0-6.06-12.69,14.48,14.48,0,0,0-4.91-4.41A11.42,11.42,0,0,0,606,179c-.54-.19-1.06-.42-1.61-.58l-1.67-.43a12,12,0,0,0-1.68-.36,51,51,0,0,0-14.72-.79,84.22,84.22,0,0,0-14.73,2.46l-.26.07-.24,0a76.24,76.24,0,0,0-10.38-1.27,59.75,59.75,0,0,0-10.45.29c-.86.12-1.72.27-2.57.41s-1.7.36-2.53.6c-1.64.48-3.32,1.08-5,1.72a33.54,33.54,0,0,0-9.13,5,23.67,23.67,0,0,0-6.39,8.11c-.35.8-.8,1.56-1.07,2.39l-.86,2.49c-.3.82-.44,1.7-.66,2.55a25,25,0,0,0-.56,2.57,91.12,91.12,0,0,0-.69,21.14,91.29,91.29,0,0,1,.18-21.22,25.72,25.72,0,0,1,.49-2.62c.21-.87.33-1.76.61-2.61l.82-2.55a25.42,25.42,0,0,1,1-2.48,24.51,24.51,0,0,1,6.44-8.57,34.49,34.49,0,0,1,9.3-5.38c1.65-.7,3.29-1.33,5-1.89.86-.27,1.75-.46,2.62-.69s1.77-.35,2.66-.49a61.35,61.35,0,0,1,10.74-.56,76.12,76.12,0,0,1,10.72,1l-.5,0a85.61,85.61,0,0,1,15.11-2.91,53.87,53.87,0,0,1,15.51.46,12.74,12.74,0,0,1,1.81.49l1.8.56c.59.21,1.17.49,1.75.73a11.8,11.8,0,0,1,1.73.82,16.89,16.89,0,0,1,5.49,5.37,47.66,47.66,0,0,1,5.68,13.51,115.5,115.5,0,0,1,2.85,14.2C623.36,215.33,623.83,220.13,624.06,224.93Z" style="fill:#231f20"/><path d="M519.94,227.87a131.07,131.07,0,0,1-2-19.08,120.23,120.23,0,0,1,.83-19.24,79,79,0,0,1,4.67-18.78,52.39,52.39,0,0,1,10.2-16.67,45.3,45.3,0,0,1,16.5-10.58,53.65,53.65,0,0,1,9.45-2.55c1.61-.23,3.22-.49,4.84-.69l4.86-.28a66,66,0,0,1,19.27,2.19,44.81,44.81,0,0,1,17.11,9.07,48.19,48.19,0,0,1,11.73,15.32,75.85,75.85,0,0,1,6.09,18.26,112.61,112.61,0,0,1,2.06,19.1,123.75,123.75,0,0,1-.95,19.15,120.89,120.89,0,0,0-1.81-38.1,74.36,74.36,0,0,0-6.34-17.92,46.72,46.72,0,0,0-11.7-14.72,42.94,42.94,0,0,0-16.66-8.45,63.66,63.66,0,0,0-18.72-1.77l-4.71.35c-1.55.22-3.1.5-4.65.75a51.36,51.36,0,0,0-9,2.61,42.45,42.45,0,0,0-15.35,10.23,49.78,49.78,0,0,0-10.27,15.51,76.89,76.89,0,0,0-5.24,18.18,119.69,119.69,0,0,0-1.52,19A129.85,129.85,0,0,0,519.94,227.87Z" style="fill:#231f20"/><path d="M577.25,175.32a41.26,41.26,0,0,0,1.17-8.39,38.69,38.69,0,0,0-1.17-16.76,39.12,39.12,0,0,1,2.29,16.88A41,41,0,0,1,577.25,175.32Z" style="fill:#231f20"/><path d="M587,156.29a45.87,45.87,0,0,1,1.27,6.94,41.94,41.94,0,0,1-.92,7,31.78,31.78,0,0,1-2.18,6.65,31.54,31.54,0,0,0,1.48-6.76,40.62,40.62,0,0,0,.21-6.88A45.83,45.83,0,0,0,587,156.29Z" style="fill:#231f20"/><path d="M597.94,175.7a52.73,52.73,0,0,0,1.21-6.43,37.06,37.06,0,0,0,.89-13,37.67,37.67,0,0,1,0,13.14A54,54,0,0,1,597.94,175.7Z" style="fill:#231f20"/><path d="M603.08,176.87a44.55,44.55,0,0,0,1.22-17.52l-.13-1,.53-.15a36.4,36.4,0,0,1,.64,18.67l-.11,0c-.14-.08-.12-.06-.12-.06h0v0l0-.05.05-.12.09-.22.16-.46.31-.94q.29-.93.51-1.89a35.9,35.9,0,0,0,.71-3.86,33.79,33.79,0,0,0,.11-7.85,33.42,33.42,0,0,1,0,7.87,34.14,34.14,0,0,1-.65,3.88c-.14.65-.3,1.28-.48,1.92l-.29.94-.16.47-.09.23,0,.12,0,.06v0h0c-.06-.08.15.16-.24-.07h0a36.05,36.05,0,0,0-.92-18.42l.53-.15.15,1A44.91,44.91,0,0,1,603.08,176.87Z" style="fill:#231f20"/><path d="M608.79,179.32a28.9,28.9,0,0,0,1.14-5.1,34.82,34.82,0,0,0,.74-10.39,34.89,34.89,0,0,1-.19,10.5A28.19,28.19,0,0,1,608.79,179.32Z" style="fill:#231f20"/><path d="M617.91,192.74a48.6,48.6,0,0,0,1.63-5.36,24.42,24.42,0,0,0,.74-5.49v-.2l.12-2.45.44,2.38a21.11,21.11,0,0,1,0,6.59,39.28,39.28,0,0,1-1.48,6.37l-.22-.07c.67-1.41,1.42-2.72,2-4.16a10.23,10.23,0,0,0,.8-4.47,10.39,10.39,0,0,1-.69,4.51c-.5,1.45-1.24,2.83-1.85,4.19l-.22-.07a39.3,39.3,0,0,0,1.3-6.35,20.4,20.4,0,0,0-.14-6.39l.56-.08v.21a24.8,24.8,0,0,1-1,5.56A48.8,48.8,0,0,1,617.91,192.74Z" style="fill:#231f20"/><path d="M619.67,198.28a4.9,4.9,0,0,1,.72-1.09c.27-.34.53-.68.78-1a5.92,5.92,0,0,0,2.07-4.47,6.21,6.21,0,0,1-1.64,4.85c-.33.29-.67.58-1,.85A4.62,4.62,0,0,0,619.67,198.28Z" style="fill:#231f20"/><path d="M621.66,206.94a5.85,5.85,0,0,1,1-1.55,5.64,5.64,0,0,0,2.18-2.78,5.93,5.93,0,0,1-1.8,3.2A5.8,5.8,0,0,0,621.66,206.94Z" style="fill:#231f20"/><path d="M622.22,211.41a11.33,11.33,0,0,1,1.39-2.22A18,18,0,0,0,625,207l.56.26-.61,1.86L623,213.47l-.53-.2a1.94,1.94,0,0,1,.57-.79c.23-.2.44-.37.63-.57a6.59,6.59,0,0,0,1-1.32l.46-.72-.11.82a9.09,9.09,0,0,1-1.75,4l-.05-.09a2.57,2.57,0,0,0,1.61-.86,2.6,2.6,0,0,1-1.61,1h-.1l.06-.1a8.83,8.83,0,0,0,1.47-3.91l.34.1a7.44,7.44,0,0,1-1,1.45c-.39.47-.9.79-1,1.23l-.54-.2,1.61-4.46.82-1.77.56.27a18.61,18.61,0,0,1-1.65,2.08A11.7,11.7,0,0,0,622.22,211.41Z" style="fill:#231f20"/><path d="M565.43,154.5a46.7,46.7,0,0,0,.31,7.49,64,64,0,0,0,1.43,14.89A64.78,64.78,0,0,1,564.32,162,47.19,47.19,0,0,1,565.43,154.5Z" style="fill:#231f20"/><path d="M560.2,174.33a74.25,74.25,0,0,1-2.1-7.57,46.94,46.94,0,0,1,.85-15.6,46.41,46.41,0,0,0,.55,15.42A75.11,75.11,0,0,0,560.2,174.33Z" style="fill:#231f20"/><path d="M546,176.88a35.72,35.72,0,0,1-3.15-6.42,36.18,36.18,0,0,1-1.17-14.17,35.63,35.63,0,0,0,2,13.91A35.79,35.79,0,0,0,546,176.88Z" style="fill:#231f20"/><path d="M541.51,175.37c-.74-.92-1.44-1.87-2.1-2.86a28.38,28.38,0,0,1-1.22-3.34,11.17,11.17,0,0,1-.52-3.48,11,11,0,0,0,.92,3.34,29,29,0,0,0,1.58,3.09C540.57,173.22,541,174.3,541.51,175.37Z" style="fill:#231f20"/><path d="M532.44,183.5a27.94,27.94,0,0,1-3.32-3.12,18.29,18.29,0,0,1-3.74-8.22,18.1,18.1,0,0,0,4.18,7.87A28.81,28.81,0,0,0,532.44,183.5Z" style="fill:#231f20"/><path d="M534.69,183a57.66,57.66,0,0,1-5.05-5.66,28.22,28.22,0,0,1-2.15-3.15,10.61,10.61,0,0,1-1.44-3.58l.45.11c-.37.57-.74,1.14-1.08,1.72s-.58,1-.82,1.45c-.12.25-.24.5-.34.75a2.71,2.71,0,0,0-.18.69v0a22.84,22.84,0,0,0,2.46,5,13.14,13.14,0,0,0,3.89,4l-.18.27a51.94,51.94,0,0,1-7.54-6.67l.14-.07a10,10,0,0,0,2.46,4,23.57,23.57,0,0,0,3.61,3.15,23.62,23.62,0,0,1-3.67-3.1,10.32,10.32,0,0,1-2.56-4.05l-.09-.31.23.24a52.54,52.54,0,0,0,7.61,6.51l-.18.27a13.75,13.75,0,0,1-4.07-4,24,24,0,0,1-2.6-5.12v0h0a2.69,2.69,0,0,1,.2-1c.1-.28.22-.54.34-.8.25-.52.53-1,.82-1.51s.77-1.15,1.16-1.71l.37-.53.08.64a10.44,10.44,0,0,0,1.28,3.46,26.62,26.62,0,0,0,2,3.18A55.92,55.92,0,0,0,534.69,183Z" style="fill:#231f20"/><path d="M520.46,189a14.13,14.13,0,0,0,1,1.33,7.71,7.71,0,0,0,2.24,2.38,7.8,7.8,0,0,1-2.47-2.21A14.89,14.89,0,0,1,520.46,189Z" style="fill:#231f20"/></g></g></g></g></g></svg>