<svg xmlns="http://www.w3.org/2000/svg" viewBox="0 0 1200 1800"><title>short-straight-1</title><g style="isolation:isolate"><g id="hourglass"><g id="hair_back" data-name="hair back"><g id="short_straight_1" data-name="short straight 1"><g id="shading"><path d="M607.47,294.34s9.86-1.53,17.36-23.92v10.33s14.19-19.87,11.93-58.49-6.34-48.45-6.34-48.45-5.09-30.35-25.23-29.46c-6.36-6.29-16.73-8.1-29-8.34-41.77-.8-53.42,32.05-58.24,44.73-11.69,30.75-6.67,68.9-4.14,81.87,1,5.29,4.46,12.15,11,18.33.52.5-1.91-5.46-3.47-16.92,4.42,18.36,10.16,24.07,12.34,25,11.51,4.92,19.14,8.33,41.29,7.65C616.67,295.38,607.47,294.34,607.47,294.34Z" style="fill:#4d4d4f"/></g><g id="shadow" style="opacity:0.1;mix-blend-mode:multiply"><path d="M632.94,265.25a38.24,38.24,0,0,1-4.09,9.74c-.6,1.16-4.48,5.36-4.85,6.67-.14.53,1-11.77.83-11.24-4.54,15.22-13.36,21.41-13.36,21.41s11.6-23,11.6-43.39c1.55-.84,5.18-6.52,5.18-6.52s-1,16.71-2.71,27.17c.53,0,1.26-2.43,1.75-2.57-.1,2.17-2,11.43-2,11.43a80,80,0,0,0,4.92-7.12C631.5,268.49,632.94,265.25,632.94,265.25Z" style="fill:#231f20"/><path d="M526.64,262.09s5.5,19.15,16.37,29.74a27.77,27.77,0,0,1-10.38-3.45s-5.85-7.67-7.25-11.42l4,4.57S530.15,277.4,526.64,262.09Z" style="fill:#231f20"/><path d="M524.8,280.94a141,141,0,0,1-3.35-16.1c-.53,5.26-1,9.58-1,9.58l-2.7-2.1Z" style="fill:#231f20"/></g><g id="stroke"><path d="M611,293.61a11.39,11.39,0,0,0,5-3.64,27.36,27.36,0,0,0,3.49-5.16A57.72,57.72,0,0,0,624,273.17l1.21-4.18-.19,4.36a67.49,67.49,0,0,1-1.14,9.3l-1.2-.66a39,39,0,0,0,8.4-14.14,66.78,66.78,0,0,0,3.49-12.15,111.15,111.15,0,0,0,1.73-12.63,188.22,188.22,0,0,0,.11-25.58c-.5-8.54-1.44-17.05-2.68-25.52s-2.79-16.9-4.73-25.24c2.12,8.3,3.81,16.71,5.26,25.16s2.54,17,3.21,25.53a189.22,189.22,0,0,1,.42,25.76A113.53,113.53,0,0,1,636.4,256a70.08,70.08,0,0,1-3.33,12.58A41,41,0,0,1,623.68,283L622,284.64l.53-2.29a66.08,66.08,0,0,0,1.49-9.06l1,.18a59.75,59.75,0,0,1-5,11.6,28.78,28.78,0,0,1-3.76,5.08A11.46,11.46,0,0,1,611,293.61Z" style="fill:#231f20"/><path d="M512.12,222.36a11.89,11.89,0,0,1,.34,3.15c0,1.07,0,2.13,0,3.19l0,6.36c0,4.24.09,8.48.37,12.69a80.34,80.34,0,0,0,1.43,14.2,32.28,32.28,0,0,0,2.12,6.75,13.47,13.47,0,0,0,4.25,5.46l0,0,0,0a69.76,69.76,0,0,0,7.68,7.89A102.23,102.23,0,0,0,537,289a104,104,0,0,1-8.82-6.67,70.78,70.78,0,0,1-7.95-7.73l.06.06a14.1,14.1,0,0,1-4.64-5.63,32,32,0,0,1-2.38-6.88,80.1,80.1,0,0,1-1.86-14.36c0-4.27.11-8.52.34-12.76l.37-6.36c.06-1.06.12-2.12.16-3.18A11.07,11.07,0,0,0,512.12,222.36Z" style="fill:#231f20"/><path d="M512.12,207.14c1.32-7.62,2.51-15.27,4.28-22.84a82.24,82.24,0,0,1,8.31-21.84,55.45,55.45,0,0,1,15.95-17.14,54.59,54.59,0,0,1,21.63-8.68,74.25,74.25,0,0,1,23.24-.2,62,62,0,0,1,11.33,2.61,41.42,41.42,0,0,1,5.21,2.59,17.85,17.85,0,0,1,2.38,1.67,5.78,5.78,0,0,1,1.8,2.24,5.74,5.74,0,0,0-1.84-2.19,17.37,17.37,0,0,0-2.41-1.6,40.33,40.33,0,0,0-5.24-2.46,60.78,60.78,0,0,0-11.3-2.33,73.11,73.11,0,0,0-23,.72,52,52,0,0,0-36,25.86,80.8,80.8,0,0,0-9.11,21C515.33,192,513.79,199.59,512.12,207.14Z" style="fill:#231f20"/><path d="M603.44,144.34a14.75,14.75,0,0,1,9.9.84,24.55,24.55,0,0,1,8.2,6.1c4.18,5.46,6.68,11.81,8.56,18.19A129.72,129.72,0,0,1,634,189a129.67,129.67,0,0,0-4.91-19.23c-2.19-6.2-5-12.28-9.2-17.17a22.68,22.68,0,0,0-7-6.49A14.18,14.18,0,0,0,603.44,144.34Z" style="fill:#231f20"/></g></g></g></g></g></svg>