<svg viewBox="0 0 1200 1800" xmlns="http://www.w3.org/2000/svg"><path d="m624.83 218.48s-5.68.7-15.52 1.4c-.18-1.43-1.16-11.3-1.16-11.3s-.08 10.2-.08 11.39c-4.55.3-10 .6-16.3.84.29-12-1.71-35.87-1.71-35.87s1.39 33.67 1 35.89c-8.51.29-22.07.4-33.55.38-1.61-31.83-.24-43.22-.24-43.22s-2.68 9.14-1.51 43.22h-5.68c-1.28-35.6-.32-40.1-.32-40.1s-1.5 5.42-1.22 40.13c-6.11.11-13 .23-19.26.27l-.46-5.33-.24 5.3q-4.56 0-9.12 0c-.78-42 5.38-68.31 49.55-74.15s57.99 31.13 55.82 71.15z" fill="#4d4d4f"/><path d="m569 217.37h3.28l1.47-55.37 1 55.42h2.58l.67-1.86 2.67.48 1-26.33.5 27.23 5.62.48v-16.31l1 15.68.67-40.63.75 2 2.66 38.46.59-14.68.66 14.88 12.67-.5.75-17.45 2.92 17.65 12.76-1 1.06-6.77 3.08 15.6h-3.36l.24-5s-43.84 6.32-104.79 4.33l.45 5.89-2.2-2.34s1.3-10.91 1.3-11.06c-.36-6.95-.79-26.17 5.82-33-2.21 8.18-5.89 22.17-5.18 35.38h7.71l.71-7.49 1.09 7.9h4.09v-3.11l.9 3.11h4.86l1.25-26.88.71 26.57 5.07.1 2-31.47 1.5 16 .42 15.18 8.12.05.62-18.58.92 18.08 7.63-1 .62-10.19z" fill="#4d4d4f" opacity=".1"/><g fill="#231f20"><path d="m622.41 185.25a122.14 122.14 0 0 1 2.08 14.51c.45 4.87.73 9.76.89 14.65v4.08.51h-.46l-13.4 1.06-1.68.13h-.47a.45.45 0 0 1 -.3-.19v-.1-.08c0-.06 0-.09 0-.13v-.22l-.11-.85c-.13-1.12-.24-2.23-.34-3.35l-.57-6.69h.53v6.93c0 1.15 0 2.3-.07 3.46 0 .29 0 .57-.06.89v.06s0 0 0 .06a.27.27 0 0 1 -.13.11h-.34-.43l-1.73.07-13.83.61 13.81-.88 1.73-.1h.43.22.1s0 .28 0 .12-.12-.13-.12-.07c0-.26 0-.56 0-.84 0-1.15 0-2.3 0-3.45l-.11-6.92h.53l.7 6.67c.13 1.11.25 2.23.4 3.33l.12.81v.19s0 .08 0 .08c.07 0-.15.1-.18.05s-.14 0-.14.09v-.33h.21.21l1.66-.17 13.36-1.3-.48.51c0-1.34 0-2.69 0-4 0-4.88-.06-9.76-.32-14.63a122.45 122.45 0 0 0 -1.71-14.68z"/><path d="m590.06 184.94.78 17.94.38 9 .19 4.48.09 2.25v1.12 1.22.42h-.5l-2.77.13c-10.25.19-20.5.14-30.74-.06h-.33v-.32c-.25-7.78-.4-15.55-.41-23.32s.06-15.56.72-23.31c-.54 7.76-.49 15.54-.38 23.3s.39 15.54.75 23.3l-.33-.33c10.23 0 20.48-.05 30.7-.4h2.76v.52c-.69-.11-.43-.07-.48-.09v-2.19-2.24l-.06-4.49-.12-9z"/><path d="m550 180.37a27.68 27.68 0 0 0 -.23 3.86v3.88q0 3.87.09 7.74c.1 5.17.26 10.33.45 15.49l.12 9.51-.47-.47 5.88.16-.43.44c-.17-7.77-.17-15.54.1-23.31.13-3.89.32-7.77.65-11.64a102 102 0 0 1 1.53-11.55 99.9 99.9 0 0 0 -1.31 11.57c-.27 3.87-.39 7.75-.45 11.63-.12 7.76 0 15.52.33 23.27v.45h-.45-5.9-.45v-.46l-.3-9.52c0-5.17 0-10.34.12-15.51.05-2.58.11-5.16.2-7.75l.17-3.87a29.16 29.16 0 0 1 .35-3.92z"/><path d="m549.47 182.4c-.47 6.4-.75 12.82-.76 19.23s.15 12.83.38 19.24v.56h-.59-.24l-19 .27h-.4v-.4l-.41-5.16h.78l-.28 5.17v.33h-.33l-9.13.1h-.25v-.24a56.19 56.19 0 0 1 -.41-9.78 85.68 85.68 0 0 1 1-9.73 95.45 95.45 0 0 1 5.09-18.81 95.26 95.26 0 0 0 -4.92 18.89 85 85 0 0 0 -.8 9.69 55.69 55.69 0 0 0 .54 9.67l-.28-.23 9.12-.24-.35.34.2-5.17h.78l.48 5.16-.43-.39 19-.56h.25l-.57.58c-.05-6.43 0-12.85.18-19.28s.69-12.86 1.35-19.24z"/><path d="m591.77 220.81c.05-3.75-.19-7.49-.43-11.23-.09-7.48-.45-15-.9-22.45.74 7.46 1.37 14.93 1.75 22.43-.04 3.75-.09 7.51-.42 11.25z"/></g></svg>