<svg viewBox="0 0 1200 1800" xmlns="http://www.w3.org/2000/svg"><path d="m543.94 284.67s-19.87-3.47-19.14-69.22c.28-25.15 7.53-41.27 21.19-44.7 11-2.75 14.21-17.37 0-17.1-35.3.66-50.92 74.43-35.46 109.55 11.85 26.91 33.41 21.47 33.41 21.47z" fill="#4d4d4f"/><path d="m608.28 287.06s13.34-24.42 12.4-69.14c-.52-25.15-7.49-41.36-21.91-45-11.58-2.88-14.85-17.54.2-17.1 37.36 1.1 52.46 74.82 36.26 110-10.79 23.45-26.95 21.24-26.95 21.24z" fill="#4d4d4f"/><path d="m624.83 218.48s-5.68.7-15.52 1.4c-.18-1.43-1.16-11.3-1.16-11.3s-.08 10.2-.08 11.39c-4.55.3-10 .6-16.3.84.29-12-1.71-35.87-1.71-35.87s1.39 33.67 1 35.89c-8.51.29-22.07.4-33.55.38-1.61-31.83-.24-43.22-.24-43.22s-2.68 9.14-1.51 43.22h-5.68c-1.28-35.6-.32-40.1-.32-40.1s-1.5 5.42-1.22 40.13c-6.11.11-13 .23-19.26.27l-.46-5.33-.24 5.3q-4.56 0-9.12 0c-.78-42 5.38-68.31 49.55-74.15s57.99 31.13 55.82 71.15z" fill="#4d4d4f"/><g fill="#4d4d4f" opacity=".1"><path d="m569 217.37h3.28l1.47-55.37 1 55.42h2.58l.67-1.86 2.67.48 1-26.33.5 27.23 5.62.48v-16.31l1 15.68.67-40.63.75 2 2.66 38.46.59-14.68.66 14.88 12.67-.5.75-17.45 2.92 17.65 12.76-1 1.06-6.77 3.08 15.6h-3.36l.24-5s-43.84 6.32-104.79 4.33l.45 5.89-2.2-2.34s1.3-10.91 1.3-11.06c-.36-6.95-.79-26.17 5.82-33-2.21 8.18-5.89 22.17-5.18 35.38h7.71l.71-7.49 1.09 7.9h4.09v-3.11l.9 3.11h4.86l1.25-26.88.71 26.57 5.07.1 2-31.47 1.5 16 .42 15.18 8.12.05.62-18.58.92 18.08 7.63-1 .62-10.19z"/><path d="m535.75 284.72s-25.88 1.12-30.32-42.74c7.17 57.52 30.32 42.74 30.32 42.74"/><path d="m636.62 262.52s-6.93 30.22-27.28 32.66a87.22 87.22 0 0 0 5-8.75s14.03-1.63 22.28-23.91z"/></g><g fill="#231f20"><path d="m622.41 185.25a122.14 122.14 0 0 1 2.08 14.51c.45 4.87.73 9.76.89 14.65v4.08.51h-.46l-13.4 1.06-1.68.13h-.47a.45.45 0 0 1 -.3-.19v-.1-.08c0-.06 0-.09 0-.13v-.22l-.11-.85c-.13-1.12-.24-2.23-.34-3.35l-.57-6.69h.53v6.93c0 1.15 0 2.3-.07 3.46 0 .29 0 .57-.06.89v.06s0 0 0 .06a.27.27 0 0 1 -.13.11h-.34-.43l-1.73.07-13.83.61 13.81-.88 1.73-.1h.43.22.1s0 .28 0 .12-.12-.13-.12-.07c0-.26 0-.56 0-.84 0-1.15 0-2.3 0-3.45l-.11-6.92h.53l.7 6.67c.13 1.11.25 2.23.4 3.33l.12.81v.19s0 .08 0 .08c.07 0-.15.1-.18.05s-.14 0-.14.09v-.33h.21.21l1.66-.17 13.36-1.3-.48.51c0-1.34 0-2.69 0-4 0-4.88-.06-9.76-.32-14.63a122.45 122.45 0 0 0 -1.71-14.68z"/><path d="m590.06 184.94.78 17.94.38 9 .19 4.48.09 2.25v1.12 1.22.42h-.5l-2.77.13c-10.25.19-20.5.14-30.74-.06h-.33v-.32c-.25-7.78-.4-15.55-.41-23.32s.06-15.56.72-23.31c-.54 7.76-.49 15.54-.38 23.3s.39 15.54.75 23.3l-.33-.33c10.23 0 20.48-.05 30.7-.4h2.76v.52c-.69-.11-.43-.07-.48-.09v-2.19-2.24l-.06-4.49-.12-9z"/><path d="m550 180.37a27.68 27.68 0 0 0 -.23 3.86v3.88q0 3.87.09 7.74c.1 5.17.26 10.33.45 15.49l.12 9.51-.47-.47 5.88.16-.43.44c-.17-7.77-.17-15.54.1-23.31.13-3.89.32-7.77.65-11.64a102 102 0 0 1 1.53-11.55 99.9 99.9 0 0 0 -1.31 11.57c-.27 3.87-.39 7.75-.45 11.63-.12 7.76 0 15.52.33 23.27v.45h-.45-5.9-.45v-.46l-.3-9.52c0-5.17 0-10.34.12-15.51.05-2.58.11-5.16.2-7.75l.17-3.87a29.16 29.16 0 0 1 .35-3.92z"/><path d="m549.47 182.4c-.47 6.4-.75 12.82-.76 19.23s.15 12.83.38 19.24v.56h-.59-.24l-19 .27h-.4v-.4l-.41-5.16h.78l-.28 5.17v.33h-.33l-9.13.1h-.25v-.24a56.19 56.19 0 0 1 -.41-9.78 85.68 85.68 0 0 1 1-9.73 95.45 95.45 0 0 1 5.09-18.81 95.26 95.26 0 0 0 -4.92 18.89 85 85 0 0 0 -.8 9.69 55.69 55.69 0 0 0 .54 9.67l-.28-.23 9.12-.24-.35.34.2-5.17h.78l.48 5.16-.43-.39 19-.56h.25l-.57.58c-.05-6.43 0-12.85.18-19.28s.69-12.86 1.35-19.24z"/><path d="m591.77 220.81c.05-3.75-.19-7.49-.43-11.23-.09-7.48-.45-15-.9-22.45.74 7.46 1.37 14.93 1.75 22.43-.04 3.75-.09 7.51-.42 11.25z"/><path d="m535.75 284.72a85 85 0 0 1 -4.43-10.93q-1.91-5.6-3.29-11.35a198.21 198.21 0 0 1 -3.23-47 197.61 197.61 0 0 0 4.61 46.69q1.05 5.78 2.59 11.45a84.64 84.64 0 0 0 3.75 11.14z"/><path d="m510.36 192.23a130.47 130.47 0 0 0 -4.79 34.94 113.74 113.74 0 0 0 .76 17.6 74.77 74.77 0 0 0 4.07 17.1 58.6 58.6 0 0 0 3.75 8 43 43 0 0 0 5.19 7.11 27 27 0 0 0 6.91 5.42 19.64 19.64 0 0 0 8.44 2.39 19.81 19.81 0 0 1 -8.52-2.23 27.2 27.2 0 0 1 -7.09-5.34 43.1 43.1 0 0 1 -5.39-7.08 59.24 59.24 0 0 1 -3.94-8 75.28 75.28 0 0 1 -4.48-17.22 116 116 0 0 1 -1.12-17.77 131.49 131.49 0 0 1 6.21-34.92z"/><path d="m608.28 287.06a109 109 0 0 0 6.93-22.12 167.51 167.51 0 0 0 4.19-22.8 219.31 219.31 0 0 0 1.3-23.22 220.8 220.8 0 0 1 -.6 23.29 168.68 168.68 0 0 1 -3.51 23.07 109.82 109.82 0 0 1 -8.31 21.78z"/><path d="m641.29 221.48a114.8 114.8 0 0 1 -.21 26.78 78.28 78.28 0 0 1 -3.44 13 52.78 52.78 0 0 1 -2.71 6.16c-.53 1-1 2-1.61 3s-1.12 2-1.79 2.85a36.27 36.27 0 0 1 -9.31 9.62 23.28 23.28 0 0 1 -12.53 4.24 23.14 23.14 0 0 0 12.31-4.55 35.5 35.5 0 0 0 8.92-9.72c.64-.9 1.12-1.9 1.69-2.85s1-2 1.5-3a50.22 50.22 0 0 0 2.51-6.13 76.91 76.91 0 0 0 3-12.89 113.83 113.83 0 0 0 1.67-26.51z"/></g></svg>