<svg xmlns="http://www.w3.org/2000/svg" viewBox="0 0 1200 1800"><title>centre-parted-1</title><g style="isolation:isolate"><g id="hourglass"><g id="hair_front" data-name="hair front"><g id="centre-parted_1" data-name="centre-parted 1"><g id="shading"><path d="M628.21,169.25c18.5,41.18.79,57,5.54,73.35S619.67,267,618.5,282c-2.44-7.12,2.86-12.46,8-24.33a15.34,15.34,0,0,0-3.33-17.59c-3.33-9.47-5.07-27-7.67-46.62-3.21-24.26-22.76-40.46-45.22-24.21-32.2-9.75-45.89,17-47.14,23.41-2.29,11.84,6.85,17.34,2.1,49.94a27.12,27.12,0,0,1-1.68,6.48c-2.28,8.84-1.09,19.65,2.26,24.09.21,2,7.39,8.83,7.39,8.83-16.47-10.25-22.72-19.62-18.47-45.25,3.8-22.94-14.75-24.25,0-63.25S569,148.75,569,148.75,609.71,128.07,628.21,169.25Z" style="fill:#4e4e4f"/></g><g id="shadow" style="opacity:0.1;mix-blend-mode:multiply"><path d="M629,224.21C625.2,198,630.67,186,617.26,169.5,629,182.5,619.17,202.09,629,224.21Z" style="fill:#4e4e4f"/><path d="M557,153c-24.56-5-41.83,24.9-42.67,34.29s-2.55,15,.84,30.34c-11.45-25.55,1.55-44.29,1.55-44.29S533.86,146.21,557,153Z" style="fill:#4e4e4f"/><path d="M533.22,282s-15.13-9.09-17.76-18.71-2-11.29-2-11.29-1.41,14.11,6,21.64S533.22,282,533.22,282Z" style="fill:#4e4e4f"/><path d="M618.5,282s-.66-4.2,3.83-10.65,5.49-7.82,5.49-7.82-5.87,9.67-6.54,11.37Z" style="fill:#4e4e4f"/><path d="M623.18,241.06s-.61,19.22-2.34,23.61-3.6,9.59-3.58,11.84c2-5.51,9-16.82,10-23.26S626.11,243.38,623.18,241.06Z" style="fill:#4e4e4f"/><path d="M523.57,249.08c1.37,11.86,7.89,27.15,11.24,31.59.21,2-1.59,1.33-1.59,1.33S517.64,271.54,523.57,249.08Z" style="fill:#4e4e4f"/><path d="M618.5,282s-1.42-1-1.24-5.49c-2.07,4.74-3.64,8.21-3.64,8.21A5.65,5.65,0,0,0,618.5,282Z" style="fill:#4e4e4f"/></g><g id="dark_shadow" data-name="dark shadow" style="opacity:0.1;mix-blend-mode:multiply"><path d="M623.18,241.06s-.61,19.22-2.34,23.61-3.6,9.59-3.58,11.84c2-5.51,9-16.82,10-23.26S626.11,243.38,623.18,241.06Z" style="fill:#4e4e4f"/><path d="M523.57,249.08c1.37,11.86,7.89,27.15,11.24,31.59.21,2-1.59,1.33-1.59,1.33S517.64,271.54,523.57,249.08Z" style="fill:#4e4e4f"/><path d="M618.5,282s-1.42-1-1.24-5.49c-2.07,4.74-3.64,8.21-3.64,8.21A5.65,5.65,0,0,0,618.5,282Z" style="fill:#4e4e4f"/></g><g id="stroke"><path d="M570.29,169.25a22.35,22.35,0,0,0-18.15-3,26.37,26.37,0,0,0-8.68,3.24,55.86,55.86,0,0,0-7.88,5.49,50,50,0,0,0-6.84,6.81,28.06,28.06,0,0,0-4.92,8.32,28.37,28.37,0,0,1,4.36-8.75,51.3,51.3,0,0,1,6.46-7.44,57.15,57.15,0,0,1,7.7-6.23,28.84,28.84,0,0,1,9.25-4.22,23.19,23.19,0,0,1,10.13.93A23.7,23.7,0,0,1,570.29,169.25Z" style="fill:#231f20"/><path d="M523.15,192.66a35.32,35.32,0,0,0,0,7.76,67.32,67.32,0,0,0,1.22,7.65,29.14,29.14,0,0,0,1,3.65c.41,1.19,1,2.47,1.32,3.73a43.47,43.47,0,0,1,1.7,7.84A56.68,56.68,0,0,1,527,239.13c-1.13,5.16-2.84,10.07-3.64,15.14a40.82,40.82,0,0,0-.49,7.65,24.32,24.32,0,0,0,1.53,7.48c1.81,4.83,5.27,8.88,8.87,12.6-3.76-3.56-7.43-7.44-9.53-12.33a25.44,25.44,0,0,1-1.93-7.67,41.08,41.08,0,0,1,.15-7.92c.59-5.27,2.09-10.31,3-15.37a54.3,54.3,0,0,0,.75-15.19,40.59,40.59,0,0,0-.93-7.52c-.24-1.27-.62-2.43-.95-3.74a30.69,30.69,0,0,1-.72-3.95,66.63,66.63,0,0,1-.53-7.85A34.56,34.56,0,0,1,523.15,192.66Z" style="fill:#231f20"/><path d="M616.45,200.79c1.67,9.34,3.17,18.77,5.52,27.87.41,2.31.93,4.59,1.54,6.82a22.22,22.22,0,0,0,2.63,6.17c.13.21.31.48.5.74l.54.79a18.56,18.56,0,0,1,.88,1.72,13,13,0,0,1,1,3.71,17.5,17.5,0,0,1-1.12,7.33c-1.65,4.6-4.27,8.6-6.55,12.75a36.42,36.42,0,0,0-2.93,6.42,9.32,9.32,0,0,0,.09,6.89,9.53,9.53,0,0,1-.43-7,37.14,37.14,0,0,1,2.64-6.65c2.08-4.27,4.49-8.42,5.83-12.86a16,16,0,0,0,.71-6.69,11.13,11.13,0,0,0-1-3.11,14.33,14.33,0,0,0-.82-1.41l-.5-.65-.53-.71a24.42,24.42,0,0,1-3.3-6.7q-1.14-3.47-1.95-7C617.73,219.74,617.19,210.26,616.45,200.79Z" style="fill:#231f20"/><path d="M570.29,169.25a30.71,30.71,0,0,1,9.86-5.34,28.57,28.57,0,0,1,11.4-1.4l2.85.63,2.76.94a26.33,26.33,0,0,1,5.18,2.69,20.8,20.8,0,0,1,4.14,4.08,33.55,33.55,0,0,1,3.14,4.74A58.81,58.81,0,0,1,616,196.92a57.89,57.89,0,0,0-7.64-20.6,32.33,32.33,0,0,0-3.27-4.33,19.19,19.19,0,0,0-4-3.46,24,24,0,0,0-4.81-2.12l-2.56-.69-2.61-.41a26.7,26.7,0,0,0-10.65,0A29.83,29.83,0,0,0,570.29,169.25Z" style="fill:#231f20"/><path d="M512.6,219.84a55.77,55.77,0,0,1-3.39-14.29,82,82,0,0,1-.3-14.79,70.06,70.06,0,0,1,1.34-7.31,39.92,39.92,0,0,1,2.44-7.07,91.52,91.52,0,0,1,6.65-13.14,35.92,35.92,0,0,1,10.25-10.55,38.12,38.12,0,0,1,13.55-5.49,37.84,37.84,0,0,0-13.25,5.93,35,35,0,0,0-9.65,10.67c-2.52,4.14-4.23,8.67-6.09,13.22A47.08,47.08,0,0,0,511,191a79.38,79.38,0,0,0-.76,14.47A55.32,55.32,0,0,0,512.6,219.84Z" style="fill:#231f20"/><path d="M623.18,157.33a71.51,71.51,0,0,1,10.06,19.32,105.24,105.24,0,0,1,3.45,21.55,103.92,103.92,0,0,1,.1,10.88,54.76,54.76,0,0,1-1.39,10.76,54.8,54.8,0,0,0,.86-10.77,108.21,108.21,0,0,0-5.06-31.81A70.33,70.33,0,0,0,623.18,157.33Z" style="fill:#231f20"/></g></g></g></g></g></svg>