<svg viewBox="0 0 1200 1800" xmlns="http://www.w3.org/2000/svg"><path d="m628.21 169.25c18.5 41.18.79 57 5.54 73.35s-14.08 24.4-15.25 39.4c-2.44-7.12 2.86-12.46 8-24.33a15.34 15.34 0 0 0 -3.33-17.59c-3.33-9.47-5.07-27-7.67-46.62-3.21-24.26-22.76-40.46-45.22-24.21-32.2-9.75-45.89 17-47.14 23.41-2.29 11.84 6.85 17.34 2.1 49.94a27.12 27.12 0 0 1 -1.68 6.48c-2.28 8.84-1.09 19.65 2.26 24.09.21 2 7.39 8.83 7.39 8.83-16.47-10.25-22.72-19.62-18.47-45.25 3.8-22.94-14.75-24.25 0-63.25s54.26-24.75 54.26-24.75 40.71-20.68 59.21 20.5z" fill="#4e4e4f"/><g fill="#4e4e4f" opacity=".1"><path d="m629 224.21c-3.8-26.21 1.67-38.21-11.74-54.71 11.74 13 1.91 32.59 11.74 54.71z"/><path d="m557 153c-24.56-5-41.83 24.9-42.67 34.29s-2.55 15 .84 30.34c-11.45-25.55 1.55-44.29 1.55-44.29s17.14-27.13 40.28-20.34z"/><path d="m533.22 282s-15.13-9.09-17.76-18.71-2-11.29-2-11.29-1.41 14.11 6 21.64 13.76 8.36 13.76 8.36z"/><path d="m618.5 282s-.66-4.2 3.83-10.65 5.49-7.82 5.49-7.82-5.87 9.67-6.54 11.37z"/><path d="m623.18 241.06s-.61 19.22-2.34 23.61-3.6 9.59-3.58 11.84c2-5.51 9-16.82 10-23.26s-1.15-9.87-4.08-12.19z"/><path d="m523.57 249.08c1.37 11.86 7.89 27.15 11.24 31.59.21 2-1.59 1.33-1.59 1.33s-15.58-10.46-9.65-32.92z"/><path d="m618.5 282s-1.42-1-1.24-5.49c-2.07 4.74-3.64 8.21-3.64 8.21a5.65 5.65 0 0 0 4.88-2.72z"/></g><g fill="#4e4e4f" opacity=".1"><path d="m623.18 241.06s-.61 19.22-2.34 23.61-3.6 9.59-3.58 11.84c2-5.51 9-16.82 10-23.26s-1.15-9.87-4.08-12.19z"/><path d="m523.57 249.08c1.37 11.86 7.89 27.15 11.24 31.59.21 2-1.59 1.33-1.59 1.33s-15.58-10.46-9.65-32.92z"/><path d="m618.5 282s-1.42-1-1.24-5.49c-2.07 4.74-3.64 8.21-3.64 8.21a5.65 5.65 0 0 0 4.88-2.72z"/></g><g fill="#231f20"><path d="m570.29 169.25a22.35 22.35 0 0 0 -18.15-3 26.37 26.37 0 0 0 -8.68 3.24 55.86 55.86 0 0 0 -7.88 5.49 50 50 0 0 0 -6.84 6.81 28.06 28.06 0 0 0 -4.92 8.32 28.37 28.37 0 0 1 4.36-8.75 51.3 51.3 0 0 1 6.46-7.44 57.15 57.15 0 0 1 7.7-6.23 28.84 28.84 0 0 1 9.25-4.22 23.19 23.19 0 0 1 10.13.93 23.7 23.7 0 0 1 8.57 4.85z"/><path d="m523.15 192.66a35.32 35.32 0 0 0 0 7.76 67.32 67.32 0 0 0 1.22 7.65 29.14 29.14 0 0 0 1 3.65c.41 1.19 1 2.47 1.32 3.73a43.47 43.47 0 0 1 1.7 7.84 56.68 56.68 0 0 1 -1.39 15.84c-1.13 5.16-2.84 10.07-3.64 15.14a40.82 40.82 0 0 0 -.49 7.65 24.32 24.32 0 0 0 1.53 7.48c1.81 4.83 5.27 8.88 8.87 12.6-3.76-3.56-7.43-7.44-9.53-12.33a25.44 25.44 0 0 1 -1.93-7.67 41.08 41.08 0 0 1 .15-7.92c.59-5.27 2.09-10.31 3-15.37a54.3 54.3 0 0 0 .75-15.19 40.59 40.59 0 0 0 -.93-7.52c-.24-1.27-.62-2.43-.95-3.74a30.69 30.69 0 0 1 -.72-3.95 66.63 66.63 0 0 1 -.53-7.85 34.56 34.56 0 0 1 .57-7.8z"/><path d="m616.45 200.79c1.67 9.34 3.17 18.77 5.52 27.87.41 2.31.93 4.59 1.54 6.82a22.22 22.22 0 0 0 2.63 6.17c.13.21.31.48.5.74l.54.79a18.56 18.56 0 0 1 .88 1.72 13 13 0 0 1 1 3.71 17.5 17.5 0 0 1 -1.12 7.33c-1.65 4.6-4.27 8.6-6.55 12.75a36.42 36.42 0 0 0 -2.93 6.42 9.32 9.32 0 0 0 .09 6.89 9.53 9.53 0 0 1 -.43-7 37.14 37.14 0 0 1 2.64-6.65c2.08-4.27 4.49-8.42 5.83-12.86a16 16 0 0 0 .71-6.69 11.13 11.13 0 0 0 -1-3.11 14.33 14.33 0 0 0 -.82-1.41l-.5-.65-.53-.71a24.42 24.42 0 0 1 -3.3-6.7q-1.14-3.47-1.95-7c-1.47-9.48-2.01-18.96-2.75-28.43z"/><path d="m570.29 169.25a30.71 30.71 0 0 1 9.86-5.34 28.57 28.57 0 0 1 11.4-1.4l2.85.63 2.76.94a26.33 26.33 0 0 1 5.18 2.69 20.8 20.8 0 0 1 4.14 4.08 33.55 33.55 0 0 1 3.14 4.74 58.81 58.81 0 0 1 6.38 21.33 57.89 57.89 0 0 0 -7.64-20.6 32.33 32.33 0 0 0 -3.27-4.33 19.19 19.19 0 0 0 -4-3.46 24 24 0 0 0 -4.81-2.12l-2.56-.69-2.61-.41a26.7 26.7 0 0 0 -10.65 0 29.83 29.83 0 0 0 -10.17 3.94z"/><path d="m512.6 219.84a55.77 55.77 0 0 1 -3.39-14.29 82 82 0 0 1 -.3-14.79 70.06 70.06 0 0 1 1.34-7.31 39.92 39.92 0 0 1 2.44-7.07 91.52 91.52 0 0 1 6.65-13.14 35.92 35.92 0 0 1 10.25-10.55 38.12 38.12 0 0 1 13.55-5.49 37.84 37.84 0 0 0 -13.25 5.93 35 35 0 0 0 -9.65 10.67c-2.52 4.14-4.23 8.67-6.09 13.22a47.08 47.08 0 0 0 -3.15 13.98 79.38 79.38 0 0 0 -.76 14.47 55.32 55.32 0 0 0 2.36 14.37z"/><path d="m623.18 157.33a71.51 71.51 0 0 1 10.06 19.32 105.24 105.24 0 0 1 3.45 21.55 103.92 103.92 0 0 1 .1 10.88 54.76 54.76 0 0 1 -1.39 10.76 54.8 54.8 0 0 0 .86-10.77 108.21 108.21 0 0 0 -5.06-31.81 70.33 70.33 0 0 0 -8.02-19.93z"/></g></svg>