<svg xmlns="http://www.w3.org/2000/svg" viewBox="0 0 1200 1800"><title>left-parted-1</title><g style="isolation:isolate"><g id="hourglass"><g id="hair_front" data-name="hair front"><g id="side-parted_left_1" data-name="side-parted left 1"><g id="shading"><path d="M514.16,219.17s-4,1.41-10.38-.67c14.33-3.45-3.58-46.42,40.57-75.14,16.63-10.82,47-12.4,60.26-1.25,16,2.89,19.92,25.79,19.92,25.79,6.15,35.17-.75,55.52-.75,55.52s-1-10.74-25.74-58.12c-19.07,49.31-90,61.1-90,61.1Z" style="fill:#4d4d4f"/></g><g id="shadow" style="opacity:0.1;mix-blend-mode:multiply"><polygon points="509.82 215.12 516.67 210.17 515 214.17 521.33 210.17 516 217.33 509.09 216.13 509.82 215.12" style="fill:#231f20"/><path d="M522.89,223.55s12.94-6.94,18.11-16.66c-3.67,10.94-7.09,13.17-7.09,13.17Z" style="fill:#231f20"/><path d="M539.54,216.94s16.3-12.44,17-23.94c0,3.5-.45,15.74-4.37,19.43C544.6,214.84,539.54,216.94,539.54,216.94Z" style="fill:#231f20"/><path d="M545.29,180.43a60.6,60.6,0,0,1,11-24.72c-2.34,8.72-9,23.14-9,23.14s14.66-7.92,18.33-18.92c1.17,9.17,3.85,10.83,3.85,10.83s7.65-7.6,8.32-15c.83,10.39-9.67,17.72-9.67,17.72s-4.64-3.2-3.83-7.67C560.3,171,561.12,176.93,545.29,180.43Z" style="fill:#231f20"/><path d="M604.67,152.33s-2.81,17.42,1.58,26.84C601,168.82,600,166.39,600,166.39Z" style="fill:#231f20"/><path d="M623.78,224.44s3.77-12.26,3.3-32.48a95.16,95.16,0,0,1,.75,28l-1.37-2.54a17.11,17.11,0,0,0,.24,6A2.86,2.86,0,0,0,623.78,224.44Z" style="fill:#231f20"/><path d="M520.46,224.21c12.54-4.54,69.87-26.21,79.22-58.64,0,0,11.34,27.72,17.87,38.43-9.38-13.5-15-19-18.22-26.33-3.83,7.58-15.33,19-21.5,20.5C568.17,206,545.09,219.72,532,222S522.89,223.55,520.46,224.21Z" style="fill:#231f20"/></g><g id="stroke"><path d="M604.67,151.16a88.28,88.28,0,0,1-4.62,14.21,97.93,97.93,0,0,1-6.75,13.37,87,87,0,0,1-8.88,12.14,75.45,75.45,0,0,1-11.06,10.29,69.64,69.64,0,0,1-7.41,4.58c-1.28.7-2.57,1.33-3.85,2l-3.86,1.9c-5.17,2.5-10.38,4.92-15.65,7.18-10.55,4.5-21.46,8.48-32.84,10.31l-1.67.27,1.31-1.07a24.16,24.16,0,0,0,5.49-7.14l.39.53a30.12,30.12,0,0,1-10.5-.77l-1.81-.44,1.86-.1a4.1,4.1,0,0,0,2.95-1.93,16.42,16.42,0,0,0,1.8-3.36,48.52,48.52,0,0,0,2.19-7.41A121.9,121.9,0,0,0,514,190.35a121.17,121.17,0,0,1-2,15.4,48,48,0,0,1-2.08,7.5,16.29,16.29,0,0,1-1.79,3.5,4.61,4.61,0,0,1-3.32,2.19l.06-.54a29.5,29.5,0,0,0,10.25.57l.71-.09-.32.62a33.82,33.82,0,0,1-2.43,4A18.45,18.45,0,0,1,510,227l-.36-.8c11.25-2,22-6.14,32.39-10.8,5.21-2.35,10.35-4.85,15.45-7.43,2.52-1.32,5.12-2.59,7.57-4a67.83,67.83,0,0,0,7.12-4.57,75,75,0,0,0,11.13-9.64,86.57,86.57,0,0,0,9.15-11.63,99.25,99.25,0,0,0,7.17-13A90.48,90.48,0,0,0,604.67,151.16Z" style="fill:#231f20"/><polygon points="620.66 212.18 611.97 194.87 597.5 158.97 613.92 194.02 620.66 212.18" style="fill:#231f20"/></g></g></g></g></g></svg>