<svg viewBox="0 0 1200 1800" xmlns="http://www.w3.org/2000/svg"><path d="m597.5 144c-47-25-80.29 16.63-83.45 68.18-4.72 76.84 22.14 71.93 22.14 71.93-5.64-3-6.65-39.22-4.74-68.89 2.41-37.47 13.23-41.75 24.88-47 22-9.91 35.77 4.51 35.77 4.51s27.46 2.36 27.63 59.5c.09 31.47-1.09 41.39-5.06 53.71 0 0 24.83-5.63 18.27-72.08-5.62-56.86-14.22-72.03-35.44-69.86z" fill="#4d4d4f"/><g fill="#4e4e4f" opacity=".1"><path d="m536.76 283.13c-8.19 4.7-6.69-93.46 6.21-103.46 31.12-24.12 49.13-6.92 49.13-6.92s-7.36-16.44-31.9-9.76-26.4 33.68-26.4 33.68-9.8 85.09 2.96 86.46z"/><path d="m592.1 172.75s24.21-9.13 27.42 49.83c2.93 53.73-5.7 64.1-5.7 64.1s7.8-62.12-1.57-88.18c-9.13-25.38-20.15-25.75-20.15-25.75z"/><path d="m593.44 172.75s2.17-4.3 1-8c.78.89 2-3.34 2.67-6.54s1.95-3.2 2.66-5.46 3.64-8.18 3.64-8.18.52-1-2.29-2.78c-1.93-1.25-6-2.34-13.43-2.69a44.29 44.29 0 0 1 10.06 5.5 69.8 69.8 0 0 0 -10.56-1.68s5.38 3.44 7.43 5.74c-3.59-1.5-11.36-2.09-11.36-2.09s8.55 3.85 9.55 6.59c-3-3.83-14.43-5.5-14.43-5.5s2.25 1.37 2.18 2.21c-7.59-1.58-11.31-.91-11.31-.91s13.75 1.58 20.17 8.2a10.85 10.85 0 0 0 -3.4-.83s8.73 2.29 7.42 16.42z"/><path d="m602.38 144.56a14.41 14.41 0 0 1 5.93-.56c-4 .88-4.52 1.94-4.52 1.94s1.71-.06 3.65.06c0 0-3.78 1.68-4.88 2.12l3 1.57c-.62.25-2.11.25-2.94.5a8 8 0 0 1 2.76 2.5c-1.37.06-4.82.43-4.82.43s5.41 3 5.55 3.56a20.58 20.58 0 0 0 -8.11.7s4.94.37 7.5 1.93c-2.44-.12-4.56-.76-7.75.44a28.73 28.73 0 0 1 7.5 2.77s-5.5-.44-8.25.23c2.06.44 6.44 3.76 6.44 3.76-2.88-1.07-6.38.22-6.38.22a39.44 39.44 0 0 0 5.38 3.17 16.49 16.49 0 0 1 -3.5.66c1.7 2 2.46 3.21 2.31 5.25l-8.44-3.37s1.75-17.25 9.57-27.88z"/><path d="m550.5 150.33c-37-2.66-47 126.18-27.27 126.63-16.85 0-9.74-93.21-2.62-101.09 0 0-.15 0-.7 3.32 8.67-20.77 14-24.86 14-24.86s-.67 1.82-1.53 4.92c7.14-9.14 18.12-8.92 18.12-8.92z"/><path d="m637 230.17c2.58 34-7 56.37-23.18 56.51 17.35-9.72 18.61-28.33 19.94-62 .83 5.51 1.68 8.83 1.68 8.83z"/><path d="m631.6 201.66s-1.93-22.49-15.1-33.33c17.29 14 17.26 38.81 17.26 38.81a13.83 13.83 0 0 0 -2.16-5.48z"/></g><g fill="#4e4e4f" opacity=".1"><path d="m536.76 283.13c-8.19 4.7-6.69-93.46 6.21-103.46 31.12-24.12 49.13-6.92 49.13-6.92s-7.36-16.44-31.9-9.76-26.4 33.68-26.4 33.68-9.8 85.09 2.96 86.46z"/><path d="m592.1 172.75s24.21-9.13 27.42 49.83c2.93 53.73-5.7 64.1-5.7 64.1s7.8-62.12-1.57-88.18c-9.13-25.38-20.15-25.75-20.15-25.75z"/></g><g fill="#231f20"><path d="m592.1 171.57a31.11 31.11 0 0 0 -12.82-8.95 25.91 25.91 0 0 0 -7.7-1.4 28.92 28.92 0 0 0 -7.75 1 38.2 38.2 0 0 0 -13.83 7.23 46.65 46.65 0 0 0 -10.3 11.68 35.11 35.11 0 0 0 -3 5.76 25.93 25.93 0 0 0 -1.81 6.2c-.64 4.33-1.12 8.74-1.58 13.13q-1.37 13.17-2.07 26.41c-.46 8.81-.71 17.65-.43 26.47a116.31 116.31 0 0 0 1.09 13.19 41.45 41.45 0 0 0 1.42 6.43 15.51 15.51 0 0 0 1.29 3 5.57 5.57 0 0 0 2.2 2.31l.42.2h-.45a15.68 15.68 0 0 1 -9.68-3.45 26.35 26.35 0 0 1 -6.66-7.93 26.11 26.11 0 0 0 6.73 7.83 15.43 15.43 0 0 0 9.58 3.31v.23a5.79 5.79 0 0 1 -2.35-2.38 17.32 17.32 0 0 1 -1.34-3.06 41.17 41.17 0 0 1 -1.51-6.48 117 117 0 0 1 -1.23-13.22c-.38-8.84-.23-17.69.12-26.53s1-17.67 1.78-26.48c.42-4.41.85-8.8 1.44-13.22a27.64 27.64 0 0 1 1.83-6.51 36 36 0 0 1 3.06-6 47.83 47.83 0 0 1 10.84-11.77 39 39 0 0 1 14.27-7.07 29.55 29.55 0 0 1 8-.85 26.23 26.23 0 0 1 7.8 1.59 31.46 31.46 0 0 1 12.64 9.33z"/><path d="m592.1 172.75a19.44 19.44 0 0 1 6.39 1.88 26.6 26.6 0 0 1 5.56 3.72 34.93 34.93 0 0 1 8.18 10.58c4.23 7.94 6.26 16.85 7.32 25.72.43 3 .47 6.07.6 9.11 0 1.52.16 3 .15 4.56v4.55c0 3 0 6.07-.08 9.1s-.16 6.07-.27 9.1c-.28 6.07-.63 12.13-1.38 18.16-.18 1.51-.42 3-.62 4.52s-.49 3-.85 4.48a45.75 45.75 0 0 1 -1.15 4.43l-.36 1.08-.43 1.07a7.59 7.59 0 0 1 -1.19 2l-.25-.37a34.92 34.92 0 0 0 14.43-15.11 32.86 32.86 0 0 0 1.53-4 33.89 33.89 0 0 0 1.49-8.37 34.14 34.14 0 0 1 -1.38 8.4 32.2 32.2 0 0 1 -1.49 4 35.16 35.16 0 0 1 -14.38 15.45l-1.12.63.87-1a7.14 7.14 0 0 0 1-1.89l.41-1 .34-1.08a43.73 43.73 0 0 0 1.08-4.38c.33-1.48.51-3 .78-4.47s.4-3 .56-4.5c.67-6 .94-12.06 1.14-18.11.06-3 .16-6 .14-9.08s0-6.05 0-9.08l-.06-4.54c0-1.52-.14-3-.21-4.53-.17-3-.24-6-.71-9-.81-8.78-2.58-17.62-6.54-25.55a34.17 34.17 0 0 0 -7.79-10.63 25.65 25.65 0 0 0 -5.4-3.83 19.3 19.3 0 0 0 -6.31-2.02z"/><path d="m546 151.25c-3.86 1-7 3.59-9.67 6.41l-1.92 2.22-1.71 2.38c-.28.41-.59.79-.84 1.21l-.75 1.26-1.5 2.53a96.15 96.15 0 0 0 -8.61 21.85c-1.15 3.76-1.88 7.63-2.76 11.46-.23 1-.41 1.92-.57 2.89l-.5 2.91-1 5.81.92-5.83.47-2.91c.14-1 .31-1.94.53-2.9.83-3.84 1.52-7.72 2.63-11.5a96.34 96.34 0 0 1 8.39-22.04l1.57-2.51.78-1.26c.27-.41.59-.79.88-1.19l1.79-2.36 2-2.2c.66-.73 1.44-1.34 2.16-2s1.57-1.2 2.34-1.8a15.8 15.8 0 0 1 5.37-2.43z"/><path d="m575.73 150.21a20 20 0 0 1 9 3 21.43 21.43 0 0 1 6.54 6.86 19.16 19.16 0 0 1 1.86 4.37 14.1 14.1 0 0 1 .47 4.71 14.53 14.53 0 0 0 -.53-4.69 19.46 19.46 0 0 0 -1.93-4.32 21.06 21.06 0 0 0 -6.56-6.69 19.87 19.87 0 0 0 -8.85-3.24z"/><path d="m611.63 166.36a13 13 0 0 0 -4.1-.54 15.61 15.61 0 0 0 -8 2.06 15.74 15.74 0 0 1 8-2.34 13.23 13.23 0 0 1 4.1.82z"/><path d="m621.12 172.75a3.54 3.54 0 0 1 1.22 1.06 12.84 12.84 0 0 1 .94 1.34 30.55 30.55 0 0 1 1.5 2.9 63.47 63.47 0 0 1 2.33 6.11 216.66 216.66 0 0 1 5.4 25.51 218.31 218.31 0 0 0 -5.94-25.34c-.6-2.09-1.25-4.16-2.05-6.17a29 29 0 0 0 -1.37-2.94 10.92 10.92 0 0 0 -.87-1.37 3.39 3.39 0 0 0 -1.16-1.1z"/><path d="m583.81 167.32a19.88 19.88 0 0 0 -6.33-4.1 26.13 26.13 0 0 0 -7.31-1.82l-2-.19.09-.52a44 44 0 0 1 4.57 1.7 22.49 22.49 0 0 1 2.18 1.13 6.35 6.35 0 0 1 1.92 1.61l.29.4-.5-.16a70.27 70.27 0 0 0 -6.88-1.81 27.12 27.12 0 0 0 -7.07-.69v-.08a33.12 33.12 0 0 1 4.24 1.34 33.54 33.54 0 0 0 -4.26-1.26l-.26-.06h.27a27.41 27.41 0 0 1 7.11.56 69 69 0 0 1 6.95 1.69l-.21.25a6.2 6.2 0 0 0 -1.81-1.43 21.43 21.43 0 0 0 -2.15-1.06 43 43 0 0 0 -4.55-1.6l-2.37-.71 2.46.19 2.06.16a26.07 26.07 0 0 1 7.35 2.13 19.67 19.67 0 0 1 6.21 4.33z"/><path d="m596.08 172.75a19.31 19.31 0 0 1 8.26 3.28 23.37 23.37 0 0 1 6 6.63 34.48 34.48 0 0 1 3.5 8.17 34.49 34.49 0 0 0 -3.74-8 23 23 0 0 0 -6.07-6.32 19 19 0 0 0 -7.95-3.76z"/><path d="m590.5 152.92a13.57 13.57 0 0 1 2.38 1.05 7.06 7.06 0 0 1 3 4.09 6.94 6.94 0 0 0 -3.19-3.85 12.86 12.86 0 0 0 -2.19-1.29z"/><path d="m597.92 146.83a2.67 2.67 0 0 1 1.08 1.59v.05l.15.78-.4-.68a4.49 4.49 0 0 0 -3.14-1.74 6.51 6.51 0 0 1 1.84.44 3.29 3.29 0 0 1 1.53 1.16l-.25.1v-.05a2.54 2.54 0 0 0 -.81-1.65z"/><path d="m604.28 147.71a5.64 5.64 0 0 0 -1.3 0 3.81 3.81 0 0 0 -2.42.78 3.94 3.94 0 0 1 2.41-1.06 5.26 5.26 0 0 1 1.31.28z"/><path d="m592.1 149.75a6.69 6.69 0 0 1 2.28.48 7.15 7.15 0 0 1 3.12 3.38 7 7 0 0 0 -3.24-3.12 6.51 6.51 0 0 0 -2.16-.74z"/><path d="m602.19 150.17a2.77 2.77 0 0 0 -1.39.36 2.19 2.19 0 0 0 -.9 1.05 2.94 2.94 0 0 0 -.27.84v.05a9.37 9.37 0 0 0 -1 2.3 6.23 6.23 0 0 0 -.79 2.25 6.61 6.61 0 0 1 .69-2.32 9.15 9.15 0 0 1 .91-2.4 3.06 3.06 0 0 1 .26-.94 2.41 2.41 0 0 1 1.08-1.06 2.94 2.94 0 0 1 1.41-.13z"/><path d="m605.38 145.06a2.64 2.64 0 0 0 -1.83.29 3.79 3.79 0 0 0 -1 .58l-.12-.16a2.82 2.82 0 0 1 2.62.26 2.74 2.74 0 0 0 -2.52-.09l-.67.37.55-.52a3.94 3.94 0 0 1 1-.7 2.82 2.82 0 0 1 1.97-.03z"/><path d="m603.44 160.94a13.28 13.28 0 0 0 -2.6.05 7.44 7.44 0 0 0 -4.76 1.82 7.69 7.69 0 0 1 4.74-2.11 14.27 14.27 0 0 1 2.62.24z"/><path d="m603.94 156.56a5.1 5.1 0 0 0 -1.46 0 11.17 11.17 0 0 0 -2.91.41 11 11 0 0 1 2.9-.69 5.23 5.23 0 0 1 1.47.28z"/></g></svg>